<svg width="64" height="64" viewBox="0 0 64 64" fill="none" xmlns="http://www.w3.org/2000/svg">
<rect width="64" height="64" rx="32" fill="black"/>
<mask id="mask0_1358_6337" style="mask-type:luminance" maskUnits="userSpaceOnUse" x="11" y="22" width="43" height="20">
<path d="M53.1098 22H11V42H53.1098V22Z" fill="white"/>
</mask>
<g mask="url(#mask0_1358_6337)">
<path d="M39.5294 27.6688C39.8028 24.6539 42.2232 22.2441 45.3256 22.0345C46.5385 21.9522 47.8335 22.0053 48.9854 22.3503C52.1701 23.311 53.6245 26.5515 52.5019 29.8291C52.048 31.1507 51.2545 32.2654 50.307 33.2685C48.9243 34.7309 47.5204 36.1693 46.1139 37.6077C45.8855 37.8412 45.6016 38.0217 45.3415 38.2261C45.384 38.2951 45.4265 38.3641 45.4662 38.4331C45.5777 38.4331 45.6919 38.4384 45.8033 38.4331C47.7645 38.3535 49.7259 38.2447 51.6897 38.1995C52.6399 38.1783 53.0989 38.6958 53.1095 39.6459C53.1175 40.397 53.1095 41.1454 53.1095 41.9469H39.2242C39.0676 40.673 39.2056 39.5849 40.2274 38.6242C42.1595 36.8062 44.0199 34.9113 45.8352 32.9792C46.6579 32.1035 47.4142 31.1188 47.9822 30.0652C48.3591 29.3646 48.4652 28.4596 48.4865 27.6395C48.5183 26.4665 48.0008 25.7712 47.1569 25.4979C46.1005 25.1555 44.9222 25.4554 44.2428 26.2489C44.0995 26.4161 44.0225 26.6629 43.85 26.777C43.3909 27.0875 42.9238 27.4325 42.4089 27.5971C41.9631 27.7404 41.4455 27.6582 40.9599 27.6661C40.4981 27.6741 40.0363 27.6661 39.5294 27.6661V27.6688Z" fill="white"/>
<path d="M37.1314 41.9521H32.5481V41.1957C32.5481 37.7695 32.5667 34.3432 32.5374 30.917C32.5268 29.8262 32.7631 28.908 33.7795 28.3401C33.7238 28.2817 33.6972 28.2286 33.6707 28.2286C32.9276 28.2445 32.5561 27.8756 32.5561 27.1219C32.5561 25.4924 32.5561 23.8602 32.5561 22.1909H37.1288V41.9521H37.1314Z" fill="white"/>
<path fill-rule="evenodd" clip-rule="evenodd" d="M29.5275 38.2529C28.6227 35.9136 27.7195 33.5784 26.8015 31.2034H26.8068C27.4624 30.822 28.107 30.4474 28.7455 30.0763C29.4356 29.6752 30.1186 29.2782 30.8009 28.8813C30.7837 28.8414 30.7665 28.801 30.7492 28.7605C30.7319 28.72 30.7147 28.6795 30.6975 28.6397C29.811 28.8803 28.9256 29.1219 28.0322 29.3656C27.4571 29.5225 26.8787 29.6803 26.2946 29.8393C26.2612 29.7595 26.2275 29.6812 26.1942 29.6037C26.1398 29.4777 26.0865 29.3538 26.0372 29.2289C25.8165 28.6602 25.5943 28.0923 25.3723 27.5245C24.7985 26.0575 24.2251 24.5914 23.6778 23.1143C23.4124 22.403 22.9798 22.1111 22.2341 22.135C21.2176 22.1695 20.1985 22.1721 19.1847 22.1323C18.7282 22.1137 18.5292 22.273 18.3699 22.687C16.8802 26.5659 15.3834 30.4427 13.8863 34.32C12.9671 36.7008 12.0478 39.0818 11.1301 41.4635C11.0911 41.5627 11.0687 41.6688 11.0432 41.79C11.0304 41.8505 11.0168 41.9147 11 41.9837C11.3848 41.9837 11.7642 41.988 12.1392 41.9924C13.1062 42.0034 14.045 42.0142 14.9782 41.9492C15.3922 41.92 15.9018 41.5909 16.1566 41.2433C17.8869 38.8786 19.8429 36.7263 22.0509 34.8048C22.3476 34.5467 22.6512 34.2984 22.9802 34.0294C23.1044 33.9277 23.2322 33.8232 23.3646 33.714C23.4071 33.8317 23.4454 33.9361 23.4805 34.0322C23.5422 34.2003 23.5943 34.3427 23.6433 34.4864C24.3622 36.5685 25.0809 38.6534 25.7998 40.7382L25.8009 40.7417C26.0133 41.3654 26.3689 41.9094 27.0668 41.9412C27.9577 41.9804 28.8512 41.9724 29.772 41.9641C30.1625 41.9607 30.5579 41.9571 30.9602 41.9571C30.4806 40.717 30.0038 39.4844 29.5275 38.2529ZM20.976 26.7797C21.5546 28.4384 22.0775 29.9454 22.603 31.4609C22.5628 31.4853 22.5227 31.5096 22.4826 31.534C21.7965 31.952 21.1159 32.3661 20.4211 32.7888C20.0358 33.0232 19.6463 33.2602 19.2489 33.5021C19.2425 33.506 19.236 33.51 19.2295 33.5139C18.974 33.6696 18.7152 33.8272 18.4522 33.9874C18.8976 32.7169 19.3317 31.4757 19.7701 30.2229C20.1651 29.0944 20.5635 27.957 20.976 26.7797Z" fill="white"/>
</g>
</svg>
