<svg width="64" height="65" viewBox="0 0 64 65" fill="none" xmlns="http://www.w3.org/2000/svg">
<rect y="0.23877" width="64" height="64" rx="32" fill="#FF9900"/>
<g clip-path="url(#clip0_468_1801)">
<path d="M44.0096 42.4674C30.538 48.8788 22.1773 43.5145 16.8253 40.2564C16.4942 40.0511 15.9313 40.3044 16.4197 40.8654C18.2027 43.0273 24.0459 48.2382 31.6731 48.2382C39.3055 48.2382 43.846 44.0736 44.414 43.3471C44.9782 42.6268 44.5797 42.2294 44.0095 42.4674H44.0096ZM47.7931 40.3779C47.4314 39.9068 45.5933 39.819 44.4366 39.9611C43.278 40.0991 41.5391 40.8071 41.6903 41.2323C41.7678 41.3915 41.9262 41.3201 42.7221 41.2485C43.5201 41.1689 45.7558 40.8868 46.2216 41.4957C46.6896 42.1089 45.5086 45.03 45.2929 45.5011C45.0844 45.9722 45.3725 46.0937 45.764 45.7799C46.15 45.4663 46.849 44.654 47.3181 43.5046C47.7839 42.3488 48.0681 40.7366 47.7931 40.3779Z" fill="white"/>
<path fill-rule="evenodd" clip-rule="evenodd" d="M34.9515 29.385C34.9515 31.0672 34.994 32.4701 34.1437 33.9641C33.4574 35.1788 32.3703 35.9258 31.1557 35.9258C29.4976 35.9258 28.532 34.6625 28.532 32.7981C28.532 29.1177 31.8297 28.4497 34.9515 28.4497V29.385ZM39.3059 39.9099C39.0204 40.1649 38.6075 40.1832 38.2856 40.0131C36.8524 38.8228 36.5972 38.2701 35.8078 37.1344C33.4392 39.5516 31.763 40.2742 28.69 40.2742C25.0582 40.2742 22.228 38.0332 22.228 33.5451C22.228 30.0409 24.1291 27.6541 26.8315 26.4881C29.1758 25.4555 32.4493 25.2734 34.9515 24.988V24.4292C34.9515 23.4028 35.0303 22.1882 34.4292 21.3016C33.9007 20.506 32.8926 20.178 32.0058 20.178C30.3601 20.178 28.8903 21.0221 28.532 22.7712C28.459 23.16 28.1737 23.5426 27.785 23.5608L23.5945 23.1115C23.2423 23.0323 22.8536 22.747 22.9508 22.2064C23.9164 17.1293 28.5015 15.5988 32.607 15.5988C34.7084 15.5988 37.4534 16.1575 39.1115 17.7488C41.2128 19.7103 41.0124 22.3279 41.0124 25.1762V31.9053C41.0124 33.9277 41.8505 34.8144 42.6399 35.9076C42.9193 36.2963 42.9801 36.764 42.6278 37.0554C41.7472 37.7902 40.1802 39.1568 39.3179 39.922L39.3058 39.9099" fill="white"/>
<path d="M44.0096 42.4674C30.538 48.8788 22.1773 43.5145 16.8253 40.2564C16.4942 40.0511 15.9313 40.3044 16.4197 40.8654C18.2027 43.0273 24.0459 48.2382 31.6731 48.2382C39.3055 48.2382 43.846 44.0736 44.414 43.3471C44.9782 42.6268 44.5797 42.2294 44.0095 42.4674H44.0096ZM47.7931 40.3779C47.4314 39.9068 45.5933 39.819 44.4366 39.9611C43.278 40.0991 41.5391 40.8071 41.6903 41.2323C41.7678 41.3915 41.9262 41.3201 42.7221 41.2485C43.5201 41.1689 45.7558 40.8868 46.2216 41.4957C46.6896 42.1089 45.5086 45.03 45.2929 45.5011C45.0844 45.9722 45.3725 46.0937 45.764 45.7799C46.15 45.4663 46.849 44.654 47.3181 43.5046C47.7839 42.3488 48.0681 40.7366 47.7931 40.3779Z" fill="white"/>
<path fill-rule="evenodd" clip-rule="evenodd" d="M34.9515 29.385C34.9515 31.0672 34.994 32.4701 34.1437 33.9641C33.4574 35.1788 32.3703 35.9258 31.1557 35.9258C29.4976 35.9258 28.532 34.6625 28.532 32.7981C28.532 29.1177 31.8297 28.4497 34.9515 28.4497V29.385ZM39.3059 39.9099C39.0204 40.1649 38.6075 40.1832 38.2856 40.0131C36.8524 38.8228 36.5972 38.2701 35.8078 37.1344C33.4392 39.5516 31.763 40.2742 28.69 40.2742C25.0582 40.2742 22.228 38.0332 22.228 33.5451C22.228 30.0409 24.1291 27.6541 26.8315 26.4881C29.1758 25.4555 32.4493 25.2734 34.9515 24.988V24.4292C34.9515 23.4028 35.0303 22.1882 34.4292 21.3016C33.9007 20.506 32.8926 20.178 32.0058 20.178C30.3601 20.178 28.8903 21.0221 28.532 22.7712C28.459 23.16 28.1737 23.5426 27.785 23.5608L23.5945 23.1115C23.2423 23.0323 22.8536 22.747 22.9508 22.2064C23.9164 17.1293 28.5015 15.5988 32.607 15.5988C34.7084 15.5988 37.4534 16.1575 39.1115 17.7488C41.2128 19.7103 41.0124 22.3279 41.0124 25.1762V31.9053C41.0124 33.9277 41.8505 34.8144 42.6399 35.9076C42.9193 36.2963 42.9801 36.764 42.6278 37.0554C41.7472 37.7902 40.1802 39.1568 39.3179 39.922L39.3058 39.9099" fill="white"/>
</g>
<defs>
<clipPath id="clip0_468_1801">
<rect width="33.28" height="33.28" fill="white" transform="translate(15.3599 15.5988)"/>
</clipPath>
</defs>
</svg>
