<svg width="65" height="65" viewBox="0 0 65 65" fill="none" xmlns="http://www.w3.org/2000/svg">
<path d="M32.5 43.0184H14.95C12.52 43.0184 10.09 41.937 8.2 40.315C6.31 38.4226 5.5 36.2599 5.5 33.5566C5.5 30.8532 6.58 28.6905 8.2 26.7981C10.09 24.9057 12.25 24.0947 14.95 24.0947H16.3C17.92 24.0947 19 25.1761 19 26.7981C19 28.4201 17.92 29.5015 16.3 29.5015H14.95C13.87 29.5015 12.79 30.0422 11.98 30.5828C11.44 31.3938 10.9 32.4752 10.9 33.5566C10.9 34.6379 11.44 35.7193 11.98 36.5303C12.79 37.0709 13.87 37.6116 14.95 37.6116H32.5C34.12 37.6116 35.2 38.693 35.2 40.315C35.2 41.937 34.12 43.0184 32.5 43.0184Z" fill="url(#paint0_linear_1257_1759)"/>
<path d="M11.9245 30.4997L11.9078 30.5108L11.8968 30.5274C11.3534 31.3434 10.8 32.4452 10.8 33.5566C10.8 34.6679 11.3534 35.7697 11.8968 36.5857L11.9078 36.6023L11.9245 36.6134C12.7395 37.1574 13.8399 37.7116 14.95 37.7116H32.5C33.2872 37.7116 33.9355 37.9739 34.3867 38.4257C34.838 38.8775 35.1 39.5267 35.1 40.315C35.1 41.1033 34.838 41.7525 34.3867 42.2043C33.9355 42.6561 33.2872 42.9184 32.5 42.9184H14.95C12.5501 42.9184 10.1436 41.8502 8.26805 40.2416C6.40046 38.3704 5.6 36.2347 5.6 33.5566C5.6 30.8846 6.66578 28.745 8.27347 26.8661C10.1423 24.9961 12.2753 24.1947 14.95 24.1947H16.3C17.0872 24.1947 17.7355 24.457 18.1867 24.9088C18.638 25.3606 18.9 26.0098 18.9 26.7981C18.9 27.5864 18.638 28.2356 18.1867 28.6874C17.7355 29.1392 17.0872 29.4015 16.3 29.4015H14.95C13.8399 29.4015 12.7395 29.9557 11.9245 30.4997Z" stroke="url(#paint1_linear_1257_1759)" stroke-opacity="0.5" stroke-width="0.2"/>
<path d="M33.8499 59.2386C31.4199 59.2386 28.9899 58.1573 27.0999 56.5353C25.2099 54.6429 24.3999 52.4802 24.3999 49.7768V48.4251C24.3999 46.8031 25.4799 45.7217 27.0999 45.7217C28.7199 45.7217 29.7999 46.8031 29.7999 48.4251V49.7768C29.7999 50.8582 30.3399 51.9395 30.8799 52.7505C32.4999 54.3726 35.1999 54.3726 36.5499 52.7505C37.3599 51.9395 37.6299 50.8582 37.6299 49.7768V32.2048C37.6299 30.5828 38.7099 29.5015 40.3299 29.5015C41.9499 29.5015 43.0299 30.5828 43.0299 32.2048V49.7768C43.0299 52.2098 41.9499 54.6429 40.3299 56.5353C38.7099 58.4276 36.2799 59.2386 33.8499 59.2386Z" fill="url(#paint2_linear_1257_1759)"/>
<path d="M50.0498 40.3153H48.6998C47.0798 40.3153 45.9998 39.2339 45.9998 37.6119C45.9998 35.9898 47.0798 34.9085 48.6998 34.9085H50.0498C51.1298 34.9085 52.2098 34.3678 53.0198 33.8271C53.8298 33.0161 54.0998 31.9348 54.0998 30.8534C54.0998 29.7721 53.5598 28.6907 53.0198 27.8797C52.4798 27.0687 51.1298 26.7984 50.0498 26.7984H32.4998C30.8798 26.7984 29.7998 25.717 29.7998 24.095C29.7998 22.473 30.8798 21.3916 32.4998 21.3916H50.0498C52.4798 21.3916 54.9098 22.473 56.7998 24.095C58.6898 25.9873 59.4998 28.15 59.4998 30.8534C59.4998 33.5568 58.4198 35.7195 56.7998 37.6119C55.1798 39.5042 52.4798 40.3153 50.0498 40.3153Z" fill="url(#paint3_linear_1257_1759)"/>
<path d="M53.0753 33.9103L53.0836 33.9048L53.0906 33.8978C53.9259 33.0614 54.1998 31.9502 54.1998 30.8534C54.1998 29.7421 53.6464 28.6403 53.103 27.8243C52.815 27.3916 52.3175 27.1116 51.7672 26.9395C51.2151 26.7667 50.5971 26.6984 50.0498 26.6984H32.4998C31.7126 26.6984 31.0643 26.4361 30.6131 25.9843C30.1618 25.5325 29.8998 24.8833 29.8998 24.095C29.8998 23.3067 30.1618 22.6575 30.6131 22.2057C31.0643 21.7539 31.7126 21.4916 32.4998 21.4916H50.0498C52.4497 21.4916 54.8562 22.5598 56.7318 24.1684C58.5993 26.0396 59.3998 28.1753 59.3998 30.8534C59.3998 33.5267 58.3329 35.6672 56.7238 37.5468C55.1294 39.4093 52.4625 40.2153 50.0498 40.2153H48.6998C47.9126 40.2153 47.2643 39.953 46.8131 39.5012C46.3618 39.0494 46.0998 38.4002 46.0998 37.6119C46.0998 36.8236 46.3618 36.1744 46.8131 35.7226C47.2643 35.2708 47.9126 35.0085 48.6998 35.0085H50.0498C51.1599 35.0085 52.2603 34.4543 53.0753 33.9103Z" stroke="url(#paint4_linear_1257_1759)" stroke-opacity="0.5" stroke-width="0.2"/>
<path d="M24.3997 34.9084C22.7797 34.9084 21.6997 33.827 21.6997 32.205V14.633C21.6997 12.2 22.7797 9.76693 24.3997 7.87456C27.9097 4.36017 34.1197 4.36017 37.6297 7.87456C39.5197 9.76693 40.3297 11.9296 40.3297 14.633V15.9847C40.3297 17.6067 39.2497 18.6881 37.6297 18.6881C36.0097 18.6881 34.9297 17.6067 34.9297 15.9847V14.633C34.9297 13.5517 34.3897 12.4703 33.8497 11.6593C32.2297 10.0373 29.5297 10.0373 28.1797 11.6593C27.6397 12.4703 27.0997 13.5517 27.0997 14.633V32.205C27.0997 33.827 26.0197 34.9084 24.3997 34.9084Z" fill="url(#paint5_linear_1257_1759)"/>
<path d="M33.9329 11.6039L33.9275 11.5956L33.9205 11.5886C32.2653 9.93143 29.4961 9.92131 28.1028 11.5953L28.1024 11.595L28.0965 11.6039C27.5531 12.4199 26.9997 13.5216 26.9997 14.633V32.205C26.9997 32.9933 26.7377 33.6425 26.2865 34.0943C25.8352 34.5461 25.1869 34.8084 24.3997 34.8084C23.6125 34.8084 22.9642 34.5461 22.513 34.0943C22.0617 33.6425 21.7997 32.9933 21.7997 32.205V14.633C21.7997 12.23 22.8666 9.82044 24.4732 7.94252C27.9446 4.46995 34.0889 4.47085 37.559 7.94523C39.4285 9.81709 40.2297 11.9535 40.2297 14.633V15.9847C40.2297 16.773 39.9677 17.4222 39.5165 17.874C39.0652 18.3258 38.4169 18.5881 37.6297 18.5881C36.8425 18.5881 36.1942 18.3258 35.743 17.874C35.2917 17.4222 35.0297 16.773 35.0297 15.9847V14.633C35.0297 13.5216 34.4763 12.4199 33.9329 11.6039Z" stroke="url(#paint6_linear_1257_1759)" stroke-opacity="0.5" stroke-width="0.2"/>
<defs>
<linearGradient id="paint0_linear_1257_1759" x1="20.35" y1="24.0947" x2="20.35" y2="43.0184" gradientUnits="userSpaceOnUse">
<stop stop-color="#6F00FF"/>
<stop offset="0.9999" stop-color="#9F71FF"/>
<stop offset="1" stop-color="#9F71FF" stop-opacity="0.3"/>
</linearGradient>
<linearGradient id="paint1_linear_1257_1759" x1="20.35" y1="24.0947" x2="20.35" y2="43.0184" gradientUnits="userSpaceOnUse">
<stop stop-color="white"/>
<stop offset="1" stop-color="white" stop-opacity="0.1"/>
</linearGradient>
<linearGradient id="paint2_linear_1257_1759" x1="33.7149" y1="29.5015" x2="33.7149" y2="59.2386" gradientUnits="userSpaceOnUse">
<stop stop-color="#6F00FF"/>
<stop offset="0.450472" stop-color="#9F71FF"/>
</linearGradient>
<linearGradient id="paint3_linear_1257_1759" x1="44.6498" y1="21.3916" x2="44.6498" y2="40.3153" gradientUnits="userSpaceOnUse">
<stop offset="0.22" stop-color="#6F00FF"/>
<stop offset="1" stop-color="#9F71FF"/>
</linearGradient>
<linearGradient id="paint4_linear_1257_1759" x1="44.6498" y1="21.3916" x2="44.6498" y2="40.3153" gradientUnits="userSpaceOnUse">
<stop stop-color="white"/>
<stop offset="1" stop-color="white" stop-opacity="0.1"/>
</linearGradient>
<linearGradient id="paint5_linear_1257_1759" x1="31.0147" y1="5.23877" x2="31.0147" y2="34.9084" gradientUnits="userSpaceOnUse">
<stop offset="0.569803" stop-color="#6F00FF"/>
<stop offset="1" stop-color="#9F71FF"/>
</linearGradient>
<linearGradient id="paint6_linear_1257_1759" x1="31.0147" y1="5.23877" x2="31.0147" y2="34.9084" gradientUnits="userSpaceOnUse">
<stop stop-color="white"/>
<stop offset="1" stop-color="white" stop-opacity="0.1"/>
</linearGradient>
</defs>
</svg>
