<svg width="64" height="64" viewBox="0 0 64 64" fill="none" xmlns="http://www.w3.org/2000/svg">
<rect width="64" height="64" rx="32" fill="white"/>
<path opacity="0.998" fill-rule="evenodd" clip-rule="evenodd" d="M32.1199 16.0031C32.1963 15.99 32.2486 16.0179 32.2766 16.0867C32.3396 16.291 32.3778 16.4998 32.3914 16.7133C33.4654 16.2632 34.3948 16.4651 35.1797 17.3189C35.292 17.4523 35.3965 17.5915 35.4929 17.7367C35.6433 17.5794 35.8 17.4297 35.9629 17.2876C36.1398 17.1927 36.1989 17.2449 36.1404 17.4443C36.1053 17.553 36.06 17.6574 36.0046 17.7575C36.182 17.7556 36.363 17.7591 36.5477 17.768C37.0744 17.8666 37.4017 18.1764 37.5293 18.6974C37.9088 18.6116 38.2918 18.5942 38.678 18.6452C38.9744 18.6941 39.2283 18.8229 39.4403 19.0316C39.5763 18.9338 39.7258 18.8816 39.8894 18.8749C39.9165 18.9281 39.913 18.9803 39.8789 19.0316C39.8134 19.1312 39.7403 19.2252 39.6596 19.3135C39.7288 19.4203 39.7774 19.5352 39.8058 19.6581C40.3539 19.6969 40.7472 19.9615 40.9859 20.4518C41.1805 21.1934 40.9335 21.726 40.2444 22.0496C39.6784 22.2072 39.1387 22.1411 38.6258 21.8511C38.0665 22.1267 37.5026 22.1406 36.9341 21.8929C36.7139 21.9838 36.5084 22.0987 36.3179 22.2375C36.0654 22.4969 35.8217 22.7614 35.5869 23.0312C35.7853 22.9889 35.9871 22.9645 36.1926 22.9581C36.4622 22.9722 36.7304 22.9931 36.9967 23.0207C37.3866 23.0207 37.7764 23.0207 38.1663 23.0207C39.1795 22.8662 40.1993 22.8627 41.2261 23.0103C41.3597 23.0314 41.4921 23.0593 41.6229 23.0938C41.7545 23.1508 41.7858 23.2378 41.7169 23.3549C41.6137 23.4312 41.4988 23.4834 41.3723 23.5115C40.871 23.6438 40.3697 23.7761 39.8685 23.9084C39.6085 23.9827 39.3578 24.0801 39.1166 24.2008C38.5291 24.3694 37.9339 24.4565 37.3309 24.4618C37.0316 24.4827 36.7321 24.5036 36.4328 24.5245C36.0913 24.5203 35.7676 24.6038 35.4616 24.7751C35.4338 24.9004 35.4338 25.0258 35.4616 25.1511C36.0028 25.0516 36.5389 25.076 37.0698 25.2242C37.2229 25.2763 37.3691 25.3424 37.5084 25.4226C38.3831 24.9953 39.2672 24.95 40.1609 25.2868C40.7334 25.5005 41.0606 25.9077 41.1425 26.5086C41.1281 26.8466 40.9681 27.0868 40.6621 27.2292C39.9802 27.4304 39.291 27.4583 38.5945 27.3127C38.5005 27.2814 38.4065 27.2501 38.3125 27.2188C37.7895 27.4786 37.2605 27.4925 36.7252 27.2605C36.2127 27.4506 35.7147 27.4158 35.2319 27.1561C35.0706 27.276 34.8898 27.3491 34.6888 27.3754C34.0619 27.4794 33.4424 27.4724 32.83 27.3545C32.683 27.3195 32.5472 27.2603 32.4228 27.177C32.225 27.3265 32.0021 27.41 31.7544 27.4276C31.607 27.4236 31.4503 27.4062 31.2845 27.3754C31.1456 27.3477 31.0167 27.2954 30.8981 27.2188C30.3935 27.4754 29.8922 27.4684 29.3943 27.1979C28.5418 27.4839 27.6819 27.5013 26.8149 27.2501C26.7569 27.2315 26.7011 27.2071 26.6479 27.177C26.1119 27.5015 25.5725 27.5084 25.0292 27.1979C24.727 27.4241 24.3893 27.4972 24.0163 27.4172C23.421 27.2253 23.1077 26.8145 23.0764 26.1849C23.1084 25.7104 23.345 25.3832 23.7865 25.2033C24.2441 25.0296 24.7105 25.0018 25.1859 25.1197C25.3791 25.1819 25.5706 25.248 25.7602 25.3182C26.7433 24.9272 27.7145 24.9411 28.6738 25.3599C28.7513 25.3423 28.8244 25.3144 28.8931 25.2764C28.8987 25.1177 28.9023 24.9611 28.9035 24.8065C28.637 24.7642 28.3724 24.7085 28.1099 24.6394C27.792 24.5334 27.4718 24.436 27.1491 24.347C26.7913 24.3245 26.4294 24.3106 26.0631 24.3052C25.4937 24.2412 24.9438 24.102 24.4131 23.8875C24.0651 23.8249 23.717 23.7622 23.3688 23.6995C23.2669 23.6771 23.1694 23.6423 23.0764 23.5951C22.982 23.5297 22.9751 23.4601 23.0555 23.3862C23.4275 23.2897 23.8034 23.2132 24.1834 23.1565C24.6044 23.1289 25.0255 23.1045 25.4469 23.0834C25.8905 23.1129 26.3325 23.1582 26.7732 23.2191C27.1924 23.2374 27.6101 23.22 28.0263 23.1669C28.2093 23.1757 28.3904 23.1931 28.5693 23.2191C28.3569 23.1095 28.155 22.9842 27.9637 22.8432C27.6539 22.5613 27.358 22.2654 27.076 21.9556C26.4877 22.3083 25.882 22.3918 25.259 22.2062C24.6606 22.5405 24.1384 22.45 23.6925 21.9347C23.308 21.2605 23.4367 20.707 24.0789 20.2743C24.3724 20.1114 24.6857 20.007 25.0188 19.961C24.8705 19.8128 24.7556 19.6422 24.6742 19.4493C24.6581 19.395 24.6616 19.3428 24.6846 19.2926C24.7562 19.278 24.8258 19.285 24.8935 19.3135C25.0221 19.3814 25.1474 19.4545 25.2694 19.5328C25.5562 19.1698 25.9321 18.9505 26.3972 18.8749C26.5785 18.0567 27.0867 17.6007 27.9219 17.5069C27.8657 17.3829 27.8239 17.2541 27.7966 17.1205C27.8024 17.0239 27.8511 16.9821 27.9428 16.9952C28.1579 17.1615 28.3528 17.3495 28.5276 17.5591C28.7176 17.5936 28.9023 17.6458 29.081 17.7158C29.5875 16.6463 30.4196 16.2459 31.5769 16.5148C31.7064 16.5569 31.8317 16.6091 31.9528 16.6715C31.9931 16.5137 32.0245 16.3536 32.0468 16.1911C32.0654 16.1248 32.0898 16.0621 32.1199 16.0031ZM31.368 19.5328C31.4278 19.5348 31.4764 19.5592 31.5142 19.6059C31.3735 20.2564 31.3143 20.9143 31.3367 21.5796C31.019 21.0806 30.6535 20.6177 30.2402 20.1907C30.6721 20.062 31.0481 19.8427 31.368 19.5328ZM33.8116 19.679C33.83 19.6763 33.8438 19.6832 33.8534 19.6999C33.8891 19.7689 33.9136 19.8385 33.9265 19.9088C33.4591 20.3411 33.118 20.8563 32.9031 21.4543C32.8868 20.9532 32.8206 20.4589 32.7047 19.9714C33.1024 19.9747 33.4714 19.8773 33.8116 19.679ZM29.906 22.1644C29.7749 22.0848 29.6427 22.0048 29.5092 21.9242C29.1704 21.7792 28.8294 21.64 28.4858 21.5065C28.2026 21.3807 27.9346 21.231 27.6817 21.0575C27.6878 20.9682 27.6913 20.8777 27.6921 20.786C28.2074 20.8505 28.6807 20.7183 29.1124 20.3891C29.203 20.5286 29.283 20.6748 29.3526 20.8277C29.4722 21.1169 29.5836 21.4093 29.6867 21.7049C29.7546 21.8617 29.8277 22.0149 29.906 22.1644ZM34.3547 22.1018C34.4278 21.9697 34.4869 21.8305 34.5322 21.6841C34.589 21.3325 34.7039 21.0019 34.8768 20.692C35.0341 20.7263 35.1941 20.7542 35.3572 20.7755C35.5376 20.7841 35.7152 20.7876 35.8898 20.786C35.9236 20.8953 35.9687 20.9997 36.0255 21.0993C35.4744 21.4444 34.9173 21.7786 34.3547 22.1018Z" fill="#030202"/>
<path fill-rule="evenodd" clip-rule="evenodd" d="M30.7422 16.8178C31.2495 16.7839 31.709 16.9127 32.1207 17.2042C32.1562 17.2242 32.1944 17.2346 32.2356 17.2355C32.4131 17.159 32.5906 17.0789 32.7681 16.9953C33.666 16.735 34.4146 16.9612 35.0133 17.6741C35.1474 17.8515 35.2656 18.0395 35.3684 18.238C35.4237 18.2943 35.49 18.3117 35.5668 18.2902C35.9187 18.1535 36.2807 18.1187 36.6529 18.1858C36.9258 18.2709 37.1105 18.4484 37.2063 18.7184C37.2431 18.8275 37.2709 18.9388 37.2899 19.0525C37.3152 19.0849 37.3465 19.1093 37.3839 19.1256C37.5921 19.0896 37.801 19.0478 38.0104 19.0003C38.4062 18.9542 38.7751 19.0307 39.1174 19.2301C39.3542 19.4046 39.4971 19.6378 39.5455 19.9297C39.5554 19.9596 39.5727 19.984 39.5978 20.0028C39.7874 20.0389 39.9754 20.0806 40.1617 20.1282C40.7552 20.4399 40.877 20.882 40.5272 21.4544C40.3668 21.6304 40.1683 21.7383 39.9319 21.7781C39.7429 21.7958 39.5549 21.7888 39.368 21.7572C39.1241 21.6841 38.8874 21.5971 38.6579 21.4962C37.6197 21.9634 36.8294 21.6989 36.2874 20.7025C36.2531 20.6069 36.2251 20.5094 36.2038 20.4101C36.1401 20.3389 36.0601 20.311 35.9636 20.3266C35.6169 20.3722 35.2757 20.3478 34.9402 20.2535C34.4925 20.0786 34.2245 19.7548 34.1361 19.2823C34.0902 19.1604 34.0102 19.1291 33.896 19.1883C33.0635 19.7617 32.256 19.7268 31.4732 19.0839C31.4193 19.0578 31.3638 19.0508 31.3061 19.063C30.9841 19.4059 30.601 19.6565 30.1574 19.8149C30.019 19.8391 29.8796 19.8565 29.7397 19.8671C29.5718 19.8538 29.408 19.819 29.2489 19.7627C29.2149 19.7653 29.1835 19.7757 29.1549 19.794C28.8748 20.2103 28.4816 20.4087 27.9749 20.3892C27.7992 20.3924 27.6288 20.3646 27.4632 20.3057C27.3562 20.3279 27.3076 20.394 27.317 20.5041C27.4162 21.1205 27.1864 21.5591 26.6277 21.8199C26.1693 21.9894 25.7065 21.9998 25.2389 21.8512C25.2144 21.8547 25.1902 21.8582 25.1658 21.8617C24.7777 22.1504 24.4122 22.126 24.0693 21.7886C23.866 21.5135 23.838 21.2211 23.9857 20.9114C24.1919 20.664 24.4529 20.5004 24.7689 20.4206C24.9408 20.3792 25.1148 20.3514 25.2911 20.337C25.3188 20.3231 25.3468 20.3092 25.3746 20.2952C25.4423 20.1333 25.5083 19.9697 25.573 19.8044C25.6843 19.6165 25.841 19.4807 26.0429 19.3972C26.2823 19.3364 26.5189 19.2668 26.7531 19.1883C26.8445 18.3763 27.2969 17.9481 28.1106 17.9038C28.4738 17.918 28.822 17.9981 29.1549 18.144C29.2445 18.1691 29.3176 18.1448 29.3742 18.0709C29.5966 17.3923 30.0526 16.9746 30.7422 16.8178ZM31.3688 19.5329C31.0488 19.8428 30.6729 20.0621 30.241 20.1908C30.6543 20.6178 31.0198 21.0807 31.3375 21.5797C31.3151 20.9144 31.3742 20.2565 31.515 19.606C31.4772 19.5593 31.4285 19.5349 31.3688 19.5329ZM33.8124 19.6791C33.4722 19.8773 33.1031 19.9748 32.7055 19.9715C32.8214 20.459 32.8876 20.9533 32.9039 21.4544C33.1188 20.8564 33.4599 20.3412 33.9273 19.9089C33.9143 19.8386 33.8899 19.7689 33.8542 19.7C33.8446 19.6833 33.8308 19.6764 33.8124 19.6791Z" fill="#FCFCFC"/>
<path fill-rule="evenodd" clip-rule="evenodd" d="M30.8048 17.173C31.2188 17.1153 31.5774 17.2267 31.8804 17.5071C31.9015 17.6034 31.8875 17.6939 31.8386 17.7786C31.8025 17.8011 31.7643 17.8046 31.7238 17.7891C31.2025 17.4404 30.7081 17.4752 30.2409 17.8935C30.1705 17.9569 30.1078 18.0265 30.0529 18.1024C29.9702 18.1522 29.9042 18.1348 29.8545 18.0502C29.8259 17.9825 29.819 17.9129 29.8336 17.8413C30.0819 17.5067 30.4057 17.2839 30.8048 17.173Z" fill="#040404"/>
<path fill-rule="evenodd" clip-rule="evenodd" d="M33.227 17.2979C34.0161 17.2416 34.6044 17.5549 34.9918 18.2378C35.014 18.3501 34.9758 18.4371 34.877 18.4989C34.8492 18.5128 34.8212 18.5128 34.7934 18.4989C34.4047 17.8033 33.8199 17.5388 33.039 17.7052C32.8099 17.7813 32.6219 17.9136 32.4751 18.102C32.4457 18.1086 32.4179 18.1017 32.3916 18.0812C32.2744 17.9346 32.2813 17.7953 32.4125 17.6634C32.6541 17.473 32.9256 17.3511 33.227 17.2979Z" fill="#050404"/>
<path fill-rule="evenodd" clip-rule="evenodd" d="M28.0887 18.2169C28.3222 18.2059 28.5519 18.2303 28.7779 18.29C28.8318 18.382 28.8318 18.4759 28.7779 18.572C28.7557 18.597 28.728 18.6109 28.6943 18.6138C28.1473 18.4051 27.7261 18.5513 27.4308 19.0524C27.3677 19.1716 27.3224 19.2969 27.295 19.4283C27.0861 19.4527 27.0062 19.3622 27.0548 19.1568C27.2123 18.6337 27.5569 18.3204 28.0887 18.2169Z" fill="#060606"/>
<path fill-rule="evenodd" clip-rule="evenodd" d="M36.0457 18.4467C36.3571 18.4147 36.625 18.5052 36.8498 18.7182C36.9277 18.829 36.9799 18.9508 37.0064 19.0837C36.9872 19.2047 36.9176 19.2534 36.7976 19.2299C36.7401 19.0873 36.6566 18.962 36.5469 18.854C36.3767 18.7644 36.1956 18.7365 36.0039 18.7704C35.8997 18.8018 35.7952 18.8227 35.6906 18.8331C35.6179 18.755 35.6075 18.668 35.6593 18.572C35.785 18.5137 35.9137 18.4719 36.0457 18.4467Z" fill="#0A0909"/>
<path fill-rule="evenodd" clip-rule="evenodd" d="M37.9897 19.3449C38.3477 19.316 38.6679 19.41 38.9504 19.6269C39.0962 19.7651 39.1936 19.9322 39.2428 20.1282C39.2416 20.2325 39.1927 20.2987 39.0966 20.3266C39.0747 20.3228 39.0538 20.3159 39.034 20.3057C38.709 19.7286 38.2355 19.5615 37.6138 19.8044C37.5095 19.7368 37.4851 19.6462 37.5407 19.5329C37.6773 19.4353 37.827 19.3726 37.9897 19.3449Z" fill="#050505"/>
<path fill-rule="evenodd" clip-rule="evenodd" d="M26.4607 19.5538C26.7189 19.5018 26.792 19.5923 26.68 19.8253C26.3024 19.8618 26.0554 20.0602 25.9386 20.4205C25.7577 20.4414 25.6846 20.3614 25.7193 20.1803C25.8427 19.8236 26.0898 19.6147 26.4607 19.5538Z" fill="#070707"/>
<path fill-rule="evenodd" clip-rule="evenodd" d="M31.8909 19.8252C32.0369 19.868 32.1796 19.9168 32.3191 19.9714C32.4901 20.5165 32.5563 21.0735 32.5175 21.6422C32.2737 21.6422 32.0302 21.6422 31.7865 21.6422C31.7468 21.3512 31.7364 21.0588 31.7552 20.7651C31.784 20.4491 31.8293 20.1358 31.8909 19.8252Z" fill="#F9F9F9"/>
<path fill-rule="evenodd" clip-rule="evenodd" d="M34.1458 20.2222C34.278 20.3231 34.4104 20.4241 34.5426 20.525C34.4731 20.6712 34.4033 20.8174 34.3337 20.9636C34.2868 21.2086 34.2274 21.4488 34.1562 21.6842C34.0902 21.8439 33.9962 21.9831 33.8743 22.1019C33.6779 21.9968 33.4762 21.9028 33.2686 21.8199C33.2385 21.7964 33.2245 21.7651 33.2268 21.7259C33.2959 21.4345 33.4108 21.163 33.5714 20.9114C33.7431 20.6656 33.9346 20.4358 34.1458 20.2222Z" fill="#FBFBFB"/>
<path fill-rule="evenodd" clip-rule="evenodd" d="M29.4883 20.2846C29.5008 20.2712 29.5181 20.2643 29.5405 20.2637C29.6549 20.2786 29.7698 20.289 29.8851 20.295C30.331 20.7616 30.721 21.2698 31.0547 21.8197C30.8168 21.9072 30.5942 22.0221 30.3864 22.1643C30.2592 22.0145 30.1583 21.8475 30.0835 21.663C29.9471 21.3163 29.8147 20.9682 29.6867 20.6187C29.6318 20.4983 29.5656 20.3869 29.4883 20.2846Z" fill="#FBFBFB"/>
<path fill-rule="evenodd" clip-rule="evenodd" d="M39.5967 20.3682C40.0041 20.3401 40.2792 20.5141 40.4217 20.8903C40.445 21.0257 40.4275 21.1544 40.3694 21.2767C40.2855 21.3218 40.2055 21.3183 40.1293 21.2662C40.1224 21.1549 40.1153 21.0435 40.1084 20.9321C40.048 20.7883 39.9402 20.7082 39.7846 20.6919C39.7011 20.6849 39.6176 20.678 39.534 20.671C39.5236 20.6606 39.5131 20.6501 39.5027 20.6397C39.4887 20.5701 39.4887 20.5004 39.5027 20.4308C39.5321 20.4041 39.5635 20.3832 39.5967 20.3682Z" fill="#080707"/>
<path fill-rule="evenodd" clip-rule="evenodd" d="M24.9778 20.5982C25.1125 20.5895 25.2449 20.5999 25.3746 20.6295C25.4385 20.6913 25.4525 20.7644 25.4164 20.8488C24.945 20.7972 24.6004 20.9782 24.3825 21.3918C24.3685 21.4475 24.3547 21.5032 24.3407 21.5589C24.2465 21.5955 24.177 21.5676 24.1319 21.4754C24.106 21.1319 24.2488 20.8848 24.56 20.7339C24.6956 20.669 24.8349 20.6238 24.9778 20.5982Z" fill="#040404"/>
<path fill-rule="evenodd" clip-rule="evenodd" d="M36.2141 21.3501C36.3486 21.4601 36.4811 21.575 36.611 21.6947C36.4123 21.7974 36.2244 21.9157 36.0471 22.0498C35.7762 22.3554 35.4978 22.6548 35.2116 22.9479C35.1283 23.0174 35.0379 23.0766 34.9401 23.1254C34.7937 22.8918 34.6197 22.6794 34.418 22.4884C34.4875 22.4327 34.5573 22.377 34.6268 22.3213C35.1747 22.0232 35.7039 21.6995 36.2141 21.3501Z" fill="#FBFBFB"/>
<path fill-rule="evenodd" clip-rule="evenodd" d="M27.5676 21.3916C27.799 21.5248 28.0356 21.6536 28.2777 21.778C28.6866 21.9398 29.0903 22.1139 29.489 22.3001C29.611 22.3715 29.7292 22.4481 29.8441 22.5299C29.8654 22.5518 29.8687 22.5762 29.8545 22.603C29.6781 22.7933 29.5179 22.9951 29.3742 23.2087C28.8313 23.0331 28.3476 22.7581 27.9226 22.3837C27.7242 22.2131 27.5398 22.0286 27.3691 21.8302C27.4339 21.6864 27.5001 21.5402 27.5676 21.3916Z" fill="#FCFCFC"/>
<path fill-rule="evenodd" clip-rule="evenodd" d="M31.8702 21.9349C33.1292 21.8699 34.0935 22.3642 34.7629 23.4177C35.0774 24.0211 35.1992 24.6615 35.1284 25.3392C34.944 25.381 34.7664 25.4437 34.5958 25.5272C33.8876 25.165 33.1461 25.078 32.3715 25.2661C32.1526 25.3309 31.9437 25.4179 31.7449 25.5272C31.4611 25.3395 31.1478 25.2316 30.8051 25.2035C30.52 25.1785 30.2345 25.1716 29.9487 25.1826C29.7182 25.2107 29.4884 25.242 29.2595 25.2766C29.1428 24.01 29.616 23.0319 30.6797 22.3421C31.0523 22.1286 31.4492 21.9929 31.8702 21.9349Z" fill="#FDFDFD"/>
<path fill-rule="evenodd" clip-rule="evenodd" d="M39.6602 23.2713C39.9039 23.2678 40.1477 23.2713 40.3912 23.2818C40.5194 23.2891 40.6447 23.31 40.7671 23.3444C40.0871 23.4972 39.4187 23.6921 38.7621 23.9292C37.8999 24.0938 37.0296 24.1703 36.1514 24.159C35.968 24.1857 35.794 24.2414 35.6292 24.3261C35.5612 24.3478 35.4916 24.3583 35.4204 24.3574C35.3897 24.0991 35.327 23.8484 35.2324 23.6055C35.4772 23.4856 35.7347 23.4056 36.0052 23.3653C36.8195 23.3746 37.6341 23.3746 38.4488 23.3653C38.8548 23.3208 39.2586 23.2895 39.6602 23.2713Z" fill="#FCFCFC"/>
<path fill-rule="evenodd" clip-rule="evenodd" d="M30.8869 23.3969C31.2221 23.3722 31.5494 23.4105 31.8686 23.5118C31.8963 23.6345 31.8894 23.7563 31.8477 23.8773C31.8372 23.8842 31.8268 23.8912 31.8163 23.8982C31.7244 23.8696 31.6305 23.8557 31.5344 23.8564C31.4793 24.1799 31.2984 24.2808 30.9914 24.1592C30.8821 24.0624 30.8333 23.9405 30.8452 23.7937C30.7625 23.7741 30.6789 23.7706 30.5945 23.7833C30.5056 23.8191 30.4187 23.8573 30.3335 23.8982C30.3021 23.8947 30.2848 23.8773 30.2812 23.8459C30.2984 23.8148 30.3157 23.7835 30.3335 23.752C30.4997 23.6029 30.6841 23.4845 30.8869 23.3969Z" fill="#040303"/>
<path fill-rule="evenodd" clip-rule="evenodd" d="M24.9769 23.4178C25.1928 23.4143 25.4086 23.4178 25.6243 23.4282C26.446 23.5509 27.2709 23.5753 28.0993 23.5013C28.4462 23.494 28.7595 23.5915 29.0391 23.7937C28.998 24.0072 28.9667 24.223 28.9451 24.4412C28.7678 24.4412 28.5936 24.4168 28.423 24.3681C28.0168 24.2265 27.6062 24.1012 27.1907 23.9922C27.0003 23.9614 26.8087 23.9579 26.6164 23.9817C25.9602 23.96 25.3231 23.8381 24.7053 23.6162C24.5201 23.5662 24.3321 23.5314 24.1414 23.5118C24.0857 23.4979 24.0857 23.4839 24.1414 23.47C24.4242 23.4688 24.7026 23.4514 24.9769 23.4178Z" fill="#F9F9F9"/>
<path fill-rule="evenodd" clip-rule="evenodd" d="M32.8296 23.4174C33.1414 23.3859 33.4407 23.4312 33.7277 23.5532C33.8693 23.6182 33.9773 23.7191 34.0514 23.856C34.0617 23.8901 34.0652 23.9249 34.0619 23.9604C33.9641 23.9221 33.8668 23.8769 33.7695 23.8247C33.7012 23.7993 33.6316 23.7924 33.5606 23.8038C33.5389 24.1385 33.3649 24.2638 33.0385 24.1797C32.9338 24.1098 32.8712 24.0124 32.8505 23.8873C32.7335 23.8825 32.6187 23.8791 32.5059 23.8769C32.4758 23.767 32.4689 23.6556 32.485 23.5427C32.5038 23.5176 32.5282 23.5002 32.5581 23.4905C32.6529 23.4724 32.7434 23.448 32.8296 23.4174Z" fill="#050505"/>
<path fill-rule="evenodd" clip-rule="evenodd" d="M32.4951 24.5244C32.5212 24.526 32.5386 24.54 32.5474 24.5662C32.5618 24.6788 32.5549 24.7902 32.5265 24.9004C32.4734 24.9915 32.3932 25.0437 32.2863 25.057C32.161 25.0709 32.0357 25.0709 31.9103 25.057C31.7293 24.9841 31.6457 24.8483 31.6597 24.6497C31.9243 24.7064 32.189 24.7029 32.4534 24.6393C32.4818 24.6062 32.4958 24.5679 32.4951 24.5244Z" fill="#040303"/>
<path fill-rule="evenodd" clip-rule="evenodd" d="M26.9606 25.4228C27.3576 25.3951 27.7476 25.4334 28.1302 25.5376C28.4249 25.6449 28.658 25.8294 28.8299 26.0911C28.9428 26.3103 29.0613 26.5261 29.1849 26.7386C29.1989 26.7664 29.1989 26.7943 29.1849 26.8221C29.13 26.8791 29.064 26.9174 28.9865 26.937C28.276 27.1189 27.5727 27.1119 26.877 26.9161C26.6966 26.7845 26.5539 26.6208 26.4489 26.4253C26.32 26.1816 26.1914 25.938 26.0625 25.6943C26.13 25.6222 26.2135 25.577 26.3131 25.5585C26.5293 25.5007 26.745 25.4555 26.9606 25.4228Z" fill="#CA0001"/>
<path fill-rule="evenodd" clip-rule="evenodd" d="M24.4339 25.4433C25.0565 25.37 25.5404 25.5928 25.8854 26.1116C26.0509 26.3732 26.204 26.6377 26.3449 26.9053C26.1054 27.0789 25.8443 27.1172 25.5617 27.0202C25.4656 26.9728 25.3752 26.917 25.2902 26.8531C25.0452 26.5941 24.7877 26.3505 24.5174 26.1221C24.4422 26.0954 24.3658 26.0885 24.2877 26.1012C24.2035 26.1674 24.186 26.2474 24.2355 26.3414C24.3316 26.3668 24.4184 26.412 24.4966 26.4771C24.5949 26.6009 24.696 26.7227 24.7994 26.8426C24.7804 26.9386 24.7213 27.0047 24.6219 27.041C24.2184 27.1534 23.8875 27.0455 23.6298 26.7173C23.4422 26.3976 23.4491 26.0844 23.6507 25.7775C23.8721 25.571 24.1331 25.4596 24.4339 25.4433Z" fill="#FCFCFC"/>
<path fill-rule="evenodd" clip-rule="evenodd" d="M38.7412 25.4434C39.1936 25.4061 39.6322 25.4653 40.057 25.621C40.3634 25.7532 40.5965 25.9656 40.7567 26.258C40.9232 26.6222 40.8152 26.8624 40.433 26.9785C39.8899 27.1284 39.3398 27.1284 38.783 26.9785C38.6472 26.9473 38.5324 26.8811 38.4384 26.7801C38.1986 26.4434 37.9931 26.0848 37.8223 25.7045C37.9223 25.6337 38.0336 25.585 38.1564 25.5583C38.3586 25.5116 38.5537 25.4733 38.7412 25.4434Z" fill="#CA0001"/>
<path fill-rule="evenodd" clip-rule="evenodd" d="M30.0306 25.4645C30.4412 25.436 30.8381 25.4951 31.2211 25.642C31.4811 25.7697 31.6795 25.9611 31.8163 26.2164C31.9224 26.4355 32.0338 26.6513 32.1505 26.8638C32.1649 26.907 32.1614 26.9488 32.1401 26.9891C32.0546 27.0561 31.9573 27.0944 31.8477 27.104C31.6127 27.1413 31.3899 27.1065 31.1793 26.9996C30.9723 26.7926 30.7808 26.5733 30.605 26.3417C30.5388 26.2755 30.4728 26.2094 30.4066 26.1433C30.2992 26.0636 30.1879 26.0532 30.0724 26.1119C30.0436 26.1762 30.0471 26.2389 30.0828 26.2999C30.3082 26.4731 30.4928 26.6819 30.6363 26.9265C30.5893 26.9919 30.5266 27.0372 30.4483 27.0622C30.0968 27.147 29.822 27.0391 29.6233 26.7385C29.4214 26.3904 29.2092 26.0492 28.9863 25.7151C29.3274 25.5915 29.6756 25.508 30.0306 25.4645Z" fill="#FBFBFB"/>
<path fill-rule="evenodd" clip-rule="evenodd" d="M32.9139 25.4854C33.3792 25.445 33.8247 25.5181 34.2505 25.7047C34.4122 25.7968 34.548 25.9186 34.6578 26.0702C34.7917 26.3173 34.931 26.561 35.0755 26.8012C35.0895 26.836 35.0895 26.8708 35.0755 26.9057C34.9949 26.9581 34.908 26.9964 34.8145 27.0205C34.1754 27.171 33.5419 27.171 32.9139 27.0205C32.7447 26.9769 32.6089 26.8829 32.5066 26.7386C32.3009 26.4249 32.1165 26.0977 31.9531 25.7569C31.9711 25.7215 31.9991 25.6971 32.0367 25.6838C32.3245 25.5839 32.6169 25.5178 32.9139 25.4854Z" fill="#CA0001"/>
<path fill-rule="evenodd" clip-rule="evenodd" d="M35.7958 25.4852C36.2607 25.4317 36.7062 25.4979 37.1324 25.6836C37.4017 25.8344 37.607 26.0467 37.7486 26.3206C37.8334 26.5112 37.9238 26.6991 38.0201 26.8846C38.0341 26.9194 38.0341 26.9542 38.0201 26.989C37.9393 27.059 37.8453 27.0973 37.7381 27.1039C37.4165 27.1723 37.1345 27.0992 36.8923 26.8846C36.7087 26.6522 36.5172 26.4259 36.3179 26.2058C36.2536 26.1545 36.1805 26.1232 36.0986 26.1118C35.9825 26.1352 35.9407 26.2048 35.9733 26.3206C36.1905 26.4892 36.3716 26.6911 36.5163 26.9263C36.5088 26.9889 36.4706 27.0271 36.4015 27.0412C36.1352 27.1314 35.8916 27.0896 35.6705 26.9159C35.3728 26.5513 35.1293 26.151 34.9395 25.715C35.2208 25.6151 35.5063 25.5385 35.7958 25.4852Z" fill="#FCFCFC"/>
<path opacity="0.682" fill-rule="evenodd" clip-rule="evenodd" d="M41.2885 38.831C41.2883 35.4519 41.2883 32.0684 41.2885 28.6806C35.3584 28.6915 29.2876 28.6915 23.0762 28.6806C23.0762 32.0501 23.0762 35.4197 23.0762 38.7892C23.0553 35.4162 23.0484 32.0397 23.0553 28.6597C29.1399 28.6597 35.2248 28.6597 41.3094 28.6597C41.3163 32.0536 41.3094 35.444 41.2885 38.831Z" fill="#110F0F"/>
<path fill-rule="evenodd" clip-rule="evenodd" d="M41.2885 38.8311C41.283 40.254 41.0011 41.6187 40.4426 42.9247C39.7438 44.3545 38.6961 45.451 37.2993 46.2142C36.4463 46.6795 35.5552 47.0555 34.6259 47.342C33.8196 47.5906 33.005 47.8099 32.1823 47.9999C30.7107 47.6799 29.2834 47.224 27.9008 46.6319C25.194 45.4489 23.6309 43.3917 23.2119 40.4602C23.1227 39.8965 23.0774 39.3395 23.0762 38.7893C23.0762 35.4198 23.0762 32.0502 23.0762 28.6807C29.2876 28.6916 35.3584 28.6916 41.2885 28.6807C41.2883 32.0685 41.2883 35.452 41.2885 38.8311Z" fill="#010101"/>
<path fill-rule="evenodd" clip-rule="evenodd" d="M33.3725 29.0984C33.3725 31.3819 33.3725 33.6654 33.3725 35.9489C35.8719 35.9489 38.371 35.9489 40.8704 35.9489C40.8704 36.659 40.8704 37.3691 40.8704 38.0792C38.371 38.0792 35.8719 38.0792 33.3725 38.0792C33.3725 41.1354 33.3725 44.1918 33.3725 47.248C32.9637 47.3389 32.5636 47.4364 32.1715 47.5404C31.7808 47.4393 31.3908 47.3349 31.0019 47.2272C30.9915 44.1778 30.9879 41.1285 30.9915 38.0792C28.4921 38.0828 25.9929 38.0792 23.4935 38.0688C23.4806 38.0395 23.4737 38.0082 23.4727 37.9748C23.4942 37.2824 23.4942 36.6141 23.4727 35.9698C25.9789 35.9489 28.4852 35.942 30.9915 35.9489C30.9915 33.6654 30.9915 31.3819 30.9915 29.0984C31.8014 29.0961 32.5951 29.0961 33.3725 29.0984Z" fill="#CB0001"/>
<path fill-rule="evenodd" clip-rule="evenodd" d="M23.5156 29.1191C25.8826 29.1191 28.2498 29.1191 30.6168 29.1191C30.6099 31.2599 30.6168 33.3973 30.6376 35.531C28.2671 35.5519 25.893 35.5588 23.5156 35.5519C23.5156 33.4077 23.5156 31.2634 23.5156 29.1191Z" fill="#FEFEFE"/>
<path opacity="0.984" fill-rule="evenodd" clip-rule="evenodd" d="M23.5156 29.1192C25.8861 29.0983 28.2602 29.0914 30.6376 29.0983C30.6376 31.2426 30.6376 33.3868 30.6376 35.5311C30.6168 33.3973 30.6099 31.26 30.6168 29.1192C28.2498 29.1192 25.8826 29.1192 23.5156 29.1192Z" fill="#ACACAC"/>
<path opacity="0.984" fill-rule="evenodd" clip-rule="evenodd" d="M40.8505 29.0986C40.8505 29.1056 40.8505 29.1126 40.8505 29.1195C38.4836 29.1195 36.1164 29.1195 33.7494 29.1195C33.7494 31.2638 33.7494 33.408 33.7494 35.5523C33.7425 35.5523 33.7354 35.5523 33.7285 35.5523C33.7285 33.4011 33.7285 31.2499 33.7285 29.0986C36.1026 29.0986 38.4765 29.0986 40.8505 29.0986Z" fill="#909090"/>
<path fill-rule="evenodd" clip-rule="evenodd" d="M40.8492 29.1191C40.8492 31.2634 40.8492 33.4077 40.8492 35.5519C38.4822 35.5519 36.115 35.5519 33.748 35.5519C33.748 33.4077 33.748 31.2634 33.748 29.1191C36.115 29.1191 38.4822 29.1191 40.8492 29.1191Z" fill="#FEFEFE"/>
<path fill-rule="evenodd" clip-rule="evenodd" d="M29.5292 30.7901C29.5292 31.9388 29.5292 33.0876 29.5292 34.2363C29.2437 34.2363 28.9584 34.2363 28.6729 34.2363C28.283 34.2363 27.8933 34.2363 27.5033 34.2363C27.5033 34.3198 27.5033 34.4034 27.5033 34.4869C27.2249 34.4869 26.9463 34.4869 26.6679 34.4869C26.6679 34.4034 26.6679 34.3198 26.6679 34.2363C26.459 34.2363 26.2502 34.2363 26.0413 34.2363C25.5678 34.2363 25.0946 34.2363 24.6211 34.2363C24.6211 33.0876 24.6211 31.9388 24.6211 30.7901C24.7673 30.7901 24.9135 30.7901 25.0597 30.7901C25.0561 30.5811 25.0597 30.3723 25.0701 30.1636C25.483 30.1961 25.8903 30.1579 26.2919 30.0487C26.5741 29.9992 26.8387 30.0445 27.0856 30.1844C27.255 30.082 27.4396 30.0333 27.6391 30.0382C27.9628 30.0815 28.2865 30.1268 28.6103 30.174C28.7715 30.1907 28.9315 30.1872 29.0906 30.1636C29.1115 30.372 29.1184 30.5808 29.1115 30.7901C29.2508 30.7901 29.3899 30.7901 29.5292 30.7901Z" fill="#010101"/>
<path fill-rule="evenodd" clip-rule="evenodd" d="M39.3256 30.1845C39.3396 30.3864 39.3534 30.5883 39.3674 30.7902C39.5136 30.7902 39.6598 30.7902 39.806 30.7902C39.806 31.9389 39.806 33.0876 39.806 34.2363C39.1236 34.2363 38.4415 34.2363 37.7592 34.2363C37.7592 34.3199 37.7592 34.4034 37.7592 34.487C37.4808 34.487 37.2022 34.487 36.9237 34.487C36.9304 34.3992 36.9233 34.3157 36.9029 34.2363C36.2276 34.2363 35.5522 34.2363 34.877 34.2363C34.877 33.0876 34.877 31.9389 34.877 30.7902C35.0163 30.7902 35.1554 30.7902 35.2947 30.7902C35.3153 30.5921 35.3224 30.3902 35.3156 30.1845C35.3433 30.1845 35.3713 30.1845 35.3991 30.1845C35.7882 30.189 36.171 30.1437 36.5478 30.0487C36.827 30 37.0881 30.0452 37.331 30.1845C37.5672 30.047 37.8212 30.0018 38.0933 30.0487C38.4987 30.1449 38.9096 30.1902 39.3256 30.1845Z" fill="#020202"/>
<path opacity="0.984" fill-rule="evenodd" clip-rule="evenodd" d="M39.3262 30.1845C39.3274 30.1731 39.3343 30.1662 39.3471 30.1636C39.3679 30.372 39.3748 30.5808 39.3679 30.7901C39.3539 30.5882 39.3402 30.3864 39.3262 30.1845Z" fill="#505050"/>
<path fill-rule="evenodd" clip-rule="evenodd" d="M25.4355 33.5469C25.4355 32.5583 25.4355 31.5697 25.4355 30.5812C25.4959 30.5876 25.5515 30.5806 25.6026 30.5603C25.9142 30.5036 26.2275 30.4548 26.5425 30.4141C26.6615 30.4131 26.7626 30.4549 26.8453 30.5394C26.8593 31.5419 26.8593 32.5444 26.8453 33.5469C26.725 33.4825 26.5962 33.4547 26.4589 33.4634C26.1858 33.4951 25.9142 33.5369 25.6444 33.5887C25.5707 33.5908 25.5011 33.5769 25.4355 33.5469Z" fill="#FEFEFE"/>
<path fill-rule="evenodd" clip-rule="evenodd" d="M27.3379 33.5261C27.317 32.5341 27.3101 31.5386 27.317 30.5395C27.3935 30.4535 27.4908 30.4118 27.6094 30.4142C27.9125 30.4484 28.2118 30.5006 28.5075 30.5708C28.5838 30.5812 28.6604 30.5847 28.7373 30.5812C28.7442 31.5699 28.7373 32.5585 28.7164 33.547C28.4758 33.6057 28.2389 33.5883 28.0063 33.4948C27.7784 33.4429 27.5558 33.4533 27.3379 33.5261Z" fill="#FEFEFE"/>
<path fill-rule="evenodd" clip-rule="evenodd" d="M36.6314 30.4143C36.7808 30.3909 36.913 30.4257 37.0283 30.5187C37.0492 31.5211 37.0561 32.5236 37.0492 33.5262C36.9126 33.4892 36.7733 33.4683 36.6314 33.4636C36.3685 33.4972 36.1074 33.5389 35.8482 33.5889C35.7722 33.5893 35.6991 33.5754 35.6289 33.5471C35.6081 32.5586 35.6012 31.57 35.6081 30.5814C35.678 30.5848 35.7476 30.5813 35.8169 30.5709C36.0905 30.5141 36.362 30.4619 36.6314 30.4143Z" fill="#FDFDFD"/>
<path fill-rule="evenodd" clip-rule="evenodd" d="M38.7407 30.5606C38.799 30.581 38.8616 30.588 38.9287 30.5815C38.9287 31.5631 38.9287 32.5447 38.9287 33.5264C38.8474 33.5758 38.757 33.5967 38.6572 33.589C38.3917 33.5322 38.1235 33.4904 37.8531 33.4637C37.7939 33.4672 37.7346 33.4707 37.6755 33.4742C37.6308 33.5011 37.582 33.5185 37.5293 33.5264C37.5084 32.5344 37.5015 31.5388 37.5084 30.5397C37.588 30.4516 37.6889 30.4098 37.8113 30.4144C38.1237 30.4531 38.4335 30.5019 38.7407 30.5606Z" fill="#FEFEFE"/>
<path opacity="0.984" fill-rule="evenodd" clip-rule="evenodd" d="M27.3158 30.5396C27.3089 31.5386 27.3158 32.5342 27.3366 33.5262C27.3354 33.5375 27.3285 33.5445 27.3158 33.5471C27.288 32.5411 27.288 31.5386 27.3158 30.5396Z" fill="#515151"/>
<path opacity="0.988" fill-rule="evenodd" clip-rule="evenodd" d="M25.6027 30.5605C25.5515 30.5809 25.4959 30.5878 25.4356 30.5814C25.4356 31.57 25.4356 32.5586 25.4356 33.5472C25.4147 32.5552 25.4078 31.5596 25.4147 30.5605C25.4773 30.5605 25.54 30.5605 25.6027 30.5605Z" fill="#D6D6D6"/>
<path opacity="0.984" fill-rule="evenodd" clip-rule="evenodd" d="M38.7402 30.5605C38.8098 30.5605 38.8795 30.5605 38.9491 30.5605C38.956 31.5527 38.9491 32.5413 38.9282 33.5263C38.9282 32.5447 38.9282 31.5631 38.9282 30.5814C38.8612 30.5879 38.7985 30.581 38.7402 30.5605Z" fill="#8E8E8E"/>
<path opacity="0.984" fill-rule="evenodd" clip-rule="evenodd" d="M35.3994 30.1846C35.3716 30.1846 35.3436 30.1846 35.3158 30.1846C35.3227 30.3902 35.3156 30.5921 35.2949 30.7902C35.2949 30.5814 35.2949 30.3725 35.2949 30.1637C35.3348 30.1577 35.3697 30.1647 35.3994 30.1846Z" fill="#8B8B8B"/>
<path opacity="0.984" fill-rule="evenodd" clip-rule="evenodd" d="M37.5091 30.5396C37.5022 31.5386 37.5091 32.5342 37.53 33.5262C37.5287 33.5375 37.5219 33.5445 37.5091 33.5471C37.4813 32.5411 37.4813 31.5386 37.5091 30.5396Z" fill="#555555"/>
<path opacity="0.984" fill-rule="evenodd" clip-rule="evenodd" d="M26.043 34.2363C26.2518 34.2363 26.4607 34.2363 26.6695 34.2363C26.6695 34.3199 26.6695 34.4034 26.6695 34.487C26.9479 34.487 27.2266 34.487 27.505 34.487C27.2232 34.5078 26.9377 34.5147 26.6487 34.5078C26.6487 34.4243 26.6487 34.3408 26.6487 34.2572C26.4429 34.2641 26.2412 34.257 26.043 34.2363Z" fill="#989898"/>
<path opacity="0.984" fill-rule="evenodd" clip-rule="evenodd" d="M29.5301 30.79C29.551 31.9422 29.5579 33.0978 29.551 34.2571C29.2549 34.264 28.9625 34.2571 28.6738 34.2362C28.9593 34.2362 29.2446 34.2362 29.5301 34.2362C29.5301 33.0875 29.5301 31.9388 29.5301 30.79Z" fill="#909090"/>
<path opacity="0.98" fill-rule="evenodd" clip-rule="evenodd" d="M36.9023 34.2363C36.9228 34.3157 36.9299 34.3992 36.9232 34.487C37.2016 34.487 37.4803 34.487 37.7587 34.487C37.4769 34.5078 37.1914 34.5147 36.9023 34.5078C36.9023 34.4174 36.9023 34.3268 36.9023 34.2363Z" fill="#686868"/>
<path opacity="0.98" fill-rule="evenodd" clip-rule="evenodd" d="M40.8505 29.0986C40.8714 31.2533 40.8783 33.4115 40.8714 35.5732C38.4869 35.5801 36.1059 35.5732 33.7285 35.5523C33.7354 35.5523 33.7425 35.5523 33.7494 35.5523C36.1164 35.5523 38.4836 35.5523 40.8505 35.5523C40.8505 33.408 40.8505 31.2638 40.8505 29.1195C40.8505 29.1126 40.8505 29.1056 40.8505 29.0986Z" fill="#5C5C5C"/>
<path opacity="0.965" fill-rule="evenodd" clip-rule="evenodd" d="M33.373 29.0986C33.3939 31.3717 33.4008 33.6482 33.3939 35.9282C35.8898 35.9214 38.3821 35.9282 40.871 35.9491C38.3716 35.9491 35.8724 35.9491 33.373 35.9491C33.373 33.6656 33.373 31.3821 33.373 29.0986Z" fill="#150A0A"/>
<path fill-rule="evenodd" clip-rule="evenodd" d="M30.6376 38.4971C30.6307 41.362 30.6099 44.2234 30.575 47.0811C29.3273 46.7501 28.1439 46.2662 27.0244 45.6296C26.1556 45.1122 25.4384 44.4335 24.8732 43.5932C25.4613 43.5723 26.0532 43.5655 26.6485 43.5723C26.642 43.6532 26.6489 43.7298 26.6694 43.8021C26.9478 43.8021 27.2264 43.8021 27.5048 43.8021C27.5048 43.7185 27.5048 43.635 27.5048 43.5515C28.1871 43.5515 28.8692 43.5515 29.5516 43.5515C29.5516 42.4028 29.5516 41.254 29.5516 40.1053C29.4054 40.1053 29.2592 40.1053 29.113 40.1053C29.113 39.8965 29.113 39.6876 29.113 39.4788C28.9396 39.5011 28.7657 39.5047 28.5908 39.4892C28.2669 39.437 27.9432 39.3848 27.6197 39.3326C27.4279 39.3328 27.2504 39.3814 27.0871 39.4788C26.9183 39.3981 26.7408 39.3495 26.5545 39.3326C26.2306 39.3814 25.9068 39.4336 25.5833 39.4892C25.4077 39.5059 25.2335 39.5024 25.0612 39.4788C25.0405 39.677 25.0334 39.8787 25.0403 40.0844C24.8972 40.0778 24.7579 40.0846 24.6226 40.1053C24.6086 41.1078 24.5948 42.1104 24.5808 43.1129C24.2537 42.5114 24.0066 41.8779 23.8394 41.2123C23.6376 40.3046 23.5298 39.3856 23.5156 38.4554C25.8966 38.4416 28.2707 38.4554 30.6376 38.4971Z" fill="#FEFEFE"/>
<path opacity="0.984" fill-rule="evenodd" clip-rule="evenodd" d="M37.2151 38.4551C36.063 38.476 34.9072 38.4829 33.7481 38.476C33.7481 41.3513 33.7481 44.2264 33.7481 47.1017C33.7272 44.2231 33.7203 41.3409 33.7272 38.4551C34.8899 38.4551 36.0524 38.4551 37.2151 38.4551Z" fill="#9A9A9A"/>
<path fill-rule="evenodd" clip-rule="evenodd" d="M37.2151 38.4551C38.4264 38.4551 39.6378 38.4551 40.8492 38.4551C40.8392 39.3981 40.7383 40.331 40.5463 41.2538C40.3947 41.9284 40.1545 42.5687 39.8258 43.1752C39.8118 42.1518 39.798 41.1284 39.784 40.105C39.6447 40.105 39.5056 40.105 39.3663 40.105C39.3663 39.8962 39.3663 39.6873 39.3663 39.4785C39.1927 39.4985 39.0185 39.5019 38.8442 39.4889C38.5208 39.434 38.1971 39.3818 37.873 39.3323C37.6804 39.3385 37.4993 39.3874 37.3299 39.4785C37.1681 39.3876 36.9939 39.3388 36.8078 39.3323C36.4569 39.3855 36.1052 39.4377 35.7531 39.4889C35.6052 39.5054 35.459 39.5021 35.3145 39.4785C35.2938 39.6767 35.2867 39.8784 35.2936 40.0842C35.1505 40.0775 35.0112 40.0844 34.8759 40.105C34.8759 41.2538 34.8759 42.4025 34.8759 43.5512C35.5511 43.5512 36.2265 43.5512 36.9018 43.5512C36.9018 43.6347 36.9018 43.7183 36.9018 43.8018C37.1873 43.8018 37.4726 43.8018 37.7581 43.8018C37.7581 43.7252 37.7581 43.6487 37.7581 43.5721C38.3604 43.5652 38.959 43.5721 39.5543 43.593C38.9753 44.4259 38.2514 45.1047 37.3822 45.6293C36.2314 46.2695 35.02 46.7603 33.748 47.1017C33.748 44.2264 33.748 41.3513 33.748 38.476C34.9072 38.4829 36.063 38.476 37.2151 38.4551Z" fill="#FEFEFE"/>
<path opacity="0.984" fill-rule="evenodd" clip-rule="evenodd" d="M30.6369 38.4971C30.6369 41.3653 30.6369 44.2337 30.6369 47.102C30.6099 47.107 30.589 47.0999 30.5742 47.0811C30.6091 44.2233 30.63 41.362 30.6369 38.4971Z" fill="#BABABA"/>
<path opacity="0.984" fill-rule="evenodd" clip-rule="evenodd" d="M25.0597 39.4785C25.0597 39.6874 25.0597 39.8962 25.0597 40.1051C24.9135 40.1051 24.7673 40.1051 24.6211 40.1051C24.7564 40.0844 24.8957 40.0775 25.0388 40.0842C25.0319 39.8785 25.039 39.6767 25.0597 39.4785Z" fill="#BABABA"/>
<path opacity="0.984" fill-rule="evenodd" clip-rule="evenodd" d="M35.3156 39.4785C35.3156 39.6874 35.3156 39.8962 35.3156 40.1051C35.1694 40.1051 35.0232 40.1051 34.877 40.1051C35.0123 40.0844 35.1516 40.0775 35.2947 40.0842C35.2878 39.8785 35.2949 39.6767 35.3156 39.4785Z" fill="#969696"/>
<path fill-rule="evenodd" clip-rule="evenodd" d="M26.8571 39.959C26.8431 40.9129 26.8293 41.8665 26.8154 42.8204C26.6157 42.7796 26.4139 42.7692 26.2097 42.789C25.9647 42.8939 25.7141 42.9181 25.4578 42.8621C25.444 41.8784 25.43 40.8968 25.416 39.9172C25.7803 39.841 26.1527 39.7784 26.5334 39.7293C26.6621 39.7136 26.7665 39.7554 26.8467 39.8546C26.8569 39.8886 26.8605 39.9235 26.8571 39.959Z" fill="#FEFEFE"/>
<path fill-rule="evenodd" clip-rule="evenodd" d="M27.3379 42.8413C27.317 41.8492 27.3101 40.8538 27.317 39.8546C27.3993 39.754 27.5073 39.7122 27.6408 39.7293C27.9035 39.7629 28.1646 39.8081 28.424 39.8651C28.5282 39.8755 28.6326 39.8791 28.7373 39.8755C28.7373 40.8711 28.7373 41.8666 28.7373 42.8622C28.6153 42.9019 28.49 42.9123 28.3613 42.8935C28.1495 42.8296 27.9336 42.7912 27.7139 42.7786C27.5821 42.7692 27.4568 42.7901 27.3379 42.8413Z" fill="#FEFEFE"/>
<path fill-rule="evenodd" clip-rule="evenodd" d="M37.1117 40.3975C37.1046 41.2087 37.0837 42.0163 37.049 42.8202C36.8564 42.7788 36.6616 42.7684 36.4642 42.7889C36.2466 42.8607 36.0237 42.8956 35.7959 42.8933C35.7599 42.886 35.7253 42.8755 35.6914 42.862C35.6706 41.8666 35.6637 40.8709 35.6706 39.8753C35.7683 39.8789 35.8658 39.8753 35.9629 39.8649C36.1841 39.8141 36.4068 39.7724 36.6313 39.7396C36.7514 39.7218 36.8698 39.7287 36.9863 39.7604C37.0306 39.7838 37.0691 39.8152 37.1012 39.8544C37.1117 40.0353 37.1152 40.2164 37.1117 40.3975Z" fill="#FDFDFD"/>
<path fill-rule="evenodd" clip-rule="evenodd" d="M37.7172 39.7295C38.0426 39.737 38.3628 39.7823 38.678 39.8652C38.7822 39.8757 38.8866 39.8792 38.9913 39.8757C38.9913 40.8713 38.9913 41.8667 38.9913 42.8623C38.9192 42.8912 38.8428 42.9052 38.7615 42.9041C38.5621 42.8887 38.3672 42.8502 38.1767 42.7892C37.9631 42.764 37.7542 42.7815 37.5502 42.8415C37.5466 41.8458 37.5502 40.8504 37.5606 39.8548C37.6047 39.8001 37.6569 39.7583 37.7172 39.7295Z" fill="#FCFCFC"/>
<path opacity="0.984" fill-rule="evenodd" clip-rule="evenodd" d="M27.3158 39.8545C27.3089 40.8537 27.3158 41.8491 27.3366 42.8411C27.3354 42.8524 27.3285 42.8595 27.3158 42.862C27.288 41.8562 27.288 40.8537 27.3158 39.8545Z" fill="#515151"/>
<path opacity="0.988" fill-rule="evenodd" clip-rule="evenodd" d="M25.4153 39.9175C25.4293 40.897 25.4433 41.8786 25.4571 42.8624C25.4153 41.888 25.4015 40.9064 25.4153 39.9175Z" fill="#DDDDDD"/>
<path opacity="0.988" fill-rule="evenodd" clip-rule="evenodd" d="M24.6218 40.105C24.6254 41.1215 24.6218 42.1378 24.6114 43.1543C24.5964 43.143 24.5859 43.129 24.5801 43.1125C24.5941 42.11 24.6079 41.1075 24.6218 40.105Z" fill="#DDDDDD"/>
<path opacity="0.98" fill-rule="evenodd" clip-rule="evenodd" d="M39.7858 40.105C39.7998 41.1284 39.8136 42.1518 39.8276 43.1752C39.8263 43.1865 39.8194 43.1936 39.8067 43.1961C39.7858 42.1658 39.7789 41.1355 39.7858 40.105Z" fill="#6B6B6B"/>
<path opacity="0.988" fill-rule="evenodd" clip-rule="evenodd" d="M26.8562 39.959C26.8631 40.9197 26.8562 41.8805 26.8353 42.8412C26.8226 42.8387 26.8157 42.8316 26.8145 42.8203C26.8284 41.8665 26.8422 40.9128 26.8562 39.959Z" fill="#DCDCDC"/>
<path opacity="0.988" fill-rule="evenodd" clip-rule="evenodd" d="M37.1115 40.3975C37.1115 41.212 37.1115 42.0265 37.1115 42.8411C37.0845 42.8461 37.0637 42.839 37.0488 42.8202C37.0835 42.0163 37.1044 41.2087 37.1115 40.3975Z" fill="#CCCCCC"/>
<path opacity="0.988" fill-rule="evenodd" clip-rule="evenodd" d="M26.6686 43.802C26.6481 43.7298 26.6413 43.6531 26.6477 43.5723C26.0525 43.5654 25.4606 43.5723 24.8724 43.5932C24.8612 43.5919 24.8541 43.585 24.8516 43.5723C25.457 43.5514 26.0627 43.5445 26.6686 43.5514C26.6686 43.635 26.6686 43.7185 26.6686 43.802Z" fill="#D4D4D4"/>
<path opacity="0.988" fill-rule="evenodd" clip-rule="evenodd" d="M37.7598 43.5721C38.3621 43.5443 38.9678 43.5443 39.5768 43.5721C39.5743 43.5848 39.5672 43.5917 39.5559 43.593C38.9607 43.5721 38.3621 43.5652 37.7598 43.5721Z" fill="#DCDCDC"/>
</svg>
