<svg width="64" height="64" viewBox="0 0 64 64" fill="none" xmlns="http://www.w3.org/2000/svg">
<rect width="64" height="64" rx="32" fill="black"/>
<path fill-rule="evenodd" clip-rule="evenodd" d="M18.8558 37.1104C18.3341 37.3295 17.7726 37.4379 17.2069 37.4292C16.5809 37.4397 15.9635 37.2817 15.4194 36.9717C14.895 36.6685 14.4636 36.2273 14.172 35.6961C13.8601 35.1224 13.7026 34.4774 13.7147 33.8244C13.6984 33.1708 13.8562 32.5248 14.172 31.9525C14.4707 31.4337 14.901 31.0031 15.4194 30.7041C15.964 30.3954 16.5811 30.238 17.2069 30.2482C17.7617 30.2415 18.3124 30.3451 18.827 30.5527C19.3076 30.7508 19.738 31.0535 20.087 31.4391L22.4146 29.0827C21.7767 28.3682 20.9919 27.8002 20.114 27.418C19.1954 27.0236 18.2046 26.8255 17.205 26.836C15.9209 26.8198 14.6549 27.1404 13.5329 27.7656C12.4452 28.3613 11.5412 29.2433 10.9186 30.3164C10.2961 31.3895 9.97873 32.6125 10.0011 33.8531C9.98263 35.0857 10.3007 36.3001 10.9208 37.3653C11.541 38.4302 12.4397 39.3057 13.5203 39.8974C14.6483 40.5176 15.9182 40.8332 17.205 40.8126C18.2046 40.8233 19.1954 40.625 20.114 40.2308C21.0082 39.8365 21.8106 39.2605 22.4703 38.5391L20.114 36.1808C19.7708 36.5826 19.3405 36.9005 18.8558 37.1104Z" fill="white"/>
<path fill-rule="evenodd" clip-rule="evenodd" d="M28.3201 36.3909C28.0159 36.3801 27.7131 36.4336 27.4309 36.5483C27.1492 36.6628 26.8943 36.8355 26.6838 37.0555C26.274 37.5021 26.0469 38.0859 26.0469 38.6924C26.0469 39.2986 26.274 39.8827 26.6838 40.329C26.8943 40.549 27.1492 40.7217 27.4309 40.8364C27.7131 40.951 28.0159 41.0047 28.3201 40.9938C28.6195 41.0021 28.9171 40.9472 29.194 40.8329C29.4705 40.7182 29.7201 40.5466 29.9259 40.329C30.3356 39.8827 30.5629 39.2986 30.5629 38.6924C30.5629 38.0859 30.3356 37.5021 29.9259 37.0555C29.7201 36.8379 29.4705 36.6663 29.194 36.5518C28.9171 36.4372 28.6195 36.3824 28.3201 36.3909ZM41.7919 27.628C42.2788 27.8745 42.7192 28.2037 43.0934 28.6008L43.0881 27.3236H46.6884V40.7217H43.0881V39.4246C42.711 39.8203 42.2715 40.1507 41.7867 40.4029C40.9891 40.81 40.104 41.0146 39.2091 40.9992C38.0449 41.0149 36.9008 40.6973 35.9111 40.0839C34.9337 39.4754 34.1393 38.6132 33.6124 37.5889C33.0654 36.4807 32.7807 35.2614 32.7807 34.0254C32.7807 32.7893 33.0654 31.57 33.6124 30.4618C34.139 29.4372 34.9334 28.5749 35.9111 27.9667C36.9017 27.3504 38.0481 27.0311 39.2144 27.0461C40.1078 27.0302 40.992 27.2298 41.7919 27.628ZM39.8786 37.6394C40.8937 37.6382 41.7158 37.3006 42.3447 36.6268H42.3391C42.9682 35.9519 43.2844 35.078 43.2879 34.0056C43.3001 33.3558 43.1523 32.7129 42.8576 32.1337C42.587 31.6057 42.1744 31.164 41.6659 30.8582C41.1233 30.5447 40.5049 30.3864 39.8786 30.4007C39.2615 30.3884 38.653 30.5468 38.1199 30.8582C37.6118 31.164 37.1988 31.6057 36.9281 32.1337C36.6343 32.713 36.4871 33.3559 36.4997 34.0056C36.4854 34.6645 36.6323 35.3171 36.9281 35.9062C37.1993 36.4339 37.6121 36.8755 38.1199 37.1816C38.653 37.493 39.2615 37.6513 39.8786 37.6394ZM53.5621 27.3217H49.9051V40.7165H53.5621V27.3217ZM52.5394 25.0205C52.2841 25.1233 52.0091 25.1708 51.7339 25.1599C51.4613 25.1681 51.1901 25.1192 50.9375 25.0166C50.6847 24.9139 50.4567 24.7596 50.2669 24.5636C49.8927 24.1631 49.6848 23.6353 49.6848 23.0872C49.6848 22.539 49.8927 22.0112 50.2669 21.6108C50.6583 21.2197 51.1889 21 51.742 21C52.2958 21 52.8253 21.2197 53.2178 21.6108C53.584 22.0153 53.7853 22.5415 53.7853 23.0872C53.7853 23.6328 53.584 24.159 53.2178 24.5636C53.0267 24.762 52.7947 24.9177 52.5394 25.0205Z" fill="white"/>
</svg>
