<svg width="65" height="64" viewBox="0 0 65 64" fill="none" xmlns="http://www.w3.org/2000/svg">
<rect x="0.5" width="64" height="64" rx="32" fill="#F2EFEA"/>
<mask id="mask0_1358_6707" style="mask-type:luminance" maskUnits="userSpaceOnUse" x="16" y="16" width="33" height="32">
<path d="M48.5 16H16.5V48H48.5V16Z" fill="white"/>
</mask>
<g mask="url(#mask0_1358_6707)">
<path fill-rule="evenodd" clip-rule="evenodd" d="M26.8675 35.053C27.7288 35.053 29.4421 35.0057 31.8103 34.0307C34.5701 32.8945 40.0607 30.8318 44.0215 28.7132C46.7916 27.2314 48.0059 25.2716 48.0059 22.6324C48.0059 18.9694 45.0365 16 41.3736 16H26.0265C20.7651 16 16.5 20.2651 16.5 25.5265C16.5 30.7878 20.4934 35.053 26.8675 35.053Z" fill="#39594D"/>
<path fill-rule="evenodd" clip-rule="evenodd" d="M29.4629 41.6131C29.4629 39.0341 31.0155 36.7088 33.3975 35.7202L38.2307 33.7144C43.1193 31.6855 48.5002 35.2781 48.5002 40.5712C48.5002 44.6719 45.1752 47.996 41.0743 47.9949L35.8416 47.9935C32.3184 47.9926 29.4629 45.1363 29.4629 41.6131Z" fill="#D18EE2"/>
<path d="M21.9917 36.3086C18.9588 36.3086 16.5 38.7671 16.5 41.8002V42.5115C16.5 45.5444 18.9587 48.0031 21.9917 48.0031C25.0246 48.0031 27.4834 45.5444 27.4834 42.5115V41.8002C27.4834 38.7671 25.0247 36.3086 21.9917 36.3086Z" fill="#FF7759"/>
</g>
</svg>
