<svg width="64" height="64" viewBox="0 0 64 64" fill="none" xmlns="http://www.w3.org/2000/svg">
<rect width="64" height="64" rx="32" fill="#022169"/>
<path d="M49.8447 29.3903C49.4717 27.2714 47.7337 25.7954 45.6069 25.6208C41.8057 25.3192 38.5202 27.327 34.8221 27.9698C34.5285 28.0174 34.1317 27.3984 33.7746 27.0492C35.4887 25.7795 35.2506 23.2876 33.2746 22.2084C33.1397 22.0576 33.1873 20.6212 33.2667 20.5577C33.4254 20.4228 34.6951 20.6688 34.8697 20.5101C35.0522 20.3593 35.0126 18.8674 34.9014 18.7166C34.7903 18.5737 33.3619 18.7245 33.2825 18.6293C33.2032 18.534 33.3222 17.1849 33.1873 17.0818C33.0921 17.0024 32.6953 16.9945 32.4731 17.0024C32.2509 17.0024 31.8541 17.0104 31.7588 17.0818C31.6239 17.1849 31.743 18.534 31.6636 18.6293C31.5843 18.7245 30.1558 18.5737 30.0447 18.7166C29.9336 18.8594 29.8939 20.3514 30.0764 20.5101C30.259 20.6609 31.5208 20.4228 31.6795 20.5577C31.7588 20.6212 31.8065 22.0576 31.6716 22.2084C29.6876 23.2876 29.4574 25.7795 31.1716 27.0492C30.8145 27.4063 30.4177 28.0174 30.1161 27.9698C26.4259 27.327 23.1405 25.3192 19.3392 25.6208C17.2124 25.7874 15.4665 27.2635 15.1015 29.3903C14.4348 33.2075 17.2203 36.1517 18.5774 39.3895C19.0059 40.4132 19.3789 41.7861 19.3154 42.9765C19.3154 42.9765 30.3621 42.9765 32.3302 42.9765H32.6318C34.5999 42.9765 45.6466 42.9765 45.6466 42.9765C45.5831 41.7941 45.9561 40.4132 46.3847 39.3895C47.7179 36.1517 50.5113 33.2075 49.8447 29.3903ZM30.8938 37.8499C30.5526 39.7704 29.4733 40.9846 28.5686 40.9925C27.9814 40.9925 27.5052 40.7783 27.0767 40.4053C26.4815 39.8974 25.9974 39.0562 26.1561 38.5562C26.291 38.3896 27.8861 38.6277 27.9972 38.4689C28.1083 38.3102 27.8068 37.0881 27.6243 36.9294C27.4417 36.7707 26.0053 36.9849 25.8069 36.8262C25.6165 36.6675 25.434 35.1518 25.2356 35.0565C25.2356 35.0565 23.7119 34.8343 23.6008 35.0486C23.4897 35.2629 24.1166 36.5326 24.0055 36.7469C23.9023 36.9611 21.8787 36.5564 21.8469 36.7786C21.8152 37.0008 21.966 38.1198 22.1564 38.2864C22.3469 38.4531 24.2356 38.461 24.2356 38.461C24.6245 38.7546 24.7277 39.3498 24.7356 39.9688C24.7356 40.7465 24.1245 41.1513 23.1484 40.8814C21.3232 40.3815 19.0615 36.477 17.7203 33.7788C16.7362 31.7949 16.1411 28.5491 18.7281 27.573C20.3074 26.9778 21.966 27.3191 23.6643 27.8111C25.4419 28.3348 27.7909 29.0332 29.1718 29.8823C29.513 30.0887 28.767 29.922 29.9971 32.6043C30.5605 33.8582 31.1319 36.5088 30.8938 37.8499ZM41.7898 40.8814C40.8137 41.1513 40.1947 40.7465 40.2026 39.9688C40.2026 39.3578 40.3058 38.7546 40.7026 38.461C40.7026 38.461 42.5913 38.4531 42.7818 38.2864C42.9722 38.1198 43.123 37.0087 43.0913 36.7786C43.0595 36.5564 41.0359 36.9611 40.9327 36.7469C40.8295 36.5326 41.4485 35.2629 41.3374 35.0486C41.2263 34.8343 39.7026 35.0565 39.7026 35.0565C39.5043 35.1518 39.3297 36.6675 39.1313 36.8262C38.9408 36.9849 37.4965 36.7707 37.314 36.9294C37.1314 37.0881 36.8219 38.3182 36.941 38.4689C37.0521 38.6277 38.6472 38.3816 38.7821 38.5562C38.9329 39.0562 38.4567 39.8895 37.8615 40.4053C37.433 40.7783 36.9568 41.0005 36.3696 40.9925C35.4728 40.9846 34.3856 39.7704 34.0444 37.8499C33.8063 36.5088 34.3777 33.8582 34.9491 32.6043C36.1791 29.922 35.4332 30.0887 35.7744 29.8823C37.1552 29.0332 39.5042 28.3348 41.2819 27.8111C42.9802 27.3111 44.6388 26.9778 46.218 27.573C48.8051 28.5491 48.2099 31.7949 47.2259 33.7788C45.8768 36.477 43.615 40.3736 41.7898 40.8814ZM32.6159 44.7542H18.998V47H45.9244V44.7462H32.6159V44.7542Z" fill="white"/>
</svg>
