<svg width="64" height="64" viewBox="0 0 64 64" fill="none" xmlns="http://www.w3.org/2000/svg">
<rect width="64" height="64" rx="32" fill="#004990"/>
<path d="M18.2224 19L17.0418 20.2146C17.0259 21.0866 17.0099 22.1766 17.0099 22.7217C16.8982 31.2706 17.4885 44.5689 31.7511 51C39.2973 47.5898 44.9927 41.7348 46.4924 32.6409C47.3698 27.3776 46.8434 22.3791 46.8434 19.0156L18.2224 19ZM31.799 50.019C16.3718 43.0428 18.2224 27.471 18.2224 20.199L45.5511 20.2146C45.5352 27.5022 47.2582 43.074 31.799 50.019Z" fill="white"/>
<path d="M26.3384 37.9219C25.2539 39.0294 24.2007 40.1369 23.8392 40.501C23.7606 40.592 23.7449 40.6679 23.7921 40.7286C23.8707 40.8044 23.965 40.9106 24.0121 40.9106C24.075 40.9258 24.1222 40.9561 24.2479 40.8348C24.2951 40.7893 25.4739 39.6818 26.8885 38.377C26.8885 38.377 26.7471 38.3012 26.6213 38.2102C26.4799 38.104 26.3384 37.9219 26.3384 37.9219ZM27.0614 37.6337C27.3287 37.8916 27.7845 38.1343 27.7845 38.1343L27.533 38.3619C27.4387 38.4529 27.0929 38.3012 26.7628 38.0129C26.4327 37.7247 26.2284 37.4061 26.3227 37.3151L26.5899 37.0723C26.5899 37.0723 26.7785 37.3758 27.0614 37.6337ZM39.353 40.4858C39.5731 40.2734 39.5888 40.0762 39.5888 40.0762L39.8403 40.1976C39.9032 40.2734 39.856 40.5465 39.6202 40.7589C39.4002 40.9713 39.0858 41.0472 39.0072 40.9713L38.8815 40.7134C38.8815 40.7134 39.1173 40.7134 39.353 40.4858ZM38.9758 40.1066C39.1173 39.9852 39.1644 39.8183 39.1644 39.8183L39.3216 39.9245C39.3687 39.97 39.3216 40.1521 39.1644 40.3038C39.0072 40.4555 38.7715 40.5162 38.7243 40.4555L38.63 40.2886C38.6457 40.2886 38.8343 40.2431 38.9758 40.1066ZM39.7303 28.2579L39.4473 28.5006C39.0544 28.6523 38.1585 27.9848 37.4669 27.3931C36.9953 26.9987 36.0522 25.9974 36.3194 25.5878L36.4452 25.4664C36.3666 25.4209 36.288 25.3754 36.2251 25.345C36.1465 25.2995 36.0365 25.2843 35.9265 25.2843C35.8164 25.2995 35.7221 25.345 35.7221 25.4361C35.7064 25.6181 35.8164 25.8608 35.9579 26.1339C36.0994 26.4222 36.6967 27.2414 37.8598 28.1365C38.3942 28.5461 39.0072 28.804 39.4631 28.9558C39.5416 28.9861 39.8246 29.0468 39.9503 28.9254C40.0761 28.804 39.9346 28.5917 39.8403 28.3944C39.8089 28.3641 39.7774 28.3186 39.7303 28.2579ZM28.3661 28.9406C27.1086 27.7421 26.6371 27.4538 26.0712 27.2262C25.7726 27.1049 25.4896 27.0139 25.3953 27.0442C25.1438 27.1352 24.7823 27.2869 24.5465 27.4842C24.3894 27.6207 24.3894 27.6966 24.4837 27.7421C24.578 27.7876 25.2067 27.9241 25.7883 28.2275C26.81 28.7434 28.7119 30.0329 32.8614 34.1746C34.9677 36.2834 38.2842 39.5301 38.2842 39.5301L38.3628 39.4694C38.3628 39.4694 33.5373 34.2353 29.765 30.3667C29.262 29.8205 28.7904 29.3502 28.3661 28.9406ZM27.5173 24.01V24.283C27.5173 24.5561 27.7845 26.8318 29.1362 28.4855C30.3151 29.9115 33.8674 33.9926 34.4333 34.6449C34.9677 35.2518 38.4571 39.1963 38.8972 39.6969L38.9444 39.7424C38.9444 39.7424 38.8972 39.8486 38.7872 39.9245C38.6772 40.0155 38.5514 40.0155 38.5514 40.0155L38.4414 39.9093C38.3314 39.788 32.3113 33.9622 31.7297 33.4161C31.1482 32.8699 28.036 29.9722 26.7628 29.1833C25.6468 28.5006 25.1438 28.1213 23.9335 28.0151C23.9335 28.0151 23.069 27.9848 23.0062 27.9393C22.9904 27.9393 23.0062 27.8938 23.0376 27.8938C23.572 27.6814 24.7509 27.029 25.6625 26.1794C26.9671 24.9961 27.3758 24.1617 27.4387 24.0251C27.4544 23.9948 27.5173 23.9948 27.5173 24.01Z" fill="white"/>
<path d="M24.8812 25.8346C25.0225 25.7114 25.5246 25.2187 25.9483 24.7259C26.3876 24.2177 26.623 23.7557 26.623 23.7557C26.623 23.7557 26.6858 23.6171 26.6858 23.5093C26.6701 23.4323 26.5916 23.4015 26.5602 23.3707C26.5132 23.3246 25.4304 23.8173 24.944 24.2485C24.8812 24.2947 24.7871 24.5103 24.74 24.6797C24.6929 24.8183 25.0538 25.1879 24.8185 25.7576C24.7871 25.8346 24.8655 25.85 24.8812 25.8346ZM24.5046 26.5122C23.9554 26.9588 23.265 27.3745 22.6687 27.6209C22.2921 27.7749 21.7429 27.6055 22.1352 26.8818C22.2607 26.6662 22.4176 26.389 22.653 26.0964C23.3748 25.1571 24.6772 23.9867 25.9326 23.3246C26.3092 23.1244 26.6701 22.9858 26.827 23.0012C27.1408 23.0166 27.1565 23.2784 27.0938 23.5247C26.9525 24.0483 26.0424 25.2495 24.5046 26.5122ZM31.4717 33.9192C31.2207 34.1502 27.3134 37.8306 27.3134 37.8306C27.3762 37.8922 27.5331 38 27.5331 38C27.5331 38 31.1265 34.6122 31.3933 34.3658C31.4717 34.3042 31.6287 34.1502 31.6757 34.104L31.4717 33.9192ZM38.8311 29.3918C38.8782 29.3918 38.941 29.3764 38.9881 29.3764C39.0508 29.3764 39.1293 29.361 39.1293 29.3456C39.1607 29.3148 39.1764 29.284 39.1136 29.284C38.9253 29.284 38.5958 29.1917 38.2192 29.0069C37.9838 29.0685 37.6072 29.1609 37.1678 29.361C36.6029 29.6074 35.3633 30.3312 32.8369 32.6103L33.0409 32.8413C33.9196 32.0713 35.0808 31.055 35.7242 30.6392C36.854 29.9154 37.67 29.592 38.2192 29.4688C38.4075 29.4226 38.6428 29.4072 38.8311 29.3918ZM36.3675 27.5747C35.6771 26.8664 35.4574 26.3582 35.3476 25.9886C35.3476 25.9732 35.3319 25.9578 35.3319 25.9578C35.3319 25.9578 35.3005 25.9424 35.2848 25.9732C35.2848 25.9886 35.2691 26.004 35.2691 26.0194C35.2064 26.7586 35.2691 27.0666 34.9553 27.8057C34.6885 28.4371 34.2335 29.2224 33.5901 29.9462C33.2292 30.362 32.6015 31.055 32.021 31.7017L32.4289 32.1637C32.4603 32.1175 32.6015 31.9943 32.7428 31.8403C34.6728 29.823 36.3519 28.5603 36.9481 28.1291C36.7598 27.9443 36.5559 27.7595 36.3675 27.5747ZM30.6558 33.1954C29.8398 34.104 29.0238 34.9818 28.7885 35.2435C28.5845 35.4591 26.8113 37.3378 26.8113 37.3378C26.8113 37.3378 26.8584 37.4148 26.9055 37.4764C26.9682 37.538 27.0624 37.615 27.0624 37.615C27.0624 37.615 30.797 33.8576 31.0794 33.5804L30.6558 33.1954ZM37.058 25.0955V25.0185C36.8697 24.9723 36.7128 24.9723 36.6343 25.0493C36.3832 25.311 36.9325 26.1888 37.8426 27.0204C38.7527 27.8519 39.6942 28.3139 39.9453 28.0521C40.0394 27.9443 40.008 27.7441 39.8825 27.4823C38.5487 27.6363 37.058 25.927 37.058 25.0955Z" fill="white"/>
<path d="M40.5931 26.9488C40.5491 27.0505 40.3584 27.3218 40.0651 27.4744C39.7425 27.627 39.3318 27.6609 39.1118 27.5761C38.1292 27.22 37.5426 26.0671 37.5426 26.0671C36.7654 24.626 37.8066 23.9987 37.8946 23.9817C37.8946 23.9817 37.7919 24.4565 37.8506 24.7786C37.9093 25.0668 38.0559 25.2872 38.0999 25.4568C38.2026 25.7789 38.0706 25.9993 37.9973 26.101C37.9679 26.1519 38.0559 26.118 38.0706 26.118C38.0853 26.101 38.0999 26.0841 38.1292 26.0671C38.2759 25.9485 38.4079 25.745 38.3639 25.5585C38.2759 25.1177 37.9973 24.8295 38.3199 23.9139C38.5252 23.3544 38.9799 22.7949 39.0239 22.761C39.0972 22.7101 39.1412 22.6254 39.1412 22.6932C39.1412 22.761 39.2292 23.1679 39.2732 23.4392C39.3172 23.7105 39.5811 24.253 39.5225 25.016C39.4638 25.7789 38.3932 26.6097 38.2466 26.6605C38.2026 26.6775 38.1293 26.7284 38.0999 26.7453C38.0559 26.7962 38.1146 26.7962 38.1439 26.7962C38.2026 26.8131 38.6572 26.6775 39.0239 26.3893C39.3318 26.135 39.6251 25.7789 39.7278 25.5585C39.9185 25.1516 40.0064 24.5921 40.0211 24.5412C40.0504 24.4565 40.0798 24.4565 40.0944 24.5073C40.1091 24.5582 40.1824 24.8803 40.2118 25.0499C40.2264 25.1516 40.2704 25.4059 40.2704 25.6941C40.2704 26.2706 40.1238 26.5249 39.8451 26.7792C39.6838 26.9318 39.4931 26.9827 39.3025 26.9996L39.2292 27.0166C39.1998 27.0166 39.1705 27.0335 39.2292 27.0675C39.2438 27.0844 39.2732 27.0844 39.3025 27.1014C39.4638 27.1861 39.8158 27.1692 40.0358 27.0166C40.1384 26.9488 40.2704 26.8301 40.4611 26.6266C40.5344 26.5419 40.6224 26.4062 40.6371 26.4571C40.6664 26.474 40.6957 26.7284 40.5931 26.9488ZM40.9304 25.6433C40.8131 25.7959 40.6077 26.1689 40.4757 26.3045C40.6077 26.1689 40.6811 25.8298 40.5344 24.9651C40.4317 24.3547 40.3731 24.1513 40.2998 23.9478C40.2558 23.8291 40.1971 23.8631 40.1238 23.9478C40.0504 24.0326 39.9038 24.3547 39.8891 24.3717C39.8745 24.4395 39.8891 24.3717 39.6398 23.4901C39.4785 22.9306 39.4198 22.5406 39.4198 22.3371C39.4198 22.2354 39.4345 22.1167 39.4345 22.0489C39.4345 21.9811 39.4052 21.9811 39.2438 22.0659C39.1558 22.0998 38.5106 22.6254 38.2319 23.4222C38.0706 23.88 38.0706 24.253 38.0413 24.0326C37.9973 23.5918 37.9973 23.5918 37.9679 23.6087C37.7479 23.6935 37 24.0835 37 25.2703C37 26.2706 38.6279 28.4069 39.9624 27.9321C39.9624 27.9321 40.9744 27.7117 40.989 26.6605C41.033 25.5924 40.9304 25.6433 40.9304 25.6433Z" fill="white"/>
</svg>
