<svg width="65" height="64" viewBox="0 0 65 64" fill="none" xmlns="http://www.w3.org/2000/svg">
<rect x="0.5" width="64" height="64" rx="32" fill="white"/>
<path d="M35.2144 28.2878L34.5701 26.4643L29.1052 19.1604L30.0869 18.9169L39.5097 27.0625L45.0552 25.4767C45.7071 25.308 46.4473 25.2716 47.011 25.2754C45.268 21.517 42.0792 18.4317 37.8683 16.9322C29.5443 13.9658 20.3919 18.3148 17.4313 26.6426C16.5147 29.2178 16.2961 31.8755 16.6815 34.4028L29.9661 29.7873L35.2144 28.2878Z" fill="#072F54"/>
<path d="M47.5948 26.7147C47.1078 27.0311 46.3926 27.4453 45.6831 27.6735L40.1261 29.2593L36.4176 41.1633L35.455 41.4759L36.2373 32.3849L35.8001 30.4961L30.5921 31.9822L16.8281 35.2228C17.9173 40.5209 21.668 45.1345 27.1348 47.0827C35.4607 50.0491 44.6093 45.6983 47.5699 37.3762C48.847 33.7885 48.7645 30.0455 47.5948 26.7147Z" fill="#072F54"/>
<path d="M35.7994 30.4973L36.2385 32.3841L35.4542 41.4751L36.4168 41.1625L40.1253 29.2604L45.6823 27.6747C46.3918 27.4465 47.107 27.0284 47.5941 26.7159C47.4234 26.2269 47.2278 25.7456 47.0112 25.2758C46.4474 25.272 45.7072 25.3103 45.0553 25.4753L39.5098 27.0649L30.0852 18.9154L29.1053 19.1608L34.5683 26.4647L35.2145 28.2863L29.9644 29.7897L16.6816 34.4013C16.7238 34.6775 16.7718 34.9517 16.8274 35.224L30.5933 31.9833L35.7994 30.4973Z" fill="#FBC108"/>
</svg>
