<svg xmlns="http://www.w3.org/2000/svg" viewBox="0 0 512 512" width="512" height="512">
  <path fill="#fff" d="M256 0C114.6 0 0 114.6 0 256c0 113.1 73.3 209.1 175 242.9 12.8 2.4 17.5-5.6 17.5-12.4 0-6.1-.2-22.3-.3-43.8-71.1 15.5-86.1-34.3-86.1-34.3-11.6-29.5-28.3-37.3-28.3-37.3-23.1-15.8 1.7-15.5 1.7-15.5 25.6 1.8 39.1 26.3 39.1 26.3 22.7 38.9 59.6 27.7 74.2 21.2 2.3-16.5 8.9-27.7 16.2-34.1-56.8-6.5-116.6-28.4-116.6-126.5 0-28 10-50.9 26.3-68.9-2.6-6.5-11.4-32.8 2.5-68.4 0 0 21.5-6.9 70.3 26.3 20.4-5.7 42.2-8.6 63.9-8.7 21.7.1 43.5 3 63.9 8.7 48.8-33.2 70.3-26.3 70.3-26.3 13.9 35.6 5.1 61.9 2.5 68.4 16.4 18 26.3 40.9 26.3 68.9 0 98.3-59.9 120-116.9 126.3 9.2 7.9 17.4 23.5 17.4 47.3 0 34.1-.3 61.7-.3 70.2 0 6.9 4.6 14.9 17.6 12.4C438.7 465 512 369.1 512 256 512 114.6 397.4 0 256 0z"/>
</svg>
