<svg width="65" height="65" viewBox="0 0 65 65" fill="none" xmlns="http://www.w3.org/2000/svg">
<path d="M42.1315 21.1628C40.184 12.1172 36.0304 6.39453 32.1888 6.39453C28.3472 6.39453 24.1937 12.1172 22.2461 21.1628H42.1315Z" fill="#6F00FF"/>
<path d="M32.1888 6.49453C34.0595 6.49453 36.0321 7.89082 37.788 10.4432C39.525 12.9682 41.0346 16.6042 42.0075 21.0628H22.3701C23.343 16.6042 24.8526 12.9682 26.5896 10.4432C28.3455 7.89082 30.3181 6.49453 32.1888 6.49453Z" stroke="url(#paint0_linear_1257_868)" stroke-opacity="0.5" stroke-width="0.2"/>
<path d="M21.1123 32.2386C21.1118 34.7082 21.2765 37.1751 21.6052 39.6227H42.7718C43.1004 37.1751 43.2651 34.7082 43.2647 32.2386C43.2651 29.769 43.1004 27.3021 42.7718 24.8545H21.6052C21.2765 27.3021 21.1118 29.769 21.1123 32.2386Z" fill="url(#paint1_linear_1257_868)"/>
<path d="M22.2461 43.3149C24.1937 52.3605 28.3472 58.0832 32.1888 58.0832C36.0304 58.0832 40.184 52.3605 42.1315 43.3149H22.2461Z" fill="#9F71FF"/>
<path d="M45.9121 21.1626H57.5421C55.7946 17.1858 53.1395 13.6739 49.7898 10.9085C46.44 8.14318 42.4887 6.20134 38.2529 5.23877C41.7548 8.31979 44.5017 14.0166 45.9121 21.1626Z" fill="#6F00FF"/>
<path d="M38.6071 5.42456C42.6853 6.41135 46.4877 8.3123 49.7261 10.9857C53.0244 13.7085 55.6468 17.1578 57.3885 21.0626H45.9942C44.6161 14.1398 41.9812 8.56781 38.6071 5.42456Z" stroke="url(#paint2_linear_1257_868)" stroke-opacity="0.5" stroke-width="0.2"/>
<path d="M58.8693 24.8545H46.5009C46.8054 27.3041 46.9577 29.7702 46.9568 32.2386C46.9571 34.7071 46.8042 37.1732 46.499 39.6227H58.8674C60.2137 34.792 60.2155 29.6852 58.8693 24.8545Z" fill="url(#paint3_linear_1257_868)"/>
<path d="M38.2529 59.2388C42.4894 58.2767 46.4414 56.3351 49.7918 53.5697C53.1423 50.8043 55.798 47.2922 57.5458 43.3149H45.9158C44.5017 50.4609 41.7548 56.1578 38.2529 59.2388Z" fill="#9F71FF"/>
<path d="M18.4654 43.3149H6.83545C8.58325 47.2922 11.2389 50.8043 14.5894 53.5697C17.9399 56.3351 21.8918 58.2767 26.1283 59.2388C22.6227 56.1578 19.8758 50.4609 18.4654 43.3149Z" fill="#9F71FF"/>
<path d="M26.1244 5.23877C21.8879 6.20081 17.936 8.14242 14.5855 10.9078C11.235 13.6732 8.57935 17.1854 6.83154 21.1626H18.4615C19.8756 14.0166 22.6225 8.31979 26.1244 5.23877Z" fill="#6F00FF"/>
<path d="M14.6491 10.9849C17.8882 8.31151 21.6914 6.41077 25.7704 5.42448C22.3962 8.56771 19.7612 14.1397 18.3794 21.0626H6.98518C8.72722 17.1574 11.3502 13.7078 14.6491 10.9849Z" stroke="url(#paint4_linear_1257_868)" stroke-opacity="0.5" stroke-width="0.2"/>
<path d="M17.4203 32.2386C17.42 29.7701 17.5729 27.304 17.8781 24.8545H5.50969C4.16344 29.6852 4.16344 34.792 5.50969 39.6227H17.8781C17.5729 37.1732 17.42 34.7071 17.4203 32.2386Z" fill="url(#paint5_linear_1257_868)"/>
<defs>
<linearGradient id="paint0_linear_1257_868" x1="32.1888" y1="6.39453" x2="32.1888" y2="21.1628" gradientUnits="userSpaceOnUse">
<stop stop-color="white"/>
<stop offset="1" stop-color="white" stop-opacity="0.1"/>
</linearGradient>
<linearGradient id="paint1_linear_1257_868" x1="32.1885" y1="24.8545" x2="32.1885" y2="39.6227" gradientUnits="userSpaceOnUse">
<stop offset="0.22" stop-color="#6F00FF"/>
<stop offset="1" stop-color="#9F71FF"/>
</linearGradient>
<linearGradient id="paint2_linear_1257_868" x1="47.8975" y1="5.23877" x2="47.8975" y2="21.1626" gradientUnits="userSpaceOnUse">
<stop stop-color="white"/>
<stop offset="1" stop-color="white" stop-opacity="0.1"/>
</linearGradient>
<linearGradient id="paint3_linear_1257_868" x1="53.1881" y1="24.8545" x2="53.1881" y2="39.6227" gradientUnits="userSpaceOnUse">
<stop offset="0.22" stop-color="#6F00FF"/>
<stop offset="1" stop-color="#9F71FF"/>
</linearGradient>
<linearGradient id="paint4_linear_1257_868" x1="16.478" y1="5.23877" x2="16.478" y2="21.1626" gradientUnits="userSpaceOnUse">
<stop stop-color="white"/>
<stop offset="1" stop-color="white" stop-opacity="0.1"/>
</linearGradient>
<linearGradient id="paint5_linear_1257_868" x1="11.189" y1="24.8545" x2="11.189" y2="39.6227" gradientUnits="userSpaceOnUse">
<stop offset="0.22" stop-color="#6F00FF"/>
<stop offset="1" stop-color="#9F71FF"/>
</linearGradient>
</defs>
</svg>
