<svg width="64" height="65" viewBox="0 0 64 65" fill="none" xmlns="http://www.w3.org/2000/svg">
<rect y="0.23877" width="64" height="64" rx="32" fill="white"/>
<path d="M46.5612 32.5621C46.5612 31.365 46.4621 30.4914 46.2475 29.5854H32.2983V34.9888H40.4863C40.3212 36.3316 39.4297 38.3538 37.4487 39.7127L37.421 39.8936L41.8315 43.242L42.1371 43.2719C44.9434 40.732 46.5612 36.9948 46.5612 32.5621Z" fill="#4285F4"/>
<path d="M32.2978 46.7985C36.3091 46.7985 39.6767 45.5042 42.1365 43.2716L37.4481 39.7124C36.1936 40.5699 34.5097 41.1684 32.2978 41.1684C28.3689 41.1684 25.0343 38.6286 23.8457 35.118L23.6714 35.1325L19.0854 38.6108L19.0254 38.7742C21.4685 43.5304 26.487 46.7985 32.2978 46.7985Z" fill="#34A853"/>
<path d="M23.8459 35.1185C23.5323 34.2125 23.3508 33.2418 23.3508 32.2388C23.3508 31.2357 23.5323 30.2651 23.8294 29.3592L23.8211 29.1661L19.1776 25.6321L19.0256 25.7029C18.0187 27.6767 17.4409 29.893 17.4409 32.2388C17.4409 34.5845 18.0187 36.8009 19.0256 38.7746L23.8459 35.1185Z" fill="#FBBC05"/>
<path d="M32.2979 23.3085C35.0877 23.3085 36.9695 24.4895 38.0426 25.4764L42.2356 21.4643C39.6604 19.1185 36.3092 17.6787 32.2979 17.6787C26.487 17.6787 21.4685 20.9466 19.0254 25.7028L23.8292 29.3591C25.0344 25.8485 28.3689 23.3085 32.2979 23.3085Z" fill="#EB4335"/>
</svg>
