<svg width="64" height="65" viewBox="0 0 64 65" fill="none" xmlns="http://www.w3.org/2000/svg">
<rect y="0.23877" width="64" height="64" rx="32" fill="#F0CD4C"/>
<g clip-path="url(#clip0_468_577)">
<path d="M48.9388 42.4314C49.1153 42.1658 49.2336 41.8659 49.2861 41.5514C49.3386 41.2368 49.324 40.9147 49.2434 40.6062C49.1264 40.1611 48.8845 39.7908 48.5563 39.5248C48.7143 39.2647 48.8181 38.9752 48.8613 38.6738C48.9558 38.0183 48.7386 37.3637 48.2496 36.8302C47.8691 36.4149 47.3307 36.1863 46.735 36.1863C46.6657 36.1863 46.5953 36.1899 46.5234 36.1971C46.9749 34.752 47.2038 33.2464 47.2024 31.7323C47.2024 23.4953 40.5329 16.8171 32.306 16.8171C24.079 16.8171 17.4088 23.4946 17.4088 31.7323C17.4074 33.2425 17.6352 34.7442 18.0844 36.186H18.0686C17.4728 36.186 16.9346 36.4145 16.5541 36.8298C16.0654 37.363 15.8479 38.0179 15.9424 38.6734C15.9855 38.9749 16.0893 39.2643 16.2474 39.5245C15.9191 39.7904 15.6773 40.1607 15.5604 40.606C15.4797 40.9145 15.4652 41.2368 15.5177 41.5514C15.5703 41.8659 15.6888 42.166 15.8654 42.4314C15.8338 42.4803 15.8049 42.5311 15.7778 42.583C15.4834 43.1427 15.4644 43.775 15.7244 44.364C16.1183 45.2565 17.0975 45.9598 18.9989 46.7145C20.1811 47.1841 21.264 47.4841 21.2735 47.487C22.8373 47.8931 24.2515 48.0994 25.4759 48.0994C27.4864 48.0994 28.9865 47.5487 29.9445 46.4607C31.5655 46.7182 33.2176 46.7088 34.8356 46.433C35.7922 47.5392 37.3009 48.0994 39.3283 48.0994C40.5527 48.0994 41.9671 47.8931 43.5309 47.487C43.5404 47.4841 44.6227 47.1841 45.8055 46.7145C47.7069 45.9598 48.6861 45.2565 49.08 44.364C49.34 43.775 49.3212 43.1427 49.0266 42.583C48.9997 42.5306 48.97 42.48 48.9388 42.4314ZM29.259 44.7576C29.1765 44.9021 29.0882 45.0431 28.994 45.1802C28.7464 45.5433 28.4206 45.8205 28.0427 46.0269C27.3198 46.4213 26.4052 46.5593 25.4757 46.5593C24.0078 46.5593 22.5028 46.2154 21.6592 45.9962C21.6177 45.9854 16.4885 44.5348 17.1379 43.3001C17.2472 43.0925 17.4271 43.0096 17.6535 43.0096C18.5678 43.0096 20.2326 44.3728 20.9483 44.3728C21.108 44.3728 21.2208 44.3045 21.2668 44.1384C21.5717 43.0433 16.6322 42.583 17.0481 40.9974C17.1217 40.7168 17.3207 40.603 17.6007 40.603C18.8094 40.6028 21.5225 42.7313 22.09 42.7313C22.1335 42.7313 22.1647 42.7186 22.1816 42.6917L22.189 42.6796C22.4552 42.2392 22.3025 41.9191 20.4778 40.8001L20.3026 40.6933C18.2949 39.4765 16.8855 38.7444 17.6871 37.8708C17.7793 37.7698 17.9099 37.7251 18.0687 37.7251C18.2572 37.7251 18.4851 37.7883 18.7361 37.8941C19.7965 38.3418 21.2663 39.5629 21.8802 40.0956C22.0612 40.2534 22.1679 40.3497 22.1679 40.3497C22.1679 40.3497 22.9452 41.1591 23.4153 41.1591C23.5236 41.1591 23.6152 41.1166 23.6774 41.0109C24.0109 40.4482 20.5816 37.8464 20.3883 36.773C20.2573 36.0455 20.4803 35.6772 20.8929 35.6772C21.0889 35.6772 21.3283 35.7606 21.5925 35.9285C22.4122 36.4495 23.9947 39.1724 24.5741 40.2315C24.7684 40.5866 25.0999 40.7366 25.3987 40.7366C25.9915 40.7366 26.4549 40.1466 25.453 39.3969C23.9471 38.2686 24.4756 36.4246 25.1942 36.3111C25.2249 36.3064 25.2559 36.3039 25.2868 36.3037C25.9404 36.3037 26.2287 37.4315 26.2287 37.4315C26.2287 37.4315 27.0736 39.5561 28.5252 41.0082C29.8424 42.3264 30.0263 43.4083 29.259 44.7576ZM33.9528 45.0064L33.8776 45.0154L33.7491 45.0302C33.6816 45.0371 33.614 45.0438 33.5462 45.0502L33.4799 45.0562L33.4196 45.0613L33.3338 45.0682C33.3022 45.0705 33.2707 45.0729 33.2391 45.0749L33.1446 45.0812L33.1238 45.0825L33.0495 45.0869L33.0179 45.0885L32.9298 45.0929L32.8274 45.0971L32.7343 45.1003L32.6722 45.1021H32.6409C32.6215 45.1021 32.6023 45.1031 32.5829 45.1033H32.552C32.5326 45.1033 32.5134 45.1033 32.494 45.1044L32.4152 45.1052H32.3049C32.2184 45.1052 32.1322 45.1044 32.046 45.1028L31.9762 45.1012C31.9564 45.1012 31.9365 45.1001 31.9168 45.0996L31.8429 45.0973L31.7509 45.0938L31.6682 45.0902L31.6467 45.0894L31.5679 45.0851C31.5461 45.0839 31.5242 45.0828 31.5025 45.0814L31.4516 45.0784C31.3876 45.0744 31.3236 45.0698 31.2596 45.0648L31.1926 45.0595L31.108 45.0523L31.0091 45.0431C30.954 45.038 30.8988 45.0323 30.8436 45.0262H30.841C31.6465 43.2269 31.2392 41.5465 29.6113 39.9179C28.5439 38.8504 27.8335 37.2739 27.6863 36.9278C27.3881 35.9032 26.5986 34.7644 25.2876 34.7644C25.1768 34.7645 25.0663 34.7734 24.9568 34.7907C24.3823 34.881 23.8803 35.2121 23.5221 35.7102C23.1352 35.2282 22.7589 34.845 22.4187 34.6285C21.9058 34.303 21.394 34.1378 20.8952 34.1378C20.273 34.1378 19.7165 34.3937 19.3287 34.8579L19.319 34.8697L19.2972 34.7778L19.2963 34.7739C19.2225 34.458 19.1606 34.1392 19.1105 33.8187C19.1105 33.8164 19.1105 33.8143 19.1094 33.8122L19.0985 33.7397C19.0926 33.7005 19.0868 33.6611 19.0812 33.6219C19.0766 33.5893 19.0721 33.5566 19.0678 33.5242C19.0636 33.4917 19.059 33.459 19.0551 33.4264C19.0509 33.3936 19.047 33.3609 19.0432 33.3283C19.0394 33.2972 19.0359 33.2661 19.0324 33.2351L19.0314 33.2271C19.0155 33.0838 19.0018 32.9403 18.9905 32.7967L18.9843 32.7136C18.9825 32.6908 18.9809 32.6678 18.9795 32.6447C18.9795 32.6394 18.9788 32.634 18.9785 32.629L18.9727 32.5369C18.9705 32.5035 18.9689 32.4702 18.9672 32.4368C18.9654 32.4036 18.9637 32.3703 18.9622 32.3367L18.9587 32.2494L18.9577 32.2229L18.955 32.1421L18.9531 32.0736C18.9531 32.0462 18.9518 32.0187 18.9513 31.9914L18.9499 31.9051C18.9496 31.8763 18.9499 31.8477 18.9492 31.8189C18.9483 31.79 18.9492 31.7612 18.9492 31.7323C18.9492 24.3458 24.9302 18.3573 32.3081 18.3573C39.686 18.3573 45.6668 24.3455 45.6668 31.7323V31.9051C45.6668 31.9338 45.6661 31.9628 45.6654 31.9914C45.6654 32.0154 45.6645 32.0388 45.6638 32.0628C45.6638 32.0842 45.6629 32.1054 45.662 32.126C45.662 32.153 45.6604 32.1798 45.6595 32.2069V32.2091C45.6572 32.2677 45.6548 32.3263 45.6523 32.3849L45.6513 32.4043L45.6467 32.4919L45.6424 32.5612C45.6326 32.7256 45.6197 32.8899 45.604 33.0538V33.0561C45.6012 33.0868 45.598 33.1177 45.5947 33.1484C45.5869 33.2199 45.579 33.2914 45.571 33.3629L45.5621 33.4347L45.551 33.5191C45.5471 33.5499 45.5428 33.5806 45.5384 33.6114C45.5337 33.6458 45.5286 33.68 45.5236 33.7142L45.5113 33.7951L45.4968 33.8869C45.4919 33.9174 45.487 33.9477 45.4812 33.9783C45.4752 34.0086 45.4706 34.039 45.4653 34.0695C45.4547 34.1302 45.4438 34.1908 45.432 34.2513C45.4085 34.3718 45.384 34.492 45.3581 34.612C45.3516 34.6419 45.3449 34.6719 45.338 34.7017C44.962 34.3358 44.4643 34.1366 43.915 34.1366C43.4167 34.1366 42.9045 34.3016 42.3917 34.6272C42.0513 34.8436 41.6753 35.2269 41.2881 35.7089C40.9294 35.2107 40.4274 34.8798 39.8536 34.7892C39.7441 34.7721 39.6334 34.7633 39.5226 34.7631C38.2113 34.7631 37.4223 35.902 37.1239 36.9265C36.976 37.2726 36.2657 38.849 35.1969 39.9182C33.5703 41.5416 33.1598 43.2145 33.9528 45.0064ZM47.7441 41.4046L47.7388 41.4203C47.7351 41.4304 47.7314 41.4404 47.7273 41.4503C47.721 41.4653 47.7143 41.48 47.7072 41.4946C47.6902 41.5296 47.6708 41.5634 47.6494 41.5959C47.62 41.6399 47.5877 41.6819 47.5527 41.7214C47.5446 41.7306 47.5368 41.7396 47.5276 41.7486C47.5153 41.7622 47.5021 41.7754 47.489 41.7886C47.2516 42.0243 46.8899 42.2306 46.4809 42.4201C46.4346 42.4411 46.3877 42.4621 46.3401 42.4831L46.2929 42.5041C46.2613 42.5181 46.2299 42.532 46.1968 42.5456C46.1645 42.5594 46.1321 42.573 46.0997 42.5864L46.0013 42.6271C45.7713 42.7219 45.5356 42.8121 45.3056 42.9014L45.2074 42.9395L45.1101 42.9777C45.0456 43.0029 44.9818 43.0281 44.9189 43.0534L44.8253 43.0911L44.7334 43.1289L44.6881 43.1478C44.6582 43.1605 44.6285 43.1729 44.5993 43.1856C43.9228 43.4761 43.4363 43.7717 43.5385 44.1386C43.5413 44.149 43.5445 44.1589 43.548 44.1684C43.5572 44.1956 43.5697 44.2214 43.5852 44.2454C43.5944 44.2599 43.6049 44.2734 43.6168 44.2858C43.737 44.4108 43.9557 44.391 44.2316 44.2918C44.254 44.2837 44.2769 44.275 44.3 44.2659C44.3158 44.2599 44.3315 44.2535 44.3474 44.2471L44.3712 44.2371C44.4343 44.2103 44.5011 44.1804 44.5695 44.1478C44.5866 44.1398 44.6039 44.1321 44.6211 44.1229C44.9583 43.9579 45.3407 43.7353 45.72 43.5329C45.7782 43.5013 45.8365 43.4711 45.8945 43.4411C45.9893 43.3919 46.0851 43.3444 46.1816 43.299C46.5409 43.13 46.8784 43.01 47.1501 43.01C47.2773 43.01 47.39 43.0361 47.4836 43.0961L47.4993 43.1065C47.5467 43.14 47.5879 43.1811 47.6216 43.2284C47.6293 43.2396 47.6374 43.251 47.6443 43.2629C47.6517 43.275 47.6588 43.2876 47.6655 43.3003C47.7996 43.5551 47.6873 43.8193 47.4247 44.0782C47.1725 44.3267 46.7801 44.5705 46.3339 44.7962C46.301 44.813 46.2677 44.8297 46.2342 44.846C44.9067 45.4986 43.1687 45.9902 43.1444 45.9963C42.6811 46.1165 42.0187 46.2745 41.2726 46.3926L41.162 46.4097L41.1441 46.4123C40.9748 46.4377 40.8051 46.4601 40.635 46.4796L40.6193 46.4811C40.31 46.5164 39.9927 46.542 39.6749 46.5528H39.6701C39.5559 46.557 39.4418 46.559 39.3276 46.559H39.1961C39.022 46.5565 38.848 46.5487 38.6744 46.5353C38.6703 46.5353 38.6661 46.5353 38.6619 46.5344C38.5998 46.5297 38.5376 46.5239 38.4757 46.517C38.3692 46.5055 38.263 46.4914 38.157 46.4748C38.1158 46.4679 38.0717 46.4607 38.0292 46.4533C38.0098 46.4497 37.9906 46.4462 37.9714 46.4423L37.9668 46.4414C37.9057 46.4298 37.8448 46.4169 37.7842 46.403C37.7491 46.395 37.7139 46.3871 37.6792 46.3777L37.6584 46.3723C37.6411 46.368 37.6242 46.3634 37.6072 46.3588L37.5979 46.3564L37.5434 46.3407C37.5237 46.335 37.5041 46.3292 37.4844 46.3234L37.4773 46.3212L37.426 46.3055C37.4066 46.2995 37.3874 46.2932 37.3682 46.287C37.3524 46.2817 37.3367 46.2762 37.3208 46.2711L37.2861 46.2589C37.2526 46.2473 37.2194 46.2349 37.1863 46.2222L37.1549 46.2101L37.129 46.1996C37.0791 46.1795 37.0294 46.1585 36.9802 46.1365L36.9475 46.1208L36.942 46.1183C36.9304 46.1128 36.9189 46.1073 36.9073 46.1024C36.8845 46.0915 36.862 46.0802 36.8396 46.0687L36.8329 46.0653L36.8005 46.0482C36.7428 46.0182 36.6862 45.9861 36.6309 45.9519L36.6006 45.9333C36.5849 45.9238 36.5706 45.9141 36.5556 45.9044L36.5161 45.8781C36.5019 45.8686 36.4876 45.8588 36.4737 45.8488L36.4483 45.8308C36.4215 45.8115 36.3952 45.792 36.3693 45.7717C36.3556 45.7611 36.342 45.7501 36.3284 45.7401C36.2983 45.7159 36.2688 45.691 36.2397 45.6654L36.2385 45.6644C36.2101 45.6398 36.1825 45.6144 36.1555 45.5885L36.1541 45.5867C36.14 45.5733 36.1262 45.5599 36.1125 45.5459C36.0989 45.532 36.0852 45.5182 36.0719 45.5043C36.0585 45.4902 36.0451 45.4759 36.0321 45.4612C36.0194 45.4474 36.0071 45.4335 35.9947 45.4194L35.9905 45.4146C35.9269 45.3407 35.8673 45.2632 35.8121 45.1825L35.7903 45.1502C35.7758 45.1289 35.7615 45.1074 35.7474 45.0858L35.7058 45.0218C35.6854 44.9905 35.6655 44.9589 35.6461 44.9272C35.6321 44.9046 35.6184 44.882 35.6048 44.8592C35.5934 44.8398 35.5819 44.8206 35.571 44.8015C35.5648 44.7911 35.559 44.7805 35.5532 44.7699C35.5474 44.759 35.5405 44.7478 35.5343 44.7367L35.5244 44.7193C35.5211 44.7134 35.52 44.7117 35.5183 44.7078C35.5063 44.6868 35.4947 44.6654 35.4834 44.6437C35.4783 44.6344 35.4732 44.6248 35.4677 44.6155L35.4518 44.5851L35.4361 44.5549L35.4058 44.4937C35.4009 44.4836 35.3961 44.4736 35.3914 44.4635C35.381 44.4418 35.3711 44.4205 35.3612 44.3991C35.3573 44.3905 35.3533 44.3818 35.3498 44.3732C35.3362 44.3437 35.3233 44.3139 35.3112 44.2837C35.3029 44.2637 35.2953 44.244 35.2872 44.2242C35.2645 44.166 35.2431 44.1072 35.2236 44.0477C35.2177 44.0301 35.2119 44.0126 35.2068 43.9949C35.1941 43.9549 35.1827 43.9145 35.1724 43.8737C35.1599 43.8262 35.1488 43.7782 35.1395 43.73C35.1335 43.7016 35.1282 43.673 35.1238 43.6443C35.119 43.6158 35.115 43.5874 35.1116 43.5592C35.1044 43.5029 35.0993 43.4464 35.0963 43.3898C35.0963 43.3804 35.0954 43.3709 35.0952 43.3615C35.0944 43.3428 35.0938 43.3241 35.0936 43.3054C35.0838 42.5514 35.465 41.8262 36.2799 41.0107C37.7313 39.5587 38.5764 37.4339 38.5764 37.4339C38.5764 37.4339 38.5991 37.3448 38.6465 37.2167C38.6624 37.1742 38.6789 37.1318 38.6964 37.09C38.7163 37.0427 38.7376 36.9959 38.7606 36.95L38.7673 36.9366C38.7967 36.878 38.8286 36.821 38.8633 36.7654C38.8713 36.7525 38.879 36.7396 38.8882 36.7269C38.9139 36.6884 38.9412 36.6512 38.97 36.615C38.9922 36.5873 39.0158 36.5605 39.0406 36.5351C39.1249 36.4482 39.221 36.3773 39.3297 36.3394L39.3435 36.3349C39.3526 36.3319 39.3616 36.3291 39.371 36.3265C39.3819 36.3236 39.3928 36.321 39.4038 36.3187L39.4087 36.3178C39.4318 36.3132 39.4549 36.3101 39.4783 36.3085H39.4804C39.4926 36.3085 39.5048 36.3072 39.5173 36.3072C39.5485 36.3074 39.5795 36.3099 39.6104 36.3146C39.7411 36.3353 39.8658 36.4133 39.9729 36.5337L39.9874 36.5506C40.0223 36.5916 40.054 36.6353 40.0822 36.6812C40.1034 36.7153 40.1233 36.7511 40.1422 36.7887C40.1497 36.8046 40.157 36.8191 40.1642 36.8346C40.1677 36.8425 40.1712 36.8503 40.1746 36.8584C40.1816 36.8741 40.1882 36.89 40.1947 36.9066C40.2315 37.0012 40.2601 37.0988 40.2802 37.1983C40.3015 37.3058 40.3138 37.4149 40.3174 37.5245C40.3186 37.5727 40.3186 37.6214 40.3174 37.6708C40.3165 37.6895 40.3156 37.7084 40.3142 37.7273C40.2997 37.9371 40.2541 38.1436 40.1786 38.34C40.1711 38.3595 40.1628 38.3792 40.155 38.399C40.1171 38.4897 40.0731 38.5776 40.0233 38.6623C39.995 38.7107 39.9643 38.7587 39.9315 38.8063L39.9114 38.8349C39.8337 38.9436 39.747 39.0456 39.6521 39.1399C39.5587 39.2336 39.4586 39.3203 39.3526 39.3995C39.2464 39.478 39.1468 39.5652 39.0548 39.66C38.7898 39.9385 38.7281 40.184 38.7877 40.3702C38.7948 40.3912 38.803 40.4119 38.8126 40.4318C38.8346 40.475 38.8631 40.5147 38.8973 40.5493L38.9067 40.5587C38.9164 40.568 38.9266 40.577 38.937 40.5857L38.9476 40.5943C38.9733 40.6141 39.0005 40.6318 39.0288 40.6471C39.0369 40.6515 39.0445 40.6559 39.0539 40.6602C39.0928 40.6796 39.1335 40.6951 39.1755 40.7069L39.1871 40.7099L39.2028 40.7142L39.2166 40.7175L39.2312 40.7207L39.2458 40.7237L39.2598 40.726C39.2702 40.7279 39.2807 40.7295 39.2911 40.7309L39.3014 40.7324L39.3195 40.7343L39.3308 40.7354L39.3495 40.7368H39.3602L39.3796 40.7377H39.4408L39.4582 40.7368L39.4783 40.7355L39.5028 40.7332L39.5257 40.7304C39.5309 40.7304 39.5361 40.729 39.5414 40.7281C39.6222 40.7163 39.7008 40.6935 39.7752 40.6603C39.791 40.6536 39.8067 40.6462 39.8212 40.6385C39.8522 40.6229 39.8823 40.6055 39.9112 40.5862C39.9516 40.5597 39.9897 40.5299 40.0255 40.4974L40.0503 40.4738C40.0542 40.4699 40.0582 40.4662 40.062 40.4621C40.0863 40.4378 40.1092 40.412 40.1305 40.385C40.1682 40.3374 40.2017 40.2867 40.2308 40.2334C40.5758 39.6055 40.9373 38.9867 41.315 38.378L41.3669 38.2949L41.4192 38.2116C41.4455 38.1696 41.4717 38.1279 41.498 38.0868L41.5246 38.0453L41.5777 37.9625C41.6489 37.8522 41.7203 37.7432 41.7922 37.6351L41.846 37.5547C41.9538 37.3948 42.0615 37.2391 42.168 37.091L42.2212 37.018C42.3371 36.8577 42.4578 36.7012 42.5831 36.5483L42.633 36.4887C42.6411 36.4786 42.6487 36.4689 42.6577 36.4592L42.7065 36.4025C42.7146 36.3932 42.7224 36.384 42.7308 36.375L42.7781 36.3215L42.8019 36.2958C42.8248 36.2709 42.8481 36.2463 42.8717 36.222C42.8875 36.2063 42.9022 36.1904 42.9175 36.1757C43.0069 36.0841 43.1054 36.0021 43.2117 35.931L43.2362 35.9152L43.2611 35.8994C43.2769 35.8895 43.293 35.88 43.3093 35.871C43.726 35.6343 44.0712 35.6168 44.2697 35.8155C44.3901 35.9361 44.4565 36.1357 44.453 36.4133C44.453 36.4257 44.453 36.4378 44.4519 36.4505V36.4643C44.4519 36.4768 44.4509 36.4897 44.45 36.5026C44.45 36.5183 44.448 36.5342 44.4465 36.5499C44.4449 36.5658 44.4442 36.5778 44.4426 36.5917C44.4426 36.5958 44.4417 36.5999 44.4412 36.6039C44.4399 36.6163 44.4383 36.6288 44.4368 36.6412C44.4368 36.645 44.4368 36.6487 44.4352 36.6526C44.4334 36.6694 44.4309 36.6862 44.4279 36.7027C44.426 36.7181 44.4235 36.7335 44.4205 36.7488C44.4193 36.7576 44.4175 36.7663 44.4161 36.7751C44.4116 36.8002 44.4056 36.8251 44.3983 36.8494C44.3848 36.8949 44.3682 36.9396 44.3486 36.983C44.3402 37.0019 44.3312 37.0208 44.322 37.0393C44.303 37.0776 44.2815 37.1168 44.2578 37.1574C44.246 37.1773 44.2339 37.198 44.2208 37.2186L44.2011 37.25C44.181 37.2816 44.16 37.3136 44.1382 37.3459C44.1163 37.3782 44.0929 37.4112 44.0677 37.4445C44.035 37.489 44.0007 37.5344 43.9644 37.5803L43.9369 37.615C43.8591 37.7119 43.7795 37.8072 43.698 37.9009L43.6333 37.9742L43.6004 38.0112C43.5554 38.0615 43.5103 38.1115 43.4648 38.1611L43.4299 38.1988C43.4068 38.2239 43.3827 38.2493 43.3596 38.2746C43.336 38.3002 43.312 38.3256 43.288 38.351L43.2154 38.4276L43.1419 38.5044C43.1174 38.5299 43.0927 38.5559 43.0679 38.5815L42.9182 38.7359C42.2034 39.4699 41.4502 40.2015 41.1954 40.6575C41.1784 40.6874 41.1631 40.7179 41.1492 40.7491C41.113 40.8321 41.0979 40.903 41.1081 40.9604C41.1115 40.9793 41.1182 40.9974 41.1278 41.0139C41.1423 41.0387 41.1598 41.0617 41.1798 41.0822C41.1892 41.0913 41.1989 41.1 41.2095 41.1077C41.2618 41.1452 41.3253 41.1644 41.3896 41.1625H41.4097L41.4303 41.161L41.4511 41.1586L41.4682 41.1561C41.4705 41.1559 41.4728 41.1554 41.4751 41.1549L41.4908 41.1519L41.495 41.1508L41.5123 41.1471L41.5185 41.1455L41.537 41.1408L41.559 41.1342C41.5735 41.1298 41.5879 41.1249 41.6027 41.1194C41.6346 41.1081 41.6658 41.095 41.6963 41.0804C41.7041 41.0767 41.712 41.0732 41.7196 41.0691L41.743 41.0574C41.7737 41.0419 41.8042 41.0252 41.8349 41.007C41.8594 40.9925 41.8837 40.9777 41.908 40.962L41.9316 40.9463C41.9394 40.9413 41.9473 40.9362 41.9551 40.9304L41.9785 40.9147L41.9909 40.906L42.0247 40.8824C42.0563 40.8605 42.0857 40.8381 42.1157 40.8153L42.1183 40.8134L42.1655 40.7767C42.2302 40.7255 42.2917 40.6739 42.3473 40.6254L42.3843 40.5928L42.3878 40.5896L42.407 40.5725C42.4525 40.5317 42.493 40.4936 42.5269 40.462L42.5406 40.4486L42.574 40.417L42.5939 40.3976L42.6007 40.3905L42.6027 40.3886C42.6196 40.3716 42.6196 40.3716 42.6365 40.3545L42.6379 40.3531L42.6443 40.3474C42.6462 40.3453 42.6489 40.3432 42.6519 40.3405L42.6543 40.3383L42.661 40.3323L42.6968 40.3007L42.7169 40.2825C42.7268 40.274 42.7375 40.2643 42.7485 40.2539L42.7726 40.2327C42.7768 40.2292 42.7811 40.2251 42.7855 40.2212L42.8107 40.1992L42.8479 40.1667L42.8674 40.1496C42.9441 40.0827 43.0375 40.002 43.1445 39.9111L43.1884 39.8741L43.2611 39.8132L43.3351 39.7511C43.432 39.6706 43.5364 39.585 43.6467 39.496L43.7192 39.4378C43.7809 39.3887 43.8443 39.3384 43.9085 39.288C43.9342 39.2677 43.9605 39.2474 43.9873 39.2273C44.053 39.1764 44.1191 39.1258 44.1854 39.0758C44.3366 38.9615 44.4926 38.8469 44.6504 38.7352L44.7183 38.6881C44.7655 38.6552 44.8127 38.6226 44.8602 38.5907L44.903 38.5615C44.9878 38.5044 45.0733 38.4484 45.1595 38.3937L45.2023 38.3667L45.2448 38.3402C45.2873 38.3139 45.3297 38.2878 45.3717 38.2626L45.4138 38.2375L45.4983 38.1883C45.5259 38.1722 45.5534 38.1565 45.5809 38.141L45.5975 38.1316L45.6631 38.0958C45.6902 38.081 45.7175 38.0667 45.7445 38.0527L45.785 38.0319L45.8242 38.0119C45.9137 37.9669 46.0048 37.9253 46.0976 37.8872C46.1103 37.8819 46.1228 37.8768 46.1353 37.8713C46.1601 37.8609 46.1848 37.8513 46.2093 37.8429C46.2338 37.8346 46.258 37.8259 46.2818 37.8175C46.3034 37.8102 46.3244 37.8035 46.3449 37.7972L46.3517 37.795C46.3627 37.7917 46.3736 37.7885 46.3845 37.7857L46.3877 37.7848C46.4099 37.7784 46.4321 37.7726 46.4545 37.7673H46.4563C46.4892 37.7594 46.5213 37.7527 46.5527 37.7474C46.5634 37.7456 46.574 37.7439 46.5842 37.7424C46.6147 37.7379 46.6454 37.7347 46.6761 37.7326C46.6955 37.7311 46.715 37.7306 46.7344 37.7306H46.7492C46.769 37.7306 46.788 37.7319 46.8069 37.7338C46.8155 37.7338 46.8241 37.7354 46.8326 37.7366H46.8361C46.8446 37.7375 46.8532 37.7389 46.8615 37.7407C46.8698 37.7424 46.8783 37.7437 46.8864 37.7456H46.8892C46.8973 37.7474 46.9049 37.7497 46.9133 37.752C46.9807 37.7702 47.0425 37.8044 47.0938 37.8517L47.0984 37.8563L47.1074 37.8651L47.1162 37.8745C47.1869 37.9489 47.2454 38.0342 47.2895 38.127L47.2964 38.1427C47.3113 38.178 47.3232 38.2146 47.3314 38.252C47.3544 38.3563 47.3482 38.465 47.3135 38.5659C47.2985 38.6099 47.2802 38.6526 47.2585 38.6935L47.244 38.7197C47.189 38.812 47.1242 38.8979 47.0503 38.9759L47.0344 38.9927C46.9997 39.0296 46.9636 39.0654 46.9264 39.0998C46.9146 39.1109 46.9024 39.1221 46.8901 39.1332L46.8714 39.1501C46.8326 39.1845 46.7929 39.2181 46.7528 39.2509C46.7457 39.2566 46.7385 39.2622 46.7316 39.2682C46.7036 39.2908 46.6747 39.3137 46.6447 39.3367C46.5414 39.4157 46.4362 39.492 46.329 39.5656C46.2659 39.6088 46.2007 39.6524 46.1333 39.6967C46.0078 39.7791 45.8815 39.8598 45.7538 39.9389C45.717 39.9616 45.68 39.9847 45.6423 40.0077C45.2955 40.2212 44.9111 40.4496 44.5011 40.6979L44.395 40.7625C44.2788 40.8335 44.1692 40.9013 44.0661 40.9657L44.0141 40.9985L43.9157 41.0617C43.8768 41.0864 43.8389 41.1107 43.802 41.1348C43.7742 41.1526 43.747 41.1702 43.7204 41.1877L43.6679 41.2223C43.6423 41.2391 43.6169 41.2558 43.5916 41.2729L43.5669 41.2886C43.5408 41.3061 43.5154 41.3232 43.4907 41.3402L43.4504 41.3677L43.4029 41.4007L43.3592 41.4313C43.2901 41.4798 43.2219 41.5294 43.1542 41.5799L43.1306 41.5979C43.104 41.618 43.0783 41.6381 43.0534 41.6577L43.021 41.6836C42.9663 41.7276 42.9168 41.7698 42.872 41.81L42.8502 41.8301C42.8377 41.8416 42.8253 41.8531 42.8137 41.8644C42.8054 41.8721 42.7978 41.8801 42.7895 41.8878L42.7781 41.8991C42.7529 41.9244 42.7284 41.9503 42.7046 41.977L42.6929 41.9904C42.667 42.0204 42.6445 42.0491 42.6245 42.0772L42.6157 42.0899C42.5928 42.1234 42.5725 42.1589 42.5553 42.1958L42.5493 42.2087L42.5456 42.2177L42.5426 42.2255L42.5385 42.2362C42.5373 42.2399 42.5348 42.2465 42.5334 42.2521C42.5262 42.2731 42.5209 42.2948 42.5174 42.3169L42.5156 42.3287L42.5142 42.3395L42.5133 42.3499V42.4053C42.5133 42.4099 42.5133 42.4147 42.5144 42.4194C42.5146 42.4222 42.5149 42.4251 42.5153 42.4279C42.5153 42.4325 42.5165 42.4371 42.517 42.4418L42.5204 42.4612V42.4621C42.5216 42.4683 42.5228 42.4745 42.5244 42.4807C42.526 42.4868 42.5276 42.4937 42.5295 42.5003C42.5352 42.5202 42.5421 42.54 42.55 42.5592C42.55 42.5606 42.5512 42.5622 42.5517 42.5636C42.5539 42.5684 42.5558 42.5733 42.5581 42.5781C42.5667 42.5982 42.5764 42.6178 42.587 42.637L42.5981 42.657L42.6097 42.6771L42.6219 42.6972C42.624 42.7006 42.6263 42.7036 42.629 42.7066L42.633 42.7108L42.6372 42.7147L42.642 42.7184C42.6452 42.7207 42.6485 42.7226 42.652 42.7246C42.6556 42.7262 42.6594 42.7279 42.6633 42.7293C42.6676 42.7307 42.6718 42.732 42.676 42.733C42.7777 42.756 42.9868 42.6716 43.2644 42.5248L43.3143 42.4983L43.3987 42.4522L43.4401 42.4293C43.4694 42.4134 43.4995 42.3958 43.53 42.3783L43.5859 42.3467C43.9531 42.1351 44.3918 41.8631 44.8452 41.5977C44.8875 41.5728 44.9301 41.5481 44.9728 41.5234L45.0585 41.4687C45.1013 41.444 45.144 41.4196 45.1868 41.3956C45.369 41.2918 45.5538 41.1921 45.7404 41.0966L45.8242 41.0541C45.8799 41.0266 45.935 40.9997 45.9895 40.9736C46.0951 40.9235 46.2017 40.876 46.3094 40.831L46.3685 40.807L46.3757 40.8042C46.6884 40.6801 46.972 40.6033 47.2015 40.6033C47.2512 40.603 47.3008 40.607 47.3498 40.6155H47.3512C47.3671 40.6183 47.3813 40.6215 47.3958 40.6252H47.3984C47.4196 40.6303 47.4404 40.6369 47.4605 40.645C47.4765 40.6508 47.492 40.6577 47.507 40.6658C47.5728 40.6992 47.629 40.7484 47.6709 40.8091C47.6745 40.8142 47.6778 40.8195 47.681 40.825C47.6965 40.8487 47.7099 40.8735 47.7208 40.8997C47.7273 40.9147 47.7333 40.9302 47.739 40.947C47.7446 40.9639 47.7496 40.9801 47.7547 40.9976C47.792 41.1314 47.7883 41.2729 47.7441 41.4046Z" fill="#E99D37"/>
<path fill-rule="evenodd" clip-rule="evenodd" d="M36.6466 28.0918C36.8548 28.1655 37.0097 28.3902 37.1571 28.6038C37.3563 28.8927 37.5417 29.1613 37.8262 29.0099C38.162 28.8313 38.4371 28.557 38.6171 28.2217C38.7971 27.8864 38.8736 27.5052 38.8371 27.1264C38.8099 26.8431 38.7204 26.5693 38.5748 26.3249C38.4292 26.0804 38.2313 25.8714 37.9954 25.7127C37.7594 25.5541 37.4911 25.4499 37.2101 25.4075C36.929 25.3652 36.642 25.3858 36.3699 25.4679C36.0059 25.5777 35.6826 25.793 35.4407 26.0866C35.1991 26.3803 35.0496 26.7391 35.0114 27.1177C34.9733 27.4964 35.0482 27.878 35.2266 28.2141C35.3584 28.4624 35.651 28.3454 35.9599 28.2217C36.2021 28.1248 36.4541 28.0238 36.6466 28.0918ZM27.5906 28.0919C27.3825 28.1657 27.2273 28.3904 27.08 28.6039C26.8808 28.8927 26.6954 29.1615 26.4109 29.01C26.16 28.8764 25.942 28.6887 25.7722 28.4605C25.6025 28.2323 25.4855 27.9693 25.4294 27.6903C25.3733 27.4113 25.3797 27.1235 25.4481 26.8473C25.5167 26.5711 25.6453 26.3136 25.8249 26.0932C26.0049 25.8729 26.2312 25.6953 26.4879 25.5731C26.7445 25.4509 27.0252 25.3873 27.3093 25.3866C27.5934 25.386 27.8742 25.4485 28.1314 25.5695C28.3886 25.6906 28.6158 25.8672 28.7967 26.0867C29.0385 26.3803 29.188 26.7392 29.2262 27.1179C29.2643 27.4967 29.1894 27.8782 29.0108 28.2142C28.8786 28.4626 28.586 28.3454 28.2772 28.2217C28.0352 28.1248 27.7831 28.0238 27.5906 28.0919ZM35.2456 36.343C36.681 35.2106 37.2082 33.3623 37.2082 32.2236C37.2082 31.3235 36.6032 31.6067 35.635 32.0866L35.5805 32.1138C34.6916 32.5545 33.5085 33.1411 32.2097 33.1411C30.9108 33.1411 29.7277 32.5543 28.8391 32.1136C27.8395 31.6179 27.2125 31.3069 27.2125 32.2237C27.2125 33.3983 27.7734 35.3271 29.3131 36.4478C29.5162 36.0349 29.8021 35.6683 30.1532 35.3711C30.5042 35.0739 30.9128 34.8526 31.3533 34.7207C31.507 34.6748 31.6653 34.9397 31.8274 35.2108C31.9838 35.4726 32.1435 35.7401 32.3062 35.7401C32.4793 35.7401 32.6495 35.4764 32.8158 35.2189C32.9894 34.95 33.1586 34.6877 33.3224 34.7401C34.1466 35.005 34.836 35.5795 35.2456 36.343Z" fill="#30323A"/>
<path d="M35.2445 36.3431C34.4969 36.9329 33.5033 37.3284 32.2095 37.3284C30.9937 37.3284 30.0428 36.9793 29.3125 36.4479C29.5157 36.0351 29.8018 35.6685 30.1528 35.3715C30.5037 35.0743 30.9123 34.8528 31.3526 34.7208C31.6546 34.6306 31.9743 35.7402 32.3054 35.7402C32.6598 35.7402 33.0013 34.6377 33.3217 34.7402C34.1456 35.0053 34.8348 35.5798 35.2445 36.3431Z" fill="#E44644"/>
<path fill-rule="evenodd" clip-rule="evenodd" d="M24.1574 29.6932C24.021 29.7852 23.8678 29.8492 23.7067 29.8817C23.5455 29.9142 23.3795 29.9145 23.2182 29.8828C23.0569 29.8508 22.9034 29.7875 22.7667 29.6962C22.6299 29.6048 22.5124 29.4874 22.4211 29.3505C22.3297 29.2137 22.2662 29.06 22.2343 28.8987C22.2023 28.7372 22.2025 28.5709 22.2348 28.4094C22.2671 28.2481 22.331 28.0948 22.4226 27.958C22.5143 27.8213 22.6319 27.7041 22.7689 27.6131C23.0444 27.43 23.3812 27.3638 23.7054 27.4288C24.0296 27.4939 24.3149 27.685 24.4986 27.9603C24.6823 28.2356 24.7496 28.5725 24.6857 28.8973C24.6217 29.2222 24.4317 29.5084 24.1574 29.6932ZM42.0331 29.6932C41.8967 29.7852 41.7435 29.8492 41.5824 29.8817C41.4213 29.9142 41.2553 29.9145 41.094 29.8828C40.9327 29.8508 40.7792 29.7875 40.6424 29.6962C40.5056 29.6048 40.3882 29.4874 40.2969 29.3505C40.2054 29.2137 40.1419 29.06 40.11 28.8987C40.0781 28.7372 40.0783 28.5709 40.1106 28.4094C40.1428 28.2481 40.2066 28.0948 40.2983 27.958C40.39 27.8213 40.5077 27.7041 40.6447 27.6131C40.9202 27.43 41.257 27.3638 41.5812 27.4288C41.9053 27.4939 42.1905 27.685 42.3744 27.9603C42.5581 28.2356 42.6254 28.5725 42.5614 28.8973C42.4974 29.2222 42.3074 29.5084 42.0331 29.6932Z" fill="#E99D37"/>
</g>
<defs>
<clipPath id="clip0_468_577">
<rect width="34.6112" height="33.28" fill="white" transform="translate(14.7202 15.5988)"/>
</clipPath>
</defs>
</svg>
