<svg width="65" height="65" viewBox="0 0 65 65" fill="none" xmlns="http://www.w3.org/2000/svg">
<path d="M58.6265 30.8206L51.7084 27.3762L36.4978 34.9497C35.2674 35.5624 33.8857 35.8864 32.5016 35.8864C31.1176 35.8864 29.7359 35.5624 28.5055 34.9497L13.2949 27.3762L6.37676 30.8206C5.8395 31.0883 5.5 31.6368 5.5 32.237C5.5 32.8375 5.8395 33.3857 6.37676 33.6533L29.9159 45.3736C30.7254 45.777 31.6133 45.9784 32.5016 45.9784C33.3896 45.9784 34.2779 45.777 35.0874 45.3742L58.6265 33.6533C59.1638 33.3857 59.5033 32.8375 59.5033 32.237C59.5033 31.6368 59.1638 31.0883 58.6265 30.8206Z" fill="#6F00FF" fill-opacity="0.6"/>
<path d="M58.6265 44.081L51.7084 40.6362L36.4978 48.21C35.2674 48.8228 33.8857 49.1461 32.5016 49.1461C31.1176 49.1461 29.7359 48.8228 28.5055 48.21L13.2949 40.6362L6.37676 44.081C5.8395 44.3483 5.5 44.8971 5.5 45.497C5.5 46.0972 5.8395 46.6457 6.37676 46.9137L29.9159 58.6339C30.7254 59.037 31.6133 59.2388 32.5016 59.2388C33.3896 59.2384 34.2779 59.037 35.0874 58.6339L58.6265 46.9137C59.1638 46.6457 59.5033 46.0972 59.5033 45.497C59.5033 44.8968 59.1638 44.3483 58.6265 44.081Z" fill="#6F00FF" fill-opacity="0.3"/>
<path d="M6.37676 20.3968L29.9159 32.1174C30.7254 32.5202 31.6133 32.7222 32.5016 32.7222C33.3899 32.7222 34.2779 32.5202 35.0874 32.1174L58.6265 20.3968C59.1638 20.1295 59.5033 19.5807 59.5033 18.9808C59.5033 18.3802 59.1638 17.8314 58.6265 17.5641L35.0874 5.84319C33.4681 5.0373 31.5352 5.0373 29.9159 5.84319L6.37676 17.5641C5.8395 17.8314 5.5 18.3802 5.5 18.9808C5.5 19.5807 5.8395 20.1295 6.37676 20.3968Z" fill="url(#paint0_linear_1257_529)"/>
<path d="M6.42133 20.3073L6.42131 20.3073C5.91806 20.0569 5.6 19.5428 5.6 18.9808C5.6 18.4181 5.91808 17.904 6.42131 17.6537L6.42134 17.6536L29.9604 5.93272C31.5517 5.14079 33.4516 5.14079 35.0429 5.93272L58.582 17.6536L58.582 17.6537C59.0852 17.904 59.4033 18.4181 59.4033 18.9808C59.4033 19.5428 59.0852 20.0569 58.582 20.3073L58.582 20.3073L35.0429 32.0279C34.2475 32.4236 33.3748 32.6222 32.5016 32.6222C31.6284 32.6222 30.7558 32.4236 29.9604 32.0279L6.42133 20.3073Z" stroke="url(#paint1_linear_1257_529)" stroke-opacity="0.5" stroke-width="0.2"/>
<defs>
<linearGradient id="paint0_linear_1257_529" x1="32.5016" y1="5.23877" x2="32.5016" y2="32.7222" gradientUnits="userSpaceOnUse">
<stop offset="0.22" stop-color="#6F00FF"/>
<stop offset="1" stop-color="#9F71FF"/>
</linearGradient>
<linearGradient id="paint1_linear_1257_529" x1="32.5016" y1="5.23877" x2="32.5016" y2="32.7222" gradientUnits="userSpaceOnUse">
<stop stop-color="white"/>
<stop offset="1" stop-color="white" stop-opacity="0"/>
</linearGradient>
</defs>
</svg>
