<svg width="64" height="64" viewBox="0 0 64 64" fill="none" xmlns="http://www.w3.org/2000/svg">
<rect width="64" height="64" rx="32" fill="white"/>
<g clip-path="url(#clip0_1358_6717)">
<path d="M45.9656 17H39.9727V22.993H45.9656V17Z" fill="black"/>
<path d="M48.9617 17H42.9688V22.993H48.9617V17Z" fill="#F7D046"/>
<path d="M21.993 17H16V22.993H21.993V17Z" fill="black"/>
<path d="M21.993 22.9932H16V28.9861H21.993V22.9932Z" fill="black"/>
<path d="M21.993 28.9858H16V34.9788H21.993V28.9858Z" fill="black"/>
<path d="M21.993 34.979H16V40.972H21.993V34.979Z" fill="black"/>
<path d="M21.993 40.9717H16V46.9647H21.993V40.9717Z" fill="black"/>
<path d="M24.9891 17H18.9961V22.993H24.9891V17Z" fill="#F7D046"/>
<path d="M48.9617 22.9932H42.9688V28.9861H48.9617V22.9932Z" fill="#F2A73B"/>
<path d="M24.9891 22.9932H18.9961V28.9861H24.9891V22.9932Z" fill="#F2A73B"/>
<path d="M39.9715 22.9932H33.9785V28.9861H39.9715V22.9932Z" fill="black"/>
<path d="M42.9676 22.9932H36.9746V28.9861H42.9676V22.9932Z" fill="#F2A73B"/>
<path d="M30.9832 22.9932H24.9902V28.9861H30.9832V22.9932Z" fill="#F2A73B"/>
<path d="M36.9754 28.9858H30.9824V34.9788H36.9754V28.9858Z" fill="#EE792F"/>
<path d="M42.9676 28.9858H36.9746V34.9788H42.9676V28.9858Z" fill="#EE792F"/>
<path d="M30.9832 28.9858H24.9902V34.9788H30.9832V28.9858Z" fill="#EE792F"/>
<path d="M33.9793 34.979H27.9863V40.972H33.9793V34.979Z" fill="black"/>
<path d="M36.9754 34.979H30.9824V40.972H36.9754V34.979Z" fill="#EB5829"/>
<path d="M48.9617 28.9858H42.9688V34.9788H48.9617V28.9858Z" fill="#EE792F"/>
<path d="M24.9891 28.9858H18.9961V34.9788H24.9891V28.9858Z" fill="#EE792F"/>
<path d="M45.9656 34.979H39.9727V40.972H45.9656V34.979Z" fill="black"/>
<path d="M48.9617 34.979H42.9688V40.972H48.9617V34.979Z" fill="#EB5829"/>
<path d="M45.9656 40.9717H39.9727V46.9647H45.9656V40.9717Z" fill="black"/>
<path d="M24.9891 34.979H18.9961V40.972H24.9891V34.979Z" fill="#EB5829"/>
<path d="M48.9617 40.9717H42.9688V46.9647H48.9617V40.9717Z" fill="#EA3326"/>
<path d="M24.9891 40.9717H18.9961V46.9647H24.9891V40.9717Z" fill="#EA3326"/>
</g>
<defs>
<clipPath id="clip0_1358_6717">
<rect width="32.9614" height="30" fill="white" transform="translate(16 17)"/>
</clipPath>
</defs>
</svg>
