<svg width="65" height="64" viewBox="0 0 65 64" fill="none" xmlns="http://www.w3.org/2000/svg">
<rect x="0.5" width="64" height="64" rx="32" fill="#E8FAFF"/>
<path fill-rule="evenodd" clip-rule="evenodd" d="M16.5 45.9423H26.5288V35.729H16.5V45.9423Z" fill="#415AFF"/>
<path fill-rule="evenodd" clip-rule="evenodd" d="M35.9806 18C35.9806 18.2305 35.9576 18.4611 35.9576 18.6916C35.7732 21.781 34.8049 24.8011 33.168 27.4063V27.4755C36.0959 27.4755 38.4706 29.8963 38.4706 32.8934V45.9193H48.4994V33.3545C48.4994 25.8386 43.2198 19.3833 35.9806 18Z" fill="#415AFF"/>
<path fill-rule="evenodd" clip-rule="evenodd" d="M38.4707 45.9423H48.4995V35.729H38.4707V45.9423Z" fill="#415AFF"/>
<path fill-rule="evenodd" clip-rule="evenodd" d="M16.8926 29.7809C17.8609 29.6195 21.1347 28.536 21.1347 28.536C21.1347 28.536 24.0396 26.9221 25.3537 23.9481C26.2989 21.7809 25.5381 19.9827 25.1462 19.291C20.8811 21.3659 17.907 25.3083 16.8926 29.7809Z" fill="#73A8FF"/>
<path fill-rule="evenodd" clip-rule="evenodd" d="M23.9701 26.4612C20.8577 26.5765 17.8145 27.8906 17.3995 28.0751C16.8693 29.5967 16.5695 31.2336 16.5234 32.8704V33.2163V33.6543C22.4255 34.0232 27.7742 31.1874 30.9096 26.6918C29.4572 26.9223 27.2439 26.3459 23.9701 26.4612Z" fill="#73A8FF"/>
</svg>
