<svg width="64" height="64" viewBox="0 0 64 64" fill="none" xmlns="http://www.w3.org/2000/svg">
<rect width="64" height="64" rx="32" fill="black"/>
<path d="M26.0002 31.9979V41.9956C26.0002 44.2007 24.2049 45.9957 22.0001 45.9957C19.7947 45.9957 18 44.2053 18 42.0006V31.9979C18 29.7931 19.7953 27.9978 22.0001 27.9978C24.2049 27.9978 26.0002 29.7931 26.0002 31.9979ZM31.9979 28.9686C30.3251 28.9686 28.9682 30.3254 28.9682 31.9979C28.9682 33.6706 30.3254 35.0275 31.9979 35.0275C33.6703 35.0275 35.0272 33.6703 35.0272 31.9979C35.0272 30.3254 33.6703 28.9686 31.9979 28.9686ZM22.0001 24.0593C22.5459 24.0587 23.0693 23.8416 23.4552 23.4556C23.8412 23.0696 24.0583 22.5463 24.0589 22.0004C24.0583 21.4546 23.8412 20.9312 23.4552 20.5453C23.0693 20.1593 22.5459 19.9422 22.0001 19.9416C21.4542 19.9422 20.9309 20.1593 20.5449 20.5453C20.159 20.9312 19.9419 21.4546 19.9412 22.0004C19.9419 22.5463 20.159 23.0696 20.5449 23.4556C20.9309 23.8416 21.4542 24.0587 22.0001 24.0593ZM42.0002 18C39.7951 18 38.0001 19.795 38.0001 21.9998V31.9975C38.0001 34.2026 39.7955 35.9976 42.0002 35.9976C44.2053 35.9976 46.0003 34.2026 46.0003 31.9975V21.9998C46.0003 19.795 44.205 18 42.0002 18ZM42.0002 38.0001C39.7951 38.0001 38.0001 39.7955 38.0001 42.0002C38.0001 44.205 39.7955 46 42.0002 46C44.2053 46 46.0003 44.205 46.0003 42.0002C46.0003 39.7951 44.205 38.0001 42.0002 38.0001Z" fill="white"/>
</svg>
