<svg width="64" height="65" viewBox="0 0 64 65" fill="none" xmlns="http://www.w3.org/2000/svg">
<rect y="0.23877" width="64" height="64" rx="32" fill="#76B900"/>
<path d="M27.7778 27.9313V25.9414C27.9705 25.9278 28.1656 25.9172 28.3642 25.9113C33.8029 25.7405 37.3741 30.5868 37.3741 30.5868C37.3741 30.5868 33.5191 35.9415 29.3857 35.9415C28.8393 35.944 28.2962 35.8571 27.7778 35.6844V29.6516C29.8959 29.9075 30.3198 30.8428 31.5949 32.9656L34.4272 30.5773C34.4272 30.5773 32.3581 27.8657 28.8756 27.8657C28.5089 27.8673 28.1427 27.889 27.7784 27.9307M27.7784 21.3588V24.3311C27.9735 24.3152 28.1691 24.3033 28.3648 24.2962C35.9317 24.0415 40.8602 30.5034 40.8602 30.5034C40.8602 30.5034 35.1975 37.3857 29.2988 37.3857C28.7887 37.3858 28.2795 37.3409 27.7772 37.2515V39.0889C28.1974 39.1424 28.6205 39.1692 29.0441 39.1693C34.533 39.1693 38.5026 36.366 42.3452 33.0484C42.9819 33.5591 45.5907 34.8 46.1286 35.3439C42.4735 38.4037 33.956 40.87 29.1274 40.87C28.6622 40.87 28.2147 40.8422 27.776 40.7997V43.3813H48.6399V21.3594L27.7784 21.3588ZM27.7784 35.6832V37.2509C22.7003 36.3471 21.291 31.0704 21.291 31.0704C21.291 31.0704 23.7289 28.3693 27.7778 27.9325V29.6516H27.7695C25.6455 29.3968 23.9861 31.3807 23.9861 31.3807C23.9861 31.3807 24.9166 34.7225 27.779 35.6844M18.7579 30.8404C18.7579 30.8404 21.7669 26.4002 27.7754 25.9414V24.3311C21.1225 24.8632 15.3599 30.5005 15.3599 30.5005C15.3599 30.5005 18.6237 39.9378 27.7778 40.8009V39.0865C21.0604 38.2435 18.7579 30.8404 18.7579 30.8404Z" fill="white"/>
</svg>
