<svg width="65" height="65" viewBox="0 0 65 65" fill="none" xmlns="http://www.w3.org/2000/svg">
<rect x="0.5" y="0.23877" width="64" height="64" rx="32" fill="#501684"/>
<path d="M29.5106 32.1547C24.8547 29.3766 25.3207 25.4089 27.2503 22.4928C27.2917 22.4317 27.3048 22.3299 27.2917 22.2117C27.2109 21.5181 26.4543 19.7635 26.1383 19.2863C26.0574 19.1653 25.9884 19.1753 25.9806 19.2612C25.9549 20.0545 25.0519 22.0427 23.6698 24.3324C22.2009 26.7694 22.1976 32.0581 29.4901 32.2646C29.5599 32.2664 29.5796 32.1947 29.5106 32.1547ZM30.756 31.9496C27.9726 26.0032 33.54 22.1624 34.4468 21.3295C34.575 21.2126 34.5429 21.1048 34.5454 20.9713C34.5454 19.099 33.4728 16.0699 33.1214 15.6366C33.0721 15.5697 33.03 15.5986 33.0095 15.6663C32.5344 17.5118 30.0009 20.2623 29.4901 20.8643C25.1919 25.9749 26.1757 29.0868 30.6633 32.0219C30.7205 32.0581 30.7894 32.0167 30.756 31.9496ZM31.663 31.6967C32.978 25.3892 38.1116 25.2354 38.571 24.0387C39.2874 22.1721 37.9762 18.8598 37.6411 18.4681C37.6087 18.4261 37.5621 18.453 37.5457 18.4878C36.8498 20.0158 35.7213 21.4709 34.8978 22.1393C33.7325 23.0778 29.2732 26.3831 31.5538 31.7013C31.58 31.7671 31.6472 31.7506 31.663 31.6967ZM32.5757 32.244C40.8878 32.5452 41.476 24.9706 41.5088 22.136C41.5126 21.9717 41.4299 21.9573 41.3905 22.0722C41.144 22.6637 40.0635 24.7761 37.0666 26.0604C34.3903 27.2085 32.7808 29.8137 32.5002 32.1547C32.4877 32.2126 32.537 32.244 32.5757 32.244ZM34.4667 35.0832V33.1761H27.9109V35.0832H34.4667ZM30.6336 48.5781C30.687 48.8969 31.3763 49.0533 31.5307 48.5781L33.1187 35.9943H29.2614L30.6336 48.5781Z" fill="white"/>
</svg>
