<svg width="64" height="64" viewBox="0 0 64 64" fill="none" xmlns="http://www.w3.org/2000/svg">
<rect width="64" height="64" rx="32" fill="black"/>
<path d="M44.8978 31.9907C44.8978 34.0868 44.6372 35.997 44.1163 37.7209C43.5954 39.4325 42.8016 40.9086 41.7349 42.1488C40.6806 43.3892 39.3411 44.3443 37.7163 45.0139C36.0915 45.6714 34.169 46 31.9488 46C29.7287 46 27.8062 45.6714 26.1814 45.0139C24.5566 44.3443 23.2109 43.3892 22.1442 42.1488C21.0899 40.9086 20.3023 39.4264 19.7814 37.7023C19.2605 35.9783 19 34.062 19 31.9535C19 29.138 19.4589 26.6884 20.3767 24.6046C21.307 22.5085 22.7333 20.8837 24.6558 19.7302C26.5783 18.5767 29.0217 18 31.9861 18C34.938 18 37.3628 18.5767 39.2605 19.7302C41.1706 20.8837 42.5846 22.5085 43.5023 24.6046C44.4326 26.7008 44.8978 29.1628 44.8978 31.9907ZM25.0465 31.9907C25.0465 33.8884 25.2822 35.5257 25.7535 36.9023C26.2372 38.2667 26.9876 39.321 28.0047 40.0652C29.0217 40.7969 30.3364 41.1627 31.9488 41.1627C33.5861 41.1627 34.9132 40.7969 35.9303 40.0652C36.9473 39.321 37.6853 38.2667 38.1441 36.9023C38.6155 35.5257 38.8511 33.8884 38.8511 31.9907C38.8511 29.138 38.3179 26.893 37.2512 25.2558C36.1845 23.6186 34.4295 22.8 31.9861 22.8C30.3613 22.8 29.0341 23.1721 28.0047 23.9163C26.9876 24.6481 26.2372 25.7023 25.7535 27.0791C25.2822 28.4434 25.0465 30.0806 25.0465 31.9907Z" fill="white"/>
</svg>
