<svg width="64" height="64" viewBox="0 0 64 64" fill="none" xmlns="http://www.w3.org/2000/svg">
<rect width="64" height="64" rx="32" fill="#1B5EAD"/>
<path d="M30.1134 44.0642C30.1134 43.5111 30.1134 43.0483 30.1338 42.4307H29.3687V42.4804C29.8111 42.5302 29.8239 42.6316 29.8239 42.9985V44.0642C29.8239 44.4606 29.8239 44.5749 29.3594 44.6172V44.6671H30.5743V44.6172C30.1134 44.573 30.1208 44.4587 30.1134 44.0642Z" fill="white"/>
<path d="M31.7443 43.4651L31.7148 43.443C31.9415 43.3029 32.1664 43.1682 32.1664 42.8677C32.1664 42.5376 31.8365 42.3901 31.5507 42.3901C31.2299 42.3901 30.8795 42.5616 30.8795 42.9249C30.8795 43.2014 31.0972 43.3563 31.2963 43.5038L31.3294 43.5278C31.0749 43.6568 30.791 43.8338 30.791 44.1546C30.791 44.5363 31.1709 44.7078 31.5045 44.7078C31.8383 44.7078 32.2163 44.5068 32.2163 44.127C32.2163 43.8117 31.9729 43.6402 31.7443 43.4651ZM31.1709 42.7976C31.1696 42.7546 31.1771 42.7117 31.1931 42.6718C31.2091 42.6318 31.2331 42.5955 31.2638 42.5652C31.2944 42.535 31.3309 42.5113 31.3711 42.4959C31.4113 42.4803 31.4542 42.4732 31.4972 42.4749C31.5533 42.4766 31.6084 42.4899 31.659 42.5141C31.7096 42.5382 31.7547 42.5726 31.7913 42.615C31.8279 42.6576 31.8552 42.7072 31.8716 42.7609C31.8879 42.8145 31.8929 42.871 31.8862 42.9267C31.886 43.0171 31.8673 43.1065 31.8315 43.1895C31.7957 43.2725 31.7435 43.3475 31.6778 43.4098C31.4677 43.2567 31.1709 43.0852 31.1709 42.7976ZM31.5561 44.6267C31.4232 44.6186 31.2986 44.5581 31.2099 44.4587C31.1212 44.3593 31.0753 44.2287 31.0824 44.0956C31.0866 43.9897 31.1158 43.8865 31.1678 43.7942C31.2197 43.7019 31.2928 43.6232 31.3811 43.5647C31.6097 43.7379 31.9341 43.9095 31.9341 44.2357C31.9372 44.2867 31.9297 44.3379 31.9119 44.3858C31.8942 44.4339 31.8667 44.4776 31.8311 44.5144C31.7956 44.5511 31.7529 44.58 31.7055 44.5994C31.6582 44.6187 31.6073 44.628 31.5561 44.6267Z" fill="white"/>
<path d="M32.5801 44.1549C32.5801 44.5364 32.9598 44.7079 33.2918 44.7079C33.6236 44.7079 34.0053 44.5069 34.0053 44.1271C34.0053 43.8082 33.7601 43.6368 33.5332 43.4616L33.5038 43.4394C33.7306 43.2993 33.9555 43.1647 33.9555 42.8643C33.9555 42.5342 33.6254 42.3867 33.3378 42.3867C33.0188 42.3867 32.6686 42.5581 32.6686 42.9213C32.6686 43.1979 32.8861 43.3527 33.0853 43.5003L33.1166 43.5242C32.864 43.657 32.5801 43.834 32.5801 44.1549ZM32.9598 42.7978C32.9587 42.7558 32.9659 42.7138 32.9813 42.6747C32.9965 42.6354 33.0196 42.5996 33.0491 42.5695C33.0784 42.5394 33.1136 42.5155 33.1525 42.4994C33.1913 42.4832 33.233 42.4749 33.2752 42.4752C33.3313 42.4765 33.3866 42.4897 33.4374 42.5137C33.4881 42.5378 33.5332 42.5721 33.5699 42.6147C33.6066 42.6573 33.6339 42.707 33.6502 42.7608C33.6663 42.8145 33.6712 42.8712 33.6642 42.9269C33.6642 43.0172 33.646 43.1065 33.6104 43.1896C33.575 43.2726 33.523 43.3476 33.4577 43.4099C33.2567 43.2569 32.9598 43.0855 32.9598 42.7978ZM33.1701 43.5648C33.3968 43.7381 33.7232 43.9096 33.7232 44.236C33.7262 44.2862 33.7189 44.3365 33.7018 44.3838C33.6845 44.4311 33.6579 44.4744 33.6233 44.5111C33.5888 44.5477 33.5472 44.5768 33.5009 44.5967C33.4546 44.6167 33.4048 44.6269 33.3545 44.6268C33.2213 44.6187 33.0966 44.5584 33.0075 44.459C32.9185 44.3596 32.8722 44.2291 32.8787 44.0957C32.8823 43.9906 32.9105 43.8878 32.9612 43.7955C33.0117 43.7034 33.0833 43.6243 33.1701 43.5648Z" fill="white"/>
<path d="M34.8148 42.7003H35.4823L34.4461 44.7117H34.6729L35.779 42.4495L35.7514 42.4292H34.4166L34.2617 43.0173L34.3114 43.0303C34.4866 42.75 34.4461 42.7003 34.8148 42.7003Z" fill="white"/>
<path d="M32.3367 15C32.3367 15 23 19.578 23 31.9253C23 44.2728 32.3367 49 32.3367 49C32.3367 49 41.6732 44.2986 41.6732 31.9253C41.6732 19.5522 32.3367 15 32.3367 15ZM32.3367 47.7371C30.0905 46.3999 28.2089 44.5292 26.859 42.2908C28.5813 41.4838 30.4623 41.0718 32.3643 41.085C34.2497 41.0735 36.1144 41.4782 37.8254 42.2705C36.475 44.5178 34.5894 46.3958 32.3367 47.7371ZM38.1517 41.7211C37.3315 41.3298 36.4717 41.0276 35.5871 40.8194V40.5485C35.5871 40.01 35.294 39.9419 34.8975 39.8571C33.2056 39.5399 31.4695 39.5399 29.7776 39.8571C29.359 39.9419 29.0862 39.999 29.0862 40.5485V40.8324C28.2055 41.043 27.3499 41.3477 26.5345 41.7413C26.468 41.627 26.4053 41.5108 26.3409 41.3947C24.7854 38.4817 23.9789 35.2276 23.9938 31.9253C23.9733 28.648 24.7779 25.4182 26.3335 22.5335C27.7251 19.9376 29.7979 17.7705 32.3293 16.2648C34.8605 17.7705 36.9335 19.9376 38.325 22.5335C39.8857 25.4169 40.6954 28.6468 40.6795 31.9253C40.6945 35.2276 39.8878 38.4817 38.3324 41.3947C38.2734 41.5053 38.2126 41.6142 38.1517 41.7211Z" fill="white"/>
<path d="M34.7275 38.9205C33.9362 38.7821 33.134 38.716 32.3307 38.7232C31.5315 38.7219 30.7339 38.7903 29.9467 38.9279C29.7328 38.9647 29.613 39.0699 29.6406 39.2579C29.6439 39.2955 29.6554 39.3319 29.6742 39.3645C29.6931 39.3972 29.719 39.4253 29.7499 39.4467C29.781 39.4682 29.8163 39.4826 29.8535 39.4888C29.8908 39.4951 29.9288 39.4931 29.9651 39.4828C30.7484 39.3436 31.5425 39.2726 32.338 39.2708C33.1308 39.2723 33.9221 39.3402 34.7035 39.4737C34.7385 39.4832 34.775 39.4855 34.8108 39.4803C34.8466 39.4751 34.8809 39.4626 34.9118 39.4436C34.9426 39.4246 34.9691 39.3995 34.9897 39.3697C35.0104 39.34 35.0246 39.3063 35.0316 39.2708C35.0648 39.0662 34.9377 38.9574 34.7275 38.9205Z" fill="white"/>
<path d="M29.9277 33.8041V38.0907C29.9381 38.2059 29.9911 38.3129 30.0764 38.3909C30.1617 38.469 30.2731 38.5123 30.3887 38.5123C30.5042 38.5123 30.6157 38.469 30.701 38.3909C30.7862 38.3129 30.8393 38.2059 30.8496 38.0907V33.2842C30.8515 32.8949 30.9292 32.5098 31.0782 32.1502C31.1868 31.8493 31.357 31.5742 31.5779 31.3428C31.5779 31.3428 31.3788 31.3556 30.9529 31.7447C30.5269 32.1337 29.9277 32.7421 29.9277 33.8041Z" fill="white"/>
<path d="M31.2246 33.0831V37.98C31.2388 38.0923 31.2935 38.1954 31.3783 38.2702C31.4632 38.3449 31.5724 38.3862 31.6855 38.3862C31.7986 38.3862 31.9078 38.3449 31.9927 38.2702C32.0775 38.1954 32.1322 38.0923 32.1464 37.98V32.4931C32.1484 32.1043 32.2268 31.7197 32.3769 31.3611C32.4835 31.062 32.6518 30.7888 32.871 30.5591C32.871 30.5591 32.6719 30.5701 32.2459 30.9592C31.8201 31.3481 31.2246 32.0211 31.2246 33.0831Z" fill="white"/>
<path d="M34.1754 29.7573C34.1754 29.7573 33.9744 29.7684 33.5504 30.1573C33.1263 30.5464 32.5234 31.2193 32.5234 32.2813V37.9803C32.5376 38.0924 32.5923 38.1956 32.6771 38.2705C32.762 38.3452 32.8712 38.3864 32.9843 38.3864C33.0974 38.3864 33.2066 38.3452 33.2915 38.2705C33.3763 38.1956 33.4311 38.0924 33.4452 37.9803V31.6914C33.447 31.3027 33.5247 30.9182 33.6739 30.5593C33.7824 30.2595 33.9533 29.986 34.1754 29.7573Z" fill="white"/>
<path d="M33.8203 31.5972V38.0909C33.8345 38.2031 33.8892 38.3062 33.974 38.381C34.0589 38.4558 34.1681 38.4971 34.2812 38.4971C34.3943 38.4971 34.5035 38.4558 34.5884 38.381C34.6732 38.3062 34.7279 38.2031 34.7422 38.0909V31.0073C34.7447 30.6158 34.8243 30.2286 34.9763 29.8679C35.0833 29.5681 35.2523 29.2942 35.4722 29.064C35.4722 29.064 35.2712 29.0769 34.8472 29.466C34.4232 29.855 33.8203 30.5354 33.8203 31.5972Z" fill="white"/>
<path d="M34.8328 26.772C33.5736 26.772 31.6229 27.4393 30.0391 27.4393C28.4555 27.4393 27.7179 27.1333 27.7179 27.1333L26.7832 28.5861C27.4854 28.8705 28.2383 29.0085 28.9957 28.9918C31.9326 28.9918 33.935 27.8063 35.2643 27.8063C35.6072 27.8063 35.9668 27.9003 36.0313 28.2432C36.0514 28.3631 36.044 28.4861 36.0095 28.6027C35.9749 28.7194 35.9143 28.8265 35.8322 28.9162C35.8322 28.9162 36.4996 28.4792 36.4996 27.8635C36.4996 27.2476 36.0939 26.772 34.8328 26.772Z" fill="white"/>
<path d="M34.3487 25.2845C32.2707 25.3803 31.8135 25.8024 29.555 25.4853C28.4156 25.3268 27.0254 24.6133 27.0254 24.6133L26.1035 26.0661C27.2492 26.6914 28.5319 27.0233 29.837 27.0323C31.9204 27.0598 33.2719 26.4348 34.922 26.4348C36.0577 26.4348 36.4376 26.9234 36.5666 27.1521C36.7263 27.4717 36.7528 27.8417 36.6404 28.1808C36.6404 28.1808 37.6009 27.13 36.7712 26.0587C36.2164 25.3526 35.1839 25.2457 34.3487 25.2845Z" fill="white"/>
<path d="M37.7411 25.9461C37.66 24.7459 36.3971 24.0821 35.4605 23.9439C33.3328 23.6249 32.1953 24.0747 30.2593 23.6212C28.8839 23.3004 27.5509 22.373 27.5509 22.373L26.5664 23.8387C27.7468 24.6638 29.1362 25.1387 30.5746 25.2087C32.3465 25.2547 33.1263 24.956 34.7303 24.9708C36.2514 24.9837 36.8746 25.7212 36.9834 25.8484C37.6509 26.6301 37.1677 27.5999 37.1677 27.5999C37.3796 27.3838 37.5409 27.1233 37.6401 26.8374C37.7391 26.5514 37.7737 26.247 37.7411 25.9461Z" fill="white"/>
<path d="M35.3818 22.3083C33.5233 22.1001 33.055 22.1498 31.9008 21.9396C31.1954 21.7918 30.5133 21.5493 29.8728 21.2188L28.9141 22.6568C29.9874 23.199 31.1722 23.4837 32.3747 23.4883C34.5872 23.4883 35.7967 23.3998 37.0043 24.2259C38.5087 25.2454 37.845 26.8698 37.7418 27.0523C38.1939 26.5201 38.4479 25.8477 38.4608 25.1495C38.4479 23.8314 37.4191 22.5499 35.3818 22.3083Z" fill="white"/>
</svg>
