<svg width="64" height="65" viewBox="0 0 64 65" fill="none" xmlns="http://www.w3.org/2000/svg">
<rect y="0.23877" width="64" height="64" rx="32" fill="black"/>
<path fill-rule="evenodd" clip-rule="evenodd" d="M29.5456 18.0865C29.546 18.7458 29.8083 19.378 30.2748 19.8441C30.7414 20.3101 31.374 20.5717 32.0333 20.5713C32.6927 20.571 33.3249 20.3087 33.791 19.8421C34.257 19.3756 34.5186 18.743 34.5182 18.0837C34.5178 17.4242 34.2554 16.792 33.789 16.326C33.3224 15.8599 32.6899 15.5984 32.0304 15.5988C31.3711 15.5991 30.7389 15.8615 30.2729 16.3279C29.8068 16.7945 29.5453 17.4271 29.5456 18.0865ZM17.2798 25.1652C17.2805 25.8248 17.5429 26.4572 18.0097 26.9233C18.4766 27.3891 19.1093 27.6507 19.769 27.6501C20.4285 27.6496 21.0609 27.387 21.5269 26.9202C21.9928 26.4535 22.2543 25.8206 22.2538 25.1611C22.2532 24.5014 21.9906 23.8691 21.5239 23.403C21.0571 22.9372 20.4244 22.6756 19.7647 22.6761C19.1051 22.6767 18.4729 22.9393 18.0068 23.406C17.5408 23.8728 17.2793 24.5057 17.2798 25.1652ZM17.2798 39.3159C17.2803 39.9754 17.5426 40.6077 18.0093 41.074C18.4759 41.54 19.1086 41.8017 19.7683 41.8014C20.4278 41.801 21.0601 41.5386 21.5264 41.072C21.9924 40.6052 22.2541 39.9725 22.2538 39.313C22.2536 38.9864 22.1891 38.663 22.0639 38.3613C21.9387 38.0597 21.7555 37.7857 21.5244 37.5548C21.2933 37.3241 21.019 37.141 20.7173 37.0162C20.4155 36.8914 20.0921 36.8272 19.7654 36.8274C19.4388 36.8275 19.1154 36.8921 18.8138 37.0172C18.5121 37.1424 18.2381 37.3257 18.0074 37.5569C17.7765 37.788 17.5934 38.0622 17.4686 38.364C17.3438 38.6659 17.2796 38.9893 17.2798 39.3159ZM29.5456 46.3931C29.546 47.0528 29.8084 47.6851 30.275 48.1513C30.7418 48.6174 31.3745 48.8791 32.034 48.8788C32.6936 48.8784 33.326 48.616 33.792 48.1494C34.2583 47.6826 34.52 47.0499 34.5196 46.3904C34.5193 46.0638 34.4549 45.7404 34.3297 45.4387C34.2046 45.1371 34.0211 44.8631 33.7901 44.6322C33.3235 44.1661 32.6908 43.9044 32.0311 43.9048C31.3716 43.9051 30.7393 44.1676 30.273 44.6341C29.807 45.1009 29.5453 45.7336 29.5456 46.3931ZM41.8115 39.3186C41.8117 39.6452 41.876 39.9686 42.0012 40.2702C42.1263 40.5719 42.3098 40.8459 42.5409 41.0768C42.7719 41.3075 43.0461 41.4906 43.348 41.6154C43.6498 41.7402 43.9732 41.8044 44.2998 41.8042C44.6263 41.804 44.9497 41.7395 45.2513 41.6143C45.553 41.4892 45.827 41.3059 46.0579 41.0748C46.2888 40.8436 46.4717 40.5694 46.5965 40.2676C46.7213 39.9659 46.7855 39.6423 46.7853 39.3159C46.7849 38.6562 46.5225 38.0238 46.0559 37.5576C45.5892 37.0916 44.9565 36.8299 44.297 36.8302C43.6373 36.8306 43.0049 37.093 42.5389 37.5596C42.0727 38.0263 41.811 38.6591 41.8115 39.3186ZM41.8115 25.1652C41.812 25.8248 42.0745 26.4572 42.5414 26.9233C43.0081 27.3891 43.6409 27.6507 44.3005 27.6501C44.96 27.6496 45.5924 27.387 46.0584 26.9202C46.5245 26.4535 46.7858 25.8206 46.7853 25.1611C46.7849 24.5014 46.5225 23.8691 46.0559 23.4028C45.5892 22.9368 44.9565 22.6751 44.297 22.6754C43.6373 22.6758 43.0049 22.9382 42.5389 23.4048C42.0727 23.8716 41.811 24.5043 41.8115 25.1638V25.1652ZM29.5456 32.2412C29.546 32.9008 29.8084 33.5332 30.275 33.9994C30.7418 34.4654 31.3745 34.7272 32.034 34.7268C32.6936 34.7265 33.326 34.464 33.792 33.9974C34.2583 33.5307 34.52 32.898 34.5196 32.2385C34.5193 31.9119 34.4549 31.5885 34.3297 31.2868C34.2046 30.9851 34.0211 30.7111 33.7901 30.4802C33.3235 30.0142 32.6908 29.7525 32.0311 29.7528C31.3716 29.7532 30.7393 30.0156 30.273 30.4822C29.807 30.9489 29.5453 31.5817 29.5456 32.2412Z" fill="white"/>
</svg>
