<svg width="64" height="64" viewBox="0 0 64 64" fill="none" xmlns="http://www.w3.org/2000/svg">
<rect width="64" height="64" rx="32" fill="#1D4B38"/>
<path fill-rule="evenodd" clip-rule="evenodd" d="M23.1425 19.7085C25.7854 17.9426 28.8926 17 32.0711 17C35.2497 17 38.3569 17.9426 40.9997 19.7085C43.6426 21.4744 45.7025 23.9843 46.9189 26.9209C48.1353 29.8576 48.4535 33.0889 47.8334 36.2064C47.2133 39.3239 45.6827 42.1875 43.4351 44.4351L41.9612 42.9612C43.9173 41.0051 45.2494 38.5129 45.7891 35.7998C46.3288 33.0866 46.0518 30.2744 44.9931 27.7187C43.9345 25.1629 42.1418 22.9785 39.8417 21.4416C37.5416 19.9047 34.8374 19.0844 32.0711 19.0844C29.3048 19.0844 26.6006 19.9047 24.3005 21.4416C22.0004 22.9785 20.2077 25.1629 19.1491 27.7187C18.0905 30.2744 17.8135 33.0866 18.3532 35.7998C18.8929 38.5129 20.2249 41.0051 22.181 42.9612L20.7071 44.4351C18.4595 42.1875 16.9289 39.3239 16.3088 36.2064C15.6887 33.0889 16.007 29.8576 17.2233 26.9209C18.4397 23.9843 20.4996 21.4744 23.1425 19.7085Z" fill="white"/>
<path d="M29.8455 24.8381L31.3184 23.3652L38.6827 30.7296L37.2098 32.2024L29.8455 24.8381Z" fill="white"/>
<path d="M28.3735 32.2021L25.4277 29.2563L31.3192 23.3649L34.265 26.3106L28.3735 32.2021Z" fill="white"/>
<path d="M29.8474 30.7287L31.3203 29.2559L38.6847 36.6202L37.2118 38.0931L29.8474 30.7287Z" fill="white"/>
<path d="M28.3735 38.0932L25.4277 35.1475L31.3192 29.256L34.265 32.2017L28.3735 38.0932Z" fill="white"/>
<path d="M29.8474 36.6203L31.3203 35.1475L38.6847 42.5118L37.2118 43.9847L29.8474 36.6203Z" fill="white"/>
<path d="M28.3735 43.9848L25.4277 41.0391L31.3192 35.1476L34.265 38.0933L28.3735 43.9848Z" fill="white"/>
<path d="M31.0137 46.9998H33.0966V42.209L31.0137 44.2919V46.9998Z" fill="white"/>
</svg>
