<svg width="65" height="65" viewBox="0 0 65 65" fill="none" xmlns="http://www.w3.org/2000/svg">
<path d="M50.5 21.4388H47.5V18.7388C47.5 15.1584 45.9196 11.7246 43.1066 9.19284C40.2935 6.66109 36.4782 5.23877 32.5 5.23877C28.5218 5.23877 24.7065 6.66109 21.8934 9.19284C19.0804 11.7246 17.5 15.1584 17.5 18.7388V21.4388H14.5001C13.7044 21.4388 12.9413 21.7233 12.3787 22.2296C11.8161 22.736 11.5001 23.4227 11.5001 24.1388V45.0909C11.494 46.5993 11.9572 48.079 12.8374 49.3626C13.7175 50.6462 14.9793 51.6824 16.48 52.3539L31.15 58.942C31.567 59.137 32.0301 59.2388 32.5 59.2388C32.9699 59.2388 33.433 59.137 33.85 58.942L48.52 52.3539C50.0207 51.6824 51.2825 50.6462 52.1626 49.3626C53.0428 48.079 53.506 46.5993 53.4999 45.0909V24.1388C53.4999 23.4227 53.1839 22.736 52.6213 22.2296C52.0587 21.7233 51.2956 21.4388 50.5 21.4388ZM35.5 40.3389C35.5 41.055 35.1839 41.7417 34.6213 42.2481C34.0587 42.7544 33.2956 43.0389 32.5 43.0389C31.7044 43.0389 30.9413 42.7544 30.3787 42.2481C29.8161 41.7417 29.5 41.055 29.5 40.3389V34.9389C29.5 34.2228 29.8161 33.536 30.3787 33.0297C30.9413 32.5233 31.7044 32.2389 32.5 32.2389C33.2956 32.2389 34.0587 32.5233 34.6213 33.0297C35.1839 33.536 35.5 34.2228 35.5 34.9389V40.3389ZM41.5 21.4388H23.5V18.7388C23.5 16.5906 24.4482 14.5303 26.1361 13.0112C27.8239 11.4922 30.1131 10.6388 32.5 10.6388C34.8869 10.6388 37.1761 11.4922 38.8639 13.0112C40.5518 14.5303 41.5 16.5906 41.5 18.7388V21.4388Z" fill="url(#paint0_linear_1257_2167)"/>
<path d="M47.4 21.4388V21.5388H47.5H50.5C51.2723 21.5388 52.0111 21.8151 52.5544 22.304C53.0973 22.7926 53.3999 23.4529 53.3999 24.1388L53.3999 45.0909L53.3999 45.0913C53.4059 46.5787 52.9492 48.0386 52.0802 49.3061C51.211 50.5736 49.964 51.5982 48.4791 52.2627L48.479 52.2627L33.809 58.8507L33.8076 58.8514C33.4042 59.04 32.9556 59.1388 32.5 59.1388C32.0444 59.1388 31.5958 59.04 31.1924 58.8514L31.191 58.8507L16.521 52.2627L16.5209 52.2627C15.036 51.5982 13.789 50.5736 12.9198 49.3061C12.0508 48.0386 11.5941 46.5787 11.6001 45.0913V45.0909V24.1388C11.6001 23.4529 11.9027 22.7926 12.4456 22.304C12.9889 21.8151 13.7277 21.5388 14.5001 21.5388H17.5H17.6V21.4388V18.7388C17.6 15.1885 19.167 11.7812 21.9603 9.26717C24.754 6.75285 28.5451 5.33877 32.5 5.33877C36.4549 5.33877 40.246 6.75285 43.0397 9.26717C45.833 11.7812 47.4 15.1885 47.4 18.7388V21.4388ZM41.5 21.5388H41.6V21.4388V18.7388C41.6 16.5604 40.6384 14.4737 38.9308 12.9369C37.2237 11.4004 34.9103 10.5388 32.5 10.5388C30.0897 10.5388 27.7763 11.4004 26.0692 12.9369C24.3616 14.4737 23.4 16.5604 23.4 18.7388V21.4388V21.5388H23.5H41.5ZM34.6882 42.3224C35.2705 41.7983 35.6 41.0851 35.6 40.3389V34.9389C35.6 34.1927 35.2705 33.4794 34.6882 32.9553C34.1062 32.4316 33.319 32.1389 32.5 32.1389C31.681 32.1389 30.8938 32.4316 30.3118 32.9553C29.7295 33.4794 29.4 34.1927 29.4 34.9389V40.3389C29.4 41.0851 29.7295 41.7983 30.3118 42.3224C30.8938 42.8462 31.681 43.1389 32.5 43.1389C33.319 43.1389 34.1062 42.8462 34.6882 42.3224Z" stroke="url(#paint1_linear_1257_2167)" stroke-opacity="0.5" stroke-width="0.2"/>
<defs>
<linearGradient id="paint0_linear_1257_2167" x1="32.5" y1="5.23877" x2="32.5" y2="59.2388" gradientUnits="userSpaceOnUse">
<stop offset="0.250747" stop-color="#6F00FF"/>
<stop offset="0.9999" stop-color="#9F71FF"/>
<stop offset="1" stop-color="#9F71FF" stop-opacity="0.3"/>
</linearGradient>
<linearGradient id="paint1_linear_1257_2167" x1="32.5" y1="5.23877" x2="32.5" y2="59.2388" gradientUnits="userSpaceOnUse">
<stop stop-color="white"/>
<stop offset="1" stop-color="white" stop-opacity="0"/>
</linearGradient>
</defs>
</svg>
