<svg width="65" height="64" viewBox="0 0 65 64" fill="none" xmlns="http://www.w3.org/2000/svg">
<rect x="0.5" width="64" height="64" rx="32" fill="#17A671"/>
<path d="M32.8743 40.7486C25.4832 40.7486 19.5 34.7151 19.5 27.3743C19.5 19.9832 25.4832 14 32.8743 14C40.2654 14 46.2486 20.0335 46.2486 27.3743C46.2989 34.7654 40.2654 40.7486 32.8743 40.7486ZM32.8743 14.8045C30.3603 14.8045 27.9469 15.5587 25.8855 16.9162C23.824 18.2737 22.2151 20.2346 21.2598 22.5475C20.3045 24.8603 20.0531 27.3743 20.5559 29.838C21.0587 32.3017 22.2654 34.514 24.0251 36.2737C25.7849 38.0335 28.0475 39.2402 30.4609 39.743C32.9246 40.2458 35.4385 39.9944 37.7514 39.0391C40.0642 38.0838 42.0251 36.4748 43.3827 34.4134C44.7905 32.3519 45.4944 29.8883 45.4944 27.4246C45.4944 24.1061 44.1871 20.8883 41.824 18.5251C39.4106 16.1117 36.243 14.8045 32.8743 14.8045Z" fill="white"/>
<path d="M32.8743 45.3741C25.4832 45.3741 19.5 39.3406 19.5 31.9998C19.5 24.659 25.5335 18.6255 32.8743 18.6255C40.2151 18.6255 46.2486 24.659 46.2486 31.9998C46.2989 39.3908 40.2654 45.3741 32.8743 45.3741ZM32.8743 19.3797C30.3603 19.3797 27.9469 20.1339 25.8855 21.4914C23.824 22.8992 22.2151 24.8601 21.2598 27.173C20.3045 29.4858 20.0531 31.9998 20.5559 34.4635C21.0587 36.9272 22.2151 39.1394 23.9749 40.8992C25.7346 42.659 27.9972 43.8657 30.4106 44.3685C32.8743 44.8713 35.3883 44.6199 37.7011 43.6646C40.014 42.7093 41.9748 41.1003 43.3324 39.0389C44.7402 36.9774 45.4441 34.5137 45.4441 32.0501C45.4441 28.7316 44.1369 25.5138 41.7737 23.1506C39.4106 20.7875 36.243 19.3797 32.8743 19.3797Z" fill="white"/>
<path d="M32.8743 50.0001C25.4832 50.0001 19.5 43.9665 19.5 36.6258C19.5 29.285 25.5335 23.2515 32.8743 23.2515C40.2151 23.2515 46.2486 29.285 46.2486 36.6258C46.2989 43.9665 40.2654 50.0001 32.8743 50.0001ZM32.8743 24.0057C30.3603 24.0057 27.9469 24.7598 25.8855 26.1174C23.824 27.5252 22.2151 29.4861 21.2598 31.7989C20.3045 34.0615 20.0531 36.6258 20.5559 39.0392C21.0587 41.5029 22.2654 43.7151 24.0251 45.4749C25.7849 47.2347 28.0475 48.4414 30.4609 48.9442C32.9246 49.447 35.4385 49.1956 37.7514 48.2403C40.0642 47.285 42.0251 45.676 43.3827 43.6146C44.7905 41.5531 45.4944 39.0894 45.4944 36.6258C45.4944 33.3073 44.1871 30.0895 41.824 27.7263C39.4609 25.3632 36.243 24.0057 32.8743 24.0057Z" fill="white"/>
</svg>
