<svg width="64" height="64" viewBox="0 0 64 64" fill="none" xmlns="http://www.w3.org/2000/svg">
<rect width="64" height="64" rx="32" fill="#FFE3E3"/>
<g clip-path="url(#clip0_1358_6769)">
<path d="M22 20.3792V31.997L25.7875 35.782H35.9163V41.0696C35.0556 41.0696 30.6363 41.0696 29.7757 41.0713V38.3349H22.0068V44.1578L25.808 48H38.8867L42.6648 44.2142V32.4487L38.7945 28.7346C38.7945 28.7346 30.4536 28.732 29.4751 28.732V23.1421H35.5483V26.2406H42.6639V20.3818L38.394 16H26.3997L22 20.3792Z" fill="white"/>
<path d="M26.6241 16.5884L22.5488 20.65V31.8127L26.0119 35.2749H36.4642V41.658H29.235V38.9215H22.5574V43.9675L26.0255 47.4921H38.6594L42.1225 44.0248V32.7075L38.5689 29.3179H28.9345V22.6334H36.1048V25.7327H42.1225V20.65L38.1676 16.5884H26.6241Z" fill="#9C2A3E"/>
<path d="M32.636 16.0117C32.4046 16.0228 32.2851 16.1091 32.2338 16.1876C32.1783 16.2764 32.157 16.3456 32.157 16.4335C32.157 16.4984 32.1707 16.5573 32.1835 16.6102C32.1006 16.7793 31.9811 17.0389 31.9683 17.0397H31.8752C31.5175 17.0491 31.4603 17.2062 31.3894 17.3394C31.3484 17.4248 31.3271 17.5084 31.3271 17.5879C31.3339 17.8098 31.4603 18.1189 31.4893 18.165L31.5798 18.2897C31.0095 18.6756 31.0385 19.0436 31.0385 19.2963C31.0385 19.3612 31.0598 19.4253 31.088 19.4893C31.129 19.5567 31.1802 19.6054 31.2357 19.6421L31.1802 19.7036C30.7422 20.04 30.2436 20.3499 30.2359 20.7555L30.3426 21.0842L30.3503 21.0868C30.0472 21.237 29.7288 21.5111 29.7288 21.845V21.8834C29.7663 22.3035 30.2778 22.4691 30.4323 22.5109L30.5663 22.5442L30.6859 22.4751C31.129 22.2087 31.4039 22.1464 31.5602 22.1344V22.1515C31.567 22.9208 30.4827 23.2555 30.4323 23.2717L30.4878 23.2572C29.0602 23.4621 28.5044 24.5251 28.3994 24.7616C28.1748 25.0092 28.0963 25.2243 28.104 25.3908C28.104 25.6197 28.2371 25.7571 28.2448 25.7657L28.2798 25.8041L28.3294 25.828C28.8297 26.0756 29.8141 25.5138 30.3631 25.1552L30.3913 25.139L30.4135 25.1133C30.4827 25.0416 30.5894 24.958 30.6859 24.9631C30.7926 24.9699 30.8771 25.0792 30.8771 25.08L30.9326 25.1509L31.0231 25.1885C31.1427 25.2354 31.2135 25.2679 31.2622 25.2978C31.0376 25.3652 30.5305 25.5693 29.2856 26.1652L29.1789 26.2131L29.1294 26.313C28.9885 26.599 28.4173 26.9251 28.0877 27.0635C27.5678 27.2897 27.2647 27.586 27.1801 27.948C27.1639 28.0214 27.1588 28.0889 27.1588 28.1555C27.1588 28.4731 27.3406 28.6985 27.362 28.7258L27.4482 28.8189L27.5584 28.836C27.876 28.8889 29.4444 28.5423 30.3469 28.3288L30.3666 28.3245L30.3879 28.3168C30.7747 28.1674 30.8951 28.2195 30.9079 28.228L30.9224 28.3279L30.9719 28.3732C30.9437 28.5346 30.6551 28.929 30.3469 29.2407L30.2897 29.2996L30.2701 29.3781C30.1838 29.6539 29.8389 29.8255 29.7194 29.8674L29.7416 29.8597C27.9819 30.3002 27.9605 30.985 27.9964 31.1874L28.051 31.4759L29.657 31.3428L29.7339 31.2753C29.8321 31.1942 29.8602 31.2207 29.8816 31.2446L29.9456 31.3095L30.0438 31.3428C30.0438 31.3428 30.1557 31.3709 30.2701 31.4V31.423C30.2752 31.563 30.241 31.7782 30.1838 31.9951H29.3471L29.3121 32.2384C29.2617 32.27 29.1712 32.3024 29.0662 32.3033C28.6854 32.1453 28.2986 32.5535 28.2491 32.6013L28.2141 32.6329L28.1714 32.7012C28.1364 32.7567 27.9528 32.8566 27.7829 32.93L27.8401 32.9129C27.5106 32.9957 27.4089 33.1725 27.3902 33.3057L27.3808 33.3825C27.3808 33.5379 27.4807 33.6702 27.5857 33.7565C27.3253 33.8239 26.9308 33.923 26.9394 34.2739V34.3021C26.9462 34.4284 27.0153 34.5377 27.1212 34.6077C27.2493 34.682 27.572 34.8861 30.1488 33.8282L30.1753 33.8162C30.1061 33.8837 30.0353 33.952 29.9439 34.0118L29.9081 34.0357L29.8799 34.0707C29.6553 34.3354 29.2318 34.4455 29.225 34.4455L29.2532 34.4412C28.2132 34.6086 27.8666 35.0722 27.7471 35.3352C27.6429 35.5683 27.6489 35.8073 27.7616 35.9764C27.8743 36.1497 27.8948 36.1642 29.0773 35.9508C29.0218 36.101 28.9646 36.335 28.8587 36.5151C28.787 36.5834 27.9511 37.3348 27.9153 37.3655C26.8027 37.9974 26.1351 40.0448 26.0633 40.2813L26.0565 40.3146L26.0488 40.3479V40.4358C26.0488 40.7193 26.1982 40.8559 26.2973 40.9157C26.6337 41.1283 27.134 40.8747 27.3313 40.756L27.4072 40.7108L27.5567 40.4393C27.724 40.1549 28.2124 40.0619 28.3951 40.0465C28.9236 40.1105 29.4513 39.6153 29.5563 39.5078L29.5776 39.4796L29.5973 39.448C29.6476 39.3669 29.7168 39.3575 29.7313 39.3549C30.4775 39.4531 31.0189 38.6428 31.2169 38.3039C31.3843 38.2586 31.5337 38.2996 31.6669 38.5822C31.7651 38.7726 31.8214 39.3566 31.836 39.7093V39.886L31.8001 40.9703L31.7651 42.0145L31.8001 41.9744L31.7933 42.0077L31.7881 42.5695C31.7788 43.034 31.766 43.7375 31.7446 43.8998C31.6592 44.5196 31.5474 44.5913 31.5064 44.6178C31.4705 44.6392 31.3373 44.6912 31.2374 44.7186C31.0829 44.7587 31.0257 44.792 30.8438 44.8705C30.2521 45.1216 30.0908 45.5476 29.9303 45.9318C29.8517 46.1291 29.7535 46.2887 29.6613 46.3468C29.4547 46.4754 29.3141 46.5463 29.2395 46.5594L28.9851 46.6072C28.4224 46.731 28.1407 47.2868 28.1133 47.3492L27.8803 47.8119L37.4865 47.8094L37.4387 47.3893C37.3883 46.9385 37.1911 46.6507 36.2271 46.334C35.819 46.1974 35.7362 46.0975 35.5936 45.9318C35.4177 45.7244 35.2 45.5459 34.4964 45.1899C34.2292 45.0516 33.9816 44.4693 33.8339 43.7281C33.7502 43.3038 33.7792 42.8086 33.7792 42.8035L33.7844 42.7864L33.7297 41.3392L33.722 40.1737C33.722 40.1737 33.7357 39.0228 33.7434 38.5558C34.0798 38.7684 34.4751 38.7982 34.5246 38.8008L35.7567 38.8512L35.7763 38.8486C36.0307 38.8264 36.7701 39.2636 37.3046 39.6853L37.326 39.6999L37.3456 39.7118C37.7273 39.9304 38.2054 40.1481 38.5136 39.8997C38.7185 39.7374 38.7262 39.4659 38.669 39.2866L38.6835 39.3344C38.3736 37.1128 37.0929 36.7482 36.8811 36.7047C36.8103 36.6851 36.7625 36.6646 36.7351 36.65L36.7761 36.6065L36.7548 36.6227C37.1356 36.323 37.2978 36.0225 37.2269 35.7296C37.1142 35.295 36.5575 35.1695 36.4448 35.1499L36.3953 35.1422L36.3458 35.1499C35.8045 35.2267 35.1923 34.8681 35.1283 34.8263C34.5443 34.3789 34.3829 34.0323 34.3829 33.835L34.4093 33.707L34.4025 33.7189L34.4375 33.666L34.452 33.6233C34.6433 33.625 35.1342 33.8419 35.5577 34.1125L35.5219 34.0843C35.9932 34.4993 36.5208 34.3089 36.7334 34.1492L36.8171 34.0895L36.8453 33.9853C36.8803 33.9136 37.0698 33.7215 37.2525 33.5797C37.5147 33.3799 37.5907 33.1836 37.5907 33.0273L37.571 32.8873C37.4284 32.4279 36.6344 32.2623 35.9505 32.206C35.8455 32.1419 35.4809 31.9174 35.4809 31.9174C34.8892 31.5741 34.5511 31.3573 34.3462 30.9398C34.7543 30.9782 35.1419 31.0157 35.3682 31.0396C35.6072 31.1438 36.0931 31.0661 36.2194 31.0064C36.4098 30.9141 36.4722 30.7536 36.4722 30.623V30.5999C36.4525 30.2874 36.0504 29.7871 35.3682 29.4789C34.7551 29.2065 34.2915 28.6191 34.2497 28.4748C34.2147 28.3501 34.1993 28.211 34.1993 28.0838C34.1993 27.948 34.2087 27.8233 34.2224 27.7234C34.5041 27.7354 34.7995 28.0761 34.8047 28.0803L34.9122 28.211L35.0796 28.1965C35.1923 28.1871 35.3895 28.2673 35.4877 28.3211L35.6158 28.392L35.749 28.3493C35.9018 28.2989 36.4252 28.3749 36.7052 28.4159C37.2056 28.4868 37.3823 28.5781 37.542 28.2989L37.5778 28.2349L37.6 28.1512C37.6905 26.7877 36.683 26.2865 36.6412 26.266L36.537 26.2131L36.508 26.2199C36.4585 26.1652 36.3885 26.0577 36.339 25.9603C36.0931 25.5163 35.6218 25.4378 35.2777 25.4626C35.1633 25.3652 35.0087 25.3123 34.8465 25.2935L34.7543 25.191L34.7201 25.0544L34.8892 25.0783C36.4312 25.2926 36.6216 25.2978 36.7906 25.1279C36.8888 25.0297 36.9452 24.9042 36.9366 24.7752L36.9298 24.6728C36.8103 24.1272 35.5782 23.5577 34.5588 23.1752C33.8253 22.8934 33.629 22.598 33.5931 22.5246L33.5581 22.4324C33.5581 22.3675 33.5863 22.3376 33.6076 22.3197C33.6845 22.2522 33.8834 22.2719 34.0721 22.3342L34.108 22.3461L34.1506 22.3504C34.7842 22.3965 35.0796 22.0669 35.1496 21.8637L35.1923 21.7562L35.1564 21.6469C35.0164 21.2413 34.6988 20.9655 34.4102 20.8247C34.4384 20.782 34.6219 20.7102 34.6074 20.4003C34.6023 20.2646 34.4384 19.9162 33.9466 19.5781C34.306 19.4568 33.9534 18.8182 33.5171 18.4767L33.3839 18.3768C33.6435 18.3025 33.792 18.0054 33.8202 17.8098L33.827 17.721C33.827 17.5272 33.7075 17.3676 33.5385 17.3257C33.2217 17.2549 33.1167 17.1763 33.0885 17.149C33.1653 17.137 33.0885 16.7033 33.0313 16.6205L33.074 16.4352C33.074 16.2952 33.0544 16.2107 32.9613 16.1065C32.8691 16.0143 32.7299 16.0083 32.6317 16.0083" fill="white"/>
<path d="M33.4234 38.3572L33.402 40.1715L33.4088 41.349L33.4592 42.7791C33.4592 42.7791 33.4234 43.317 33.5207 43.7917C33.6488 44.4133 33.8878 45.2415 34.3506 45.4771C35.633 46.132 35.1344 46.3087 36.1316 46.64C37.1537 46.979 37.0896 47.2223 37.1263 47.493H28.4029C28.4029 47.493 28.6343 47.0166 29.0587 46.9226C29.4873 46.8279 29.3541 46.9252 29.8382 46.6204C30.2267 46.3719 30.155 45.5147 30.9712 45.1706C31.3025 45.0272 31.5287 44.987 31.6833 44.8914C31.79 44.8223 31.965 44.7121 32.0701 43.9403C32.1051 43.6833 32.111 42.4504 32.1196 42.0209L32.1751 40.9152L32.1256 40.9792L32.1631 39.8847V39.6985C32.1631 39.6985 32.1256 38.7781 31.965 38.44C31.796 38.1045 31.5074 37.8159 31.0002 38.0259C31.0002 38.0259 30.4299 39.1803 29.7246 39.0291C29.7246 39.0291 29.4719 39.0291 29.3242 39.2793C29.3242 39.2793 28.788 39.8249 28.3876 39.7233C28.3876 39.7233 27.5799 39.7711 27.2819 40.2757L27.1717 40.4755C27.1717 40.4755 26.3256 40.9767 26.3751 40.3756C26.3751 40.3756 27.0659 38.1753 28.1152 37.6246L29.121 36.7187C29.121 36.7187 29.6837 35.5815 29.3336 35.5319L28.0298 35.7992C28.0298 35.7992 28.0793 35.0265 29.3387 34.8241C29.3387 34.8241 29.8245 34.6329 30.1276 34.2802C30.1276 34.2802 30.879 33.7773 30.6263 33.3769C30.6263 33.3769 30.3812 33.2249 30.0286 33.5272C30.0286 33.5272 27.2904 34.6525 27.2614 34.2802C27.2477 34.0676 28.0648 34.0796 28.1699 33.8269C28.1699 33.8269 28.1699 33.2762 27.8172 33.5272C27.8172 33.5272 27.515 33.3265 27.9171 33.2241C27.9171 33.2241 28.3671 33.0234 28.473 32.8236C28.473 32.8236 28.7667 32.5231 29.022 32.623C29.022 32.623 29.5769 32.623 29.6256 32.3207H30.4282C30.4282 32.3207 30.7236 31.4294 30.5264 31.1288L30.1259 31.0281C30.1259 31.0281 29.8715 30.7275 29.5206 31.0281L28.3167 31.1288C28.3167 31.1288 28.2117 30.5756 29.8228 30.1751C29.8228 30.1751 30.4214 29.9753 30.5767 29.4716C30.5767 29.4716 31.5757 28.4675 31.2299 28.1635C31.2299 28.1635 31.1744 27.6632 30.2736 28.0141C30.2736 28.0141 27.9086 28.5648 27.6115 28.517C27.6115 28.517 27.0582 27.8639 28.2117 27.361C28.2117 27.361 29.1697 26.9588 29.4207 26.4576C29.4207 26.4576 31.2367 25.5876 31.4348 25.5859C31.4348 25.5859 32.0897 25.2358 31.1317 24.8849C31.1317 24.8849 30.7313 24.3316 30.1806 24.8849C30.1806 24.8849 28.8742 25.7379 28.4721 25.5355C28.4721 25.5355 28.2672 25.3357 28.6676 24.9353C28.6676 24.9353 29.1253 23.7792 30.5264 23.5769C30.5264 23.5769 32.1452 23.0859 31.8353 21.8436C31.8353 21.8436 31.463 21.6242 30.5127 22.1963C30.5127 22.1963 29.4497 21.8428 30.6536 21.304L31.0182 20.8131C31.0182 20.8131 30.6468 21.0752 30.5964 20.7994C30.5614 20.6637 30.5537 20.4698 30.9345 20.2803C31.4271 20.0378 31.3153 19.8158 31.8925 19.7911C31.8925 19.7911 31.9685 19.6792 31.9206 19.552C31.3631 19.4845 31.0976 18.7793 32.0752 18.3524L32.1734 17.9417L31.7507 17.9776C31.7507 17.9776 31.3998 17.3389 32.0752 17.3534C32.0752 17.3534 32.3919 17.0392 32.497 16.5841C32.497 16.5841 32.3279 16.3152 32.631 16.3152C32.631 16.3152 32.8265 16.2264 32.7292 16.6772C32.7292 16.6772 32.8487 16.9351 32.8487 17.1852C32.8487 17.1852 32.7292 17.4738 33.4609 17.6429C33.5378 17.66 33.5463 18.1842 33.0391 18.1347C33.0391 18.1347 32.8778 18.4634 33.3491 18.8382C33.3491 18.8382 34.1363 19.5657 33.4259 19.6058C33.4259 19.6058 34.5171 20.3016 34.208 20.6167C34.0654 20.7542 33.6436 20.5621 33.6018 20.6406C33.5463 20.7567 33.5668 20.8122 33.7213 20.8746C33.8477 20.9275 34.6289 21.129 34.8467 21.7523C34.8467 21.7523 34.7365 22.0665 34.1721 22.0246C34.1721 22.0246 33.1228 21.6379 33.2714 22.5916C33.2714 22.5916 33.3909 23.0748 34.4471 23.4761C34.4471 23.4761 37.0145 24.4443 36.5654 24.8986C36.4458 25.0198 34.2968 24.6313 33.8964 24.6313L33.8409 24.9344C33.8409 24.9344 34.4479 24.7824 34.4479 25.3349L34.693 25.6012C34.693 25.6012 35.0951 25.6013 35.1438 25.8019C35.1438 25.8019 35.7987 25.6525 36.0514 26.105C36.0514 26.105 36.2973 26.6053 36.5013 26.5558C36.5013 26.5558 37.3406 26.9682 37.2621 28.1294C37.2126 28.2148 36.0386 27.9125 35.6501 28.0389C35.6501 28.0389 35.3205 27.851 35.0516 27.8715C35.0516 27.8715 34.4898 27.1893 33.9408 27.4591C33.9408 27.4591 33.7931 28.0696 33.9408 28.5631C34.0176 28.8389 34.5743 29.4801 35.2351 29.7764C35.8695 30.0581 36.1368 30.4825 36.1504 30.6242C36.1649 30.8197 35.6091 30.7583 35.5254 30.7369C35.4324 30.7173 33.8904 30.573 33.8904 30.573C33.8904 30.573 33.8981 30.7164 33.9758 30.9324C34.272 31.6992 34.8774 31.9092 35.8559 32.5205C35.8559 32.5205 37.9127 32.67 37.0589 33.324C37.0589 33.324 36.5876 33.6886 36.5398 33.8883C36.5398 33.8883 36.1376 34.1914 35.7372 33.838C35.7372 33.838 34.2447 32.8723 34.1448 33.5255C34.1448 33.5255 33.6872 34.1377 34.9406 35.0897C34.9406 35.0897 35.6868 35.5704 36.3903 35.467C36.3903 35.467 37.4602 35.6626 36.5526 36.3635C36.5526 36.3635 36.0522 36.8186 36.807 37.0184C36.807 37.0184 38.0587 37.2208 38.3609 39.3784C38.3609 39.3784 38.5659 40.0315 37.5105 39.4287C37.5105 39.4287 36.3075 38.475 35.7517 38.5254L34.5461 38.475C34.5461 38.475 34.0603 38.4528 33.7854 38.1753C33.7854 38.1753 33.4567 37.9175 33.4208 38.3563" fill="#307667"/>
</g>
<defs>
<clipPath id="clip0_1358_6769">
<rect width="20.6639" height="32" fill="white" transform="translate(22 16)"/>
</clipPath>
</defs>
</svg>
