<svg width="64" height="65" viewBox="0 0 64 65" fill="none" xmlns="http://www.w3.org/2000/svg">
<rect y="0.23877" width="64" height="64" rx="32" fill="#EE7835"/>
<path d="M45.1302 45.6788L43.9182 45.107C40.101 43.1922 36.2698 41.29 32.4526 39.3629C32.0067 39.139 31.6863 39.1515 31.2544 39.3629C27.2701 41.377 23.2857 43.3746 19.3013 45.3556L18.6187 45.6788V31.008C18.8973 30.9955 19.162 30.9707 19.4406 30.9707H44.2106C45.1162 30.9707 45.1162 30.9707 45.1302 31.7912V45.6788Z" fill="white"/>
<path d="M18.604 21.7952V18.7988H45.1155C45.1155 19.7064 45.1295 20.614 45.1016 21.5092C45.1016 21.6211 44.9066 21.7703 44.7672 21.8076C44.628 21.8449 44.3494 21.8324 44.1402 21.8324H19.5235L18.604 21.7952Z" fill="white"/>
<path d="M18.5623 27.9372C18.5623 26.9922 18.5484 26.1467 18.5902 25.3013C18.5902 25.1645 18.8131 25.0029 18.9802 24.9283C19.1474 24.8537 19.2867 24.9034 19.4539 24.9034H44.1682C45.1156 24.9034 45.1156 24.9159 45.1296 25.7489C45.1296 26.3332 45.1573 26.9175 45.1016 27.4896C45.0876 27.6511 44.809 27.8252 44.6141 27.9247C44.4191 28.0241 44.3077 27.9372 44.1405 27.9372H18.5623Z" fill="white"/>
</svg>
