<svg width="64" height="64" viewBox="0 0 64 64" fill="none" xmlns="http://www.w3.org/2000/svg">
<rect width="64" height="64" rx="32" fill="#00529B"/>
<path d="M29.2748 40.4629L27.3453 39.0615L24.1267 41.3977L28.0458 44.2432L29.2748 40.4629ZM31.8433 42.3268L28.6248 44.664L31.8433 47L35.0599 44.664L31.8433 42.3268ZM25.1189 37.4446H30.2506L18.4512 28.8778L21.2056 34.6051L25.1189 37.4446ZM30.504 36.6834L31.4856 33.6675L15 21.699L17.7541 27.4274L30.504 36.6834ZM21.3665 25.3774L17.3371 17L15.3934 21.0413L21.3665 25.3774ZM36.3393 39.0615L34.4105 40.4629L35.6405 44.2432L39.5582 41.3977L36.3393 39.0615ZM33.435 37.4446H38.5666L42.4799 34.6051L45.2331 28.8778L33.435 37.4446ZM48.6856 21.699L32.2006 33.6675L33.1808 36.6834L45.9308 27.4274L48.6856 21.699ZM48.2919 21.0413L46.3483 17L42.3178 25.3774L48.2919 21.0413Z" fill="white"/>
</svg>
