<svg width="65" height="64" viewBox="0 0 65 64" fill="none" xmlns="http://www.w3.org/2000/svg">
<rect x="0.5" width="64" height="64" rx="32" fill="url(#paint0_linear_1358_6310)"/>
<path d="M34.7505 31.9561C41.7949 30.8882 47.2358 24.8864 47.4998 17.5566C47.4549 17.2783 47.2386 17.0545 46.9655 17H43.6744C43.2782 17.0938 42.9778 17.4538 42.9778 17.8803V17.7593C42.5904 23.2438 38.0384 27.5879 32.4985 27.5879C26.9525 27.5879 22.4004 23.2377 22.0191 17.7472C21.965 17.3812 21.6918 17.0847 21.3375 17H17.9864C17.7072 17.0787 17.503 17.3328 17.5 17.6383C17.8003 24.9348 23.2261 30.8943 30.2465 31.9561V46.2558C30.3245 46.6793 30.6908 47 31.1322 47H33.8347C34.3301 47 34.7355 46.5916 34.7355 46.0924" fill="white"/>
<defs>
<linearGradient id="paint0_linear_1358_6310" x1="32.5" y1="0" x2="32.5" y2="64" gradientUnits="userSpaceOnUse">
<stop stop-color="#007AFF"/>
<stop offset="1" stop-color="#8D41E5"/>
</linearGradient>
</defs>
</svg>
