<svg width="64" height="65" viewBox="0 0 64 65" fill="none" xmlns="http://www.w3.org/2000/svg">
<rect y="0.23877" width="64" height="64" rx="32" fill="#12282D"/>
<path fill-rule="evenodd" clip-rule="evenodd" d="M40.6121 24.755C40.3858 24.6983 40.15 24.7078 39.9236 24.7834L38.9994 25.0952V16.4114C38.9994 15.9673 38.6315 15.5988 38.1882 15.5988H25.9368C25.4935 15.5988 25.1257 15.9673 25.1257 16.4114V25.1046L24.2014 24.7928C23.9751 24.7172 23.7393 24.7078 23.5129 24.7645C23.1734 24.8495 22.4 25.1897 22.4 26.5315V33.6372C22.4 33.6845 22.4 33.7317 22.4 33.7884C22.466 34.5349 23.098 35.1208 23.843 35.1208H26.9365C27.5967 35.8011 28.4927 36.2074 29.4359 36.2358C29.4547 37.2563 30.0772 38.1823 31.0204 38.5792V40.6013C31.0204 40.6391 30.9921 40.6674 30.9543 40.6674C26.6442 40.847 23.8713 42.2171 23.0791 42.6706C22.6735 42.9447 22.4472 43.4171 22.4943 43.899V45.4865C22.5226 46.044 22.9942 46.4881 23.5507 46.4787C24.0788 46.4598 24.5127 46.0346 24.5504 45.5054C24.5787 45.014 24.2486 44.5699 23.777 44.4471C23.7487 44.4376 23.7204 44.4093 23.7299 44.3809V43.814C23.7299 43.6723 23.8147 43.54 23.9468 43.4644C25.1163 42.8124 28.1155 42.4911 30.3696 42.3777H31.0392C31.0769 42.3777 31.0958 42.4061 31.1052 42.4439C31.2184 44.277 31.407 45.8267 31.4636 46.7999H31.3787C30.9826 46.7999 30.6431 47.244 30.6431 47.8393C30.6431 48.4346 30.9826 48.8788 31.3787 48.8788H32.7557C33.1519 48.8788 33.4914 48.4252 33.4914 47.8393C33.4914 47.2535 33.1519 46.7999 32.7557 46.7999H32.6709C32.6709 46.7999 32.9161 44.2865 33.0293 42.4533C33.0293 42.4155 33.0575 42.3966 33.0953 42.3872H33.7649C36.0284 42.5006 39.0182 42.8313 40.1877 43.4738C40.3197 43.54 40.4046 43.6723 40.4046 43.8234V44.3998C40.4046 44.4282 40.3858 44.4565 40.3575 44.466C39.8765 44.5794 39.5464 45.0329 39.5747 45.5243C39.603 46.0534 40.0462 46.4787 40.5744 46.4976C41.1309 46.507 41.6024 46.0629 41.6307 45.5054V43.9085C41.6684 43.4266 41.4421 42.9541 41.046 42.6801C40.2537 42.2265 37.4809 40.847 33.1519 40.6769C33.1141 40.6769 33.0858 40.6485 33.0858 40.6107V38.5886C34.029 38.1917 34.6515 37.2657 34.6703 36.2452C35.6135 36.2169 36.5189 35.8105 37.1696 35.1302H40.2632C41.0177 35.1302 41.6496 34.5444 41.7062 33.7979C41.7062 33.7506 41.7062 33.7034 41.7062 33.6467V26.522C41.7156 25.1802 40.9422 24.84 40.6121 24.755ZM25.1163 32.2671L23.6921 33.3538C23.6827 33.3632 23.6733 33.3632 23.6638 33.3632C23.6355 33.3632 23.6167 33.3443 23.6167 33.316V26.522C23.6167 26.2669 23.6544 25.8889 23.8053 25.9362L25.0597 26.3614C25.0974 26.3803 25.1257 26.4181 25.1257 26.4559L25.1163 32.2671ZM40.4141 33.3538L38.9899 32.2671V26.4653C38.9899 26.4181 39.0182 26.3803 39.0559 26.3708L40.3103 25.9645C40.4707 25.9173 40.4989 26.2858 40.4989 26.5503V33.316C40.4989 33.3443 40.4801 33.3632 40.4518 33.3632C40.4424 33.3632 40.4329 33.3632 40.4141 33.3538Z" fill="#78D974"/>
</svg>
